%TF.GenerationSoftware,KiCad,Pcbnew,(6.0.4)*%
%TF.CreationDate,2022-10-11T17:38:10-05:00*%
%TF.ProjectId,GummyKey_Left,47756d6d-794b-4657-995f-4c6566742e6b,rev?*%
%TF.SameCoordinates,Original*%
%TF.FileFunction,Legend,Bot*%
%TF.FilePolarity,Positive*%
%FSLAX46Y46*%
G04 Gerber Fmt 4.6, Leading zero omitted, Abs format (unit mm)*
G04 Created by KiCad (PCBNEW (6.0.4)) date 2022-10-11 17:38:10*
%MOMM*%
%LPD*%
G01*
G04 APERTURE LIST*
%ADD10C,0.200000*%
%ADD11C,0.150000*%
%ADD12C,0.120000*%
G04 APERTURE END LIST*
D10*
X211216071Y-106156250D02*
X211406547Y-106061011D01*
X211692261Y-106061011D01*
X211977976Y-106156250D01*
X212168452Y-106346726D01*
X212263690Y-106537202D01*
X212358928Y-106918154D01*
X212358928Y-107203869D01*
X212263690Y-107584821D01*
X212168452Y-107775297D01*
X211977976Y-107965773D01*
X211692261Y-108061011D01*
X211501785Y-108061011D01*
X211216071Y-107965773D01*
X211120833Y-107870535D01*
X211120833Y-107203869D01*
X211501785Y-107203869D01*
X209406547Y-106727678D02*
X209406547Y-108061011D01*
X210263690Y-106727678D02*
X210263690Y-107775297D01*
X210168452Y-107965773D01*
X209977976Y-108061011D01*
X209692261Y-108061011D01*
X209501785Y-107965773D01*
X209406547Y-107870535D01*
X208454166Y-108061011D02*
X208454166Y-106727678D01*
X208454166Y-106918154D02*
X208358928Y-106822916D01*
X208168452Y-106727678D01*
X207882738Y-106727678D01*
X207692261Y-106822916D01*
X207597023Y-107013392D01*
X207597023Y-108061011D01*
X207597023Y-107013392D02*
X207501785Y-106822916D01*
X207311309Y-106727678D01*
X207025595Y-106727678D01*
X206835119Y-106822916D01*
X206739880Y-107013392D01*
X206739880Y-108061011D01*
X205787500Y-108061011D02*
X205787500Y-106727678D01*
X205787500Y-106918154D02*
X205692261Y-106822916D01*
X205501785Y-106727678D01*
X205216071Y-106727678D01*
X205025595Y-106822916D01*
X204930357Y-107013392D01*
X204930357Y-108061011D01*
X204930357Y-107013392D02*
X204835119Y-106822916D01*
X204644642Y-106727678D01*
X204358928Y-106727678D01*
X204168452Y-106822916D01*
X204073214Y-107013392D01*
X204073214Y-108061011D01*
X203311309Y-106727678D02*
X202835119Y-108061011D01*
X202358928Y-106727678D02*
X202835119Y-108061011D01*
X203025595Y-108537202D01*
X203120833Y-108632440D01*
X203311309Y-108727678D01*
X201597023Y-108061011D02*
X201597023Y-106061011D01*
X200454166Y-108061011D02*
X201311309Y-106918154D01*
X200454166Y-106061011D02*
X201597023Y-107203869D01*
X198835119Y-107965773D02*
X199025595Y-108061011D01*
X199406547Y-108061011D01*
X199597023Y-107965773D01*
X199692261Y-107775297D01*
X199692261Y-107013392D01*
X199597023Y-106822916D01*
X199406547Y-106727678D01*
X199025595Y-106727678D01*
X198835119Y-106822916D01*
X198739880Y-107013392D01*
X198739880Y-107203869D01*
X199692261Y-107394345D01*
X198073214Y-106727678D02*
X197597023Y-108061011D01*
X197120833Y-106727678D02*
X197597023Y-108061011D01*
X197787500Y-108537202D01*
X197882738Y-108632440D01*
X198073214Y-108727678D01*
D11*
X212311309Y-110375505D02*
X212311309Y-109375505D01*
X211663690Y-109851696D02*
X211930357Y-109851696D01*
X211930357Y-110375505D02*
X211930357Y-109375505D01*
X211549404Y-109375505D01*
X210482738Y-109899315D02*
X210482738Y-110375505D01*
X210749404Y-109375505D02*
X210482738Y-109899315D01*
X210216071Y-109375505D01*
X209797023Y-109375505D02*
X209644642Y-109375505D01*
X209568452Y-109423125D01*
X209492261Y-109518363D01*
X209454166Y-109708839D01*
X209454166Y-110042172D01*
X209492261Y-110232648D01*
X209568452Y-110327886D01*
X209644642Y-110375505D01*
X209797023Y-110375505D01*
X209873214Y-110327886D01*
X209949404Y-110232648D01*
X209987500Y-110042172D01*
X209987500Y-109708839D01*
X209949404Y-109518363D01*
X209873214Y-109423125D01*
X209797023Y-109375505D01*
X209111309Y-109375505D02*
X209111309Y-110185029D01*
X209073214Y-110280267D01*
X209035119Y-110327886D01*
X208958928Y-110375505D01*
X208806547Y-110375505D01*
X208730357Y-110327886D01*
X208692261Y-110280267D01*
X208654166Y-110185029D01*
X208654166Y-109375505D01*
X207663690Y-110375505D02*
X207663690Y-109375505D01*
X207663690Y-109851696D02*
X207206547Y-109851696D01*
X207206547Y-110375505D02*
X207206547Y-109375505D01*
X206863690Y-110089791D02*
X206482738Y-110089791D01*
X206939880Y-110375505D02*
X206673214Y-109375505D01*
X206406547Y-110375505D01*
X206254166Y-109375505D02*
X205987500Y-110375505D01*
X205720833Y-109375505D01*
X205454166Y-109851696D02*
X205187500Y-109851696D01*
X205073214Y-110375505D02*
X205454166Y-110375505D01*
X205454166Y-109375505D01*
X205073214Y-109375505D01*
X204235119Y-109375505D02*
X203777976Y-109375505D01*
X204006547Y-110375505D02*
X204006547Y-109375505D01*
X203511309Y-110375505D02*
X203511309Y-109375505D01*
X203511309Y-109851696D02*
X203054166Y-109851696D01*
X203054166Y-110375505D02*
X203054166Y-109375505D01*
X202673214Y-109851696D02*
X202406547Y-109851696D01*
X202292261Y-110375505D02*
X202673214Y-110375505D01*
X202673214Y-109375505D01*
X202292261Y-109375505D01*
X201339880Y-110375505D02*
X201339880Y-109375505D01*
X201035119Y-109375505D01*
X200958928Y-109423125D01*
X200920833Y-109470744D01*
X200882738Y-109565982D01*
X200882738Y-109708839D01*
X200920833Y-109804077D01*
X200958928Y-109851696D01*
X201035119Y-109899315D01*
X201339880Y-109899315D01*
X200387500Y-109375505D02*
X200235119Y-109375505D01*
X200158928Y-109423125D01*
X200082738Y-109518363D01*
X200044642Y-109708839D01*
X200044642Y-110042172D01*
X200082738Y-110232648D01*
X200158928Y-110327886D01*
X200235119Y-110375505D01*
X200387500Y-110375505D01*
X200463690Y-110327886D01*
X200539880Y-110232648D01*
X200577976Y-110042172D01*
X200577976Y-109708839D01*
X200539880Y-109518363D01*
X200463690Y-109423125D01*
X200387500Y-109375505D01*
X199777976Y-109375505D02*
X199587500Y-110375505D01*
X199435119Y-109661220D01*
X199282738Y-110375505D01*
X199092261Y-109375505D01*
X198787500Y-109851696D02*
X198520833Y-109851696D01*
X198406547Y-110375505D02*
X198787500Y-110375505D01*
X198787500Y-109375505D01*
X198406547Y-109375505D01*
X197606547Y-110375505D02*
X197873214Y-109899315D01*
X198063690Y-110375505D02*
X198063690Y-109375505D01*
X197758928Y-109375505D01*
X197682738Y-109423125D01*
X197644642Y-109470744D01*
X197606547Y-109565982D01*
X197606547Y-109708839D01*
X197644642Y-109804077D01*
X197682738Y-109851696D01*
X197758928Y-109899315D01*
X198063690Y-109899315D01*
X197225595Y-110327886D02*
X197225595Y-110375505D01*
X197263690Y-110470744D01*
X197301785Y-110518363D01*
X212273214Y-110985505D02*
X212273214Y-111795029D01*
X212235119Y-111890267D01*
X212197023Y-111937886D01*
X212120833Y-111985505D01*
X211968452Y-111985505D01*
X211892261Y-111937886D01*
X211854166Y-111890267D01*
X211816071Y-111795029D01*
X211816071Y-110985505D01*
X211473214Y-111937886D02*
X211358928Y-111985505D01*
X211168452Y-111985505D01*
X211092261Y-111937886D01*
X211054166Y-111890267D01*
X211016071Y-111795029D01*
X211016071Y-111699791D01*
X211054166Y-111604553D01*
X211092261Y-111556934D01*
X211168452Y-111509315D01*
X211320833Y-111461696D01*
X211397023Y-111414077D01*
X211435119Y-111366458D01*
X211473214Y-111271220D01*
X211473214Y-111175982D01*
X211435119Y-111080744D01*
X211397023Y-111033125D01*
X211320833Y-110985505D01*
X211130357Y-110985505D01*
X211016071Y-111033125D01*
X210673214Y-111461696D02*
X210406547Y-111461696D01*
X210292261Y-111985505D02*
X210673214Y-111985505D01*
X210673214Y-110985505D01*
X210292261Y-110985505D01*
X209339880Y-111985505D02*
X209339880Y-110985505D01*
X209073214Y-110985505D02*
X208616071Y-110985505D01*
X208844642Y-111985505D02*
X208844642Y-110985505D01*
X207854166Y-110985505D02*
X207397023Y-110985505D01*
X207625595Y-111985505D02*
X207625595Y-110985505D01*
X206977976Y-110985505D02*
X206825595Y-110985505D01*
X206749404Y-111033125D01*
X206673214Y-111128363D01*
X206635119Y-111318839D01*
X206635119Y-111652172D01*
X206673214Y-111842648D01*
X206749404Y-111937886D01*
X206825595Y-111985505D01*
X206977976Y-111985505D01*
X207054166Y-111937886D01*
X207130357Y-111842648D01*
X207168452Y-111652172D01*
X207168452Y-111318839D01*
X207130357Y-111128363D01*
X207054166Y-111033125D01*
X206977976Y-110985505D01*
X205682738Y-111985505D02*
X205682738Y-110985505D01*
X205225595Y-111985505D02*
X205568452Y-111414077D01*
X205225595Y-110985505D02*
X205682738Y-111556934D01*
X204882738Y-111985505D02*
X204882738Y-110985505D01*
X204120833Y-111985505D02*
X204501785Y-111985505D01*
X204501785Y-110985505D01*
X203473214Y-111985505D02*
X203854166Y-111985505D01*
X203854166Y-110985505D01*
X202711309Y-110985505D02*
X202254166Y-110985505D01*
X202482738Y-111985505D02*
X202482738Y-110985505D01*
X201987500Y-111985505D02*
X201987500Y-110985505D01*
X201987500Y-111461696D02*
X201530357Y-111461696D01*
X201530357Y-111985505D02*
X201530357Y-110985505D01*
X201149404Y-111461696D02*
X200882738Y-111461696D01*
X200768452Y-111985505D02*
X201149404Y-111985505D01*
X201149404Y-110985505D01*
X200768452Y-110985505D01*
X200425595Y-111985505D02*
X200425595Y-110985505D01*
X200158928Y-111699791D01*
X199892261Y-110985505D01*
X199892261Y-111985505D01*
X198939880Y-111699791D02*
X198558928Y-111699791D01*
X199016071Y-111985505D02*
X198749404Y-110985505D01*
X198482738Y-111985505D01*
X197835119Y-111985505D02*
X198216071Y-111985505D01*
X198216071Y-110985505D01*
X197187500Y-111985505D02*
X197568452Y-111985505D01*
X197568452Y-110985505D01*
%TO.C,D20*%
X110751785Y-119133630D02*
X110751785Y-118133630D01*
X110513690Y-118133630D01*
X110370833Y-118181250D01*
X110275595Y-118276488D01*
X110227976Y-118371726D01*
X110180357Y-118562202D01*
X110180357Y-118705059D01*
X110227976Y-118895535D01*
X110275595Y-118990773D01*
X110370833Y-119086011D01*
X110513690Y-119133630D01*
X110751785Y-119133630D01*
X109799404Y-118228869D02*
X109751785Y-118181250D01*
X109656547Y-118133630D01*
X109418452Y-118133630D01*
X109323214Y-118181250D01*
X109275595Y-118228869D01*
X109227976Y-118324107D01*
X109227976Y-118419345D01*
X109275595Y-118562202D01*
X109847023Y-119133630D01*
X109227976Y-119133630D01*
X108608928Y-118133630D02*
X108513690Y-118133630D01*
X108418452Y-118181250D01*
X108370833Y-118228869D01*
X108323214Y-118324107D01*
X108275595Y-118514583D01*
X108275595Y-118752678D01*
X108323214Y-118943154D01*
X108370833Y-119038392D01*
X108418452Y-119086011D01*
X108513690Y-119133630D01*
X108608928Y-119133630D01*
X108704166Y-119086011D01*
X108751785Y-119038392D01*
X108799404Y-118943154D01*
X108847023Y-118752678D01*
X108847023Y-118514583D01*
X108799404Y-118324107D01*
X108751785Y-118228869D01*
X108704166Y-118181250D01*
X108608928Y-118133630D01*
%TO.C,D11*%
X167901785Y-83414880D02*
X167901785Y-82414880D01*
X167663690Y-82414880D01*
X167520833Y-82462500D01*
X167425595Y-82557738D01*
X167377976Y-82652976D01*
X167330357Y-82843452D01*
X167330357Y-82986309D01*
X167377976Y-83176785D01*
X167425595Y-83272023D01*
X167520833Y-83367261D01*
X167663690Y-83414880D01*
X167901785Y-83414880D01*
X166377976Y-83414880D02*
X166949404Y-83414880D01*
X166663690Y-83414880D02*
X166663690Y-82414880D01*
X166758928Y-82557738D01*
X166854166Y-82652976D01*
X166949404Y-82700595D01*
X165425595Y-83414880D02*
X165997023Y-83414880D01*
X165711309Y-83414880D02*
X165711309Y-82414880D01*
X165806547Y-82557738D01*
X165901785Y-82652976D01*
X165997023Y-82700595D01*
%TO.C,D7*%
X91225595Y-81033630D02*
X91225595Y-80033630D01*
X90987500Y-80033630D01*
X90844642Y-80081250D01*
X90749404Y-80176488D01*
X90701785Y-80271726D01*
X90654166Y-80462202D01*
X90654166Y-80605059D01*
X90701785Y-80795535D01*
X90749404Y-80890773D01*
X90844642Y-80986011D01*
X90987500Y-81033630D01*
X91225595Y-81033630D01*
X90320833Y-80033630D02*
X89654166Y-80033630D01*
X90082738Y-81033630D01*
%TO.C,D1*%
X91225595Y-61983630D02*
X91225595Y-60983630D01*
X90987500Y-60983630D01*
X90844642Y-61031250D01*
X90749404Y-61126488D01*
X90701785Y-61221726D01*
X90654166Y-61412202D01*
X90654166Y-61555059D01*
X90701785Y-61745535D01*
X90749404Y-61840773D01*
X90844642Y-61936011D01*
X90987500Y-61983630D01*
X91225595Y-61983630D01*
X89701785Y-61983630D02*
X90273214Y-61983630D01*
X89987500Y-61983630D02*
X89987500Y-60983630D01*
X90082738Y-61126488D01*
X90177976Y-61221726D01*
X90273214Y-61269345D01*
%TO.C,D10*%
X148851785Y-81033630D02*
X148851785Y-80033630D01*
X148613690Y-80033630D01*
X148470833Y-80081250D01*
X148375595Y-80176488D01*
X148327976Y-80271726D01*
X148280357Y-80462202D01*
X148280357Y-80605059D01*
X148327976Y-80795535D01*
X148375595Y-80890773D01*
X148470833Y-80986011D01*
X148613690Y-81033630D01*
X148851785Y-81033630D01*
X147327976Y-81033630D02*
X147899404Y-81033630D01*
X147613690Y-81033630D02*
X147613690Y-80033630D01*
X147708928Y-80176488D01*
X147804166Y-80271726D01*
X147899404Y-80319345D01*
X146708928Y-80033630D02*
X146613690Y-80033630D01*
X146518452Y-80081250D01*
X146470833Y-80128869D01*
X146423214Y-80224107D01*
X146375595Y-80414583D01*
X146375595Y-80652678D01*
X146423214Y-80843154D01*
X146470833Y-80938392D01*
X146518452Y-80986011D01*
X146613690Y-81033630D01*
X146708928Y-81033630D01*
X146804166Y-80986011D01*
X146851785Y-80938392D01*
X146899404Y-80843154D01*
X146947023Y-80652678D01*
X146947023Y-80414583D01*
X146899404Y-80224107D01*
X146851785Y-80128869D01*
X146804166Y-80081250D01*
X146708928Y-80033630D01*
%TO.C,D26*%
X110751785Y-138183630D02*
X110751785Y-137183630D01*
X110513690Y-137183630D01*
X110370833Y-137231250D01*
X110275595Y-137326488D01*
X110227976Y-137421726D01*
X110180357Y-137612202D01*
X110180357Y-137755059D01*
X110227976Y-137945535D01*
X110275595Y-138040773D01*
X110370833Y-138136011D01*
X110513690Y-138183630D01*
X110751785Y-138183630D01*
X109799404Y-137278869D02*
X109751785Y-137231250D01*
X109656547Y-137183630D01*
X109418452Y-137183630D01*
X109323214Y-137231250D01*
X109275595Y-137278869D01*
X109227976Y-137374107D01*
X109227976Y-137469345D01*
X109275595Y-137612202D01*
X109847023Y-138183630D01*
X109227976Y-138183630D01*
X108370833Y-137183630D02*
X108561309Y-137183630D01*
X108656547Y-137231250D01*
X108704166Y-137278869D01*
X108799404Y-137421726D01*
X108847023Y-137612202D01*
X108847023Y-137993154D01*
X108799404Y-138088392D01*
X108751785Y-138136011D01*
X108656547Y-138183630D01*
X108466071Y-138183630D01*
X108370833Y-138136011D01*
X108323214Y-138088392D01*
X108275595Y-137993154D01*
X108275595Y-137755059D01*
X108323214Y-137659821D01*
X108370833Y-137612202D01*
X108466071Y-137564583D01*
X108656547Y-137564583D01*
X108751785Y-137612202D01*
X108799404Y-137659821D01*
X108847023Y-137755059D01*
%TO.C,D4*%
X148375595Y-61983630D02*
X148375595Y-60983630D01*
X148137500Y-60983630D01*
X147994642Y-61031250D01*
X147899404Y-61126488D01*
X147851785Y-61221726D01*
X147804166Y-61412202D01*
X147804166Y-61555059D01*
X147851785Y-61745535D01*
X147899404Y-61840773D01*
X147994642Y-61936011D01*
X148137500Y-61983630D01*
X148375595Y-61983630D01*
X146947023Y-61316964D02*
X146947023Y-61983630D01*
X147185119Y-60936011D02*
X147423214Y-61650297D01*
X146804166Y-61650297D01*
%TO.C,D15*%
X129801785Y-100083630D02*
X129801785Y-99083630D01*
X129563690Y-99083630D01*
X129420833Y-99131250D01*
X129325595Y-99226488D01*
X129277976Y-99321726D01*
X129230357Y-99512202D01*
X129230357Y-99655059D01*
X129277976Y-99845535D01*
X129325595Y-99940773D01*
X129420833Y-100036011D01*
X129563690Y-100083630D01*
X129801785Y-100083630D01*
X128277976Y-100083630D02*
X128849404Y-100083630D01*
X128563690Y-100083630D02*
X128563690Y-99083630D01*
X128658928Y-99226488D01*
X128754166Y-99321726D01*
X128849404Y-99369345D01*
X127373214Y-99083630D02*
X127849404Y-99083630D01*
X127897023Y-99559821D01*
X127849404Y-99512202D01*
X127754166Y-99464583D01*
X127516071Y-99464583D01*
X127420833Y-99512202D01*
X127373214Y-99559821D01*
X127325595Y-99655059D01*
X127325595Y-99893154D01*
X127373214Y-99988392D01*
X127420833Y-100036011D01*
X127516071Y-100083630D01*
X127754166Y-100083630D01*
X127849404Y-100036011D01*
X127897023Y-99988392D01*
%TO.C,R1*%
X209166666Y-64102380D02*
X209500000Y-63626190D01*
X209738095Y-64102380D02*
X209738095Y-63102380D01*
X209357142Y-63102380D01*
X209261904Y-63150000D01*
X209214285Y-63197619D01*
X209166666Y-63292857D01*
X209166666Y-63435714D01*
X209214285Y-63530952D01*
X209261904Y-63578571D01*
X209357142Y-63626190D01*
X209738095Y-63626190D01*
X208214285Y-64102380D02*
X208785714Y-64102380D01*
X208500000Y-64102380D02*
X208500000Y-63102380D01*
X208595238Y-63245238D01*
X208690476Y-63340476D01*
X208785714Y-63388095D01*
%TO.C,D24*%
X186951785Y-123896130D02*
X186951785Y-122896130D01*
X186713690Y-122896130D01*
X186570833Y-122943750D01*
X186475595Y-123038988D01*
X186427976Y-123134226D01*
X186380357Y-123324702D01*
X186380357Y-123467559D01*
X186427976Y-123658035D01*
X186475595Y-123753273D01*
X186570833Y-123848511D01*
X186713690Y-123896130D01*
X186951785Y-123896130D01*
X185999404Y-122991369D02*
X185951785Y-122943750D01*
X185856547Y-122896130D01*
X185618452Y-122896130D01*
X185523214Y-122943750D01*
X185475595Y-122991369D01*
X185427976Y-123086607D01*
X185427976Y-123181845D01*
X185475595Y-123324702D01*
X186047023Y-123896130D01*
X185427976Y-123896130D01*
X184570833Y-123229464D02*
X184570833Y-123896130D01*
X184808928Y-122848511D02*
X185047023Y-123562797D01*
X184427976Y-123562797D01*
%TO.C,D28*%
X166614365Y-142452380D02*
X166614365Y-141452380D01*
X166376270Y-141452380D01*
X166233413Y-141500000D01*
X166138175Y-141595238D01*
X166090556Y-141690476D01*
X166042937Y-141880952D01*
X166042937Y-142023809D01*
X166090556Y-142214285D01*
X166138175Y-142309523D01*
X166233413Y-142404761D01*
X166376270Y-142452380D01*
X166614365Y-142452380D01*
X165661984Y-141547619D02*
X165614365Y-141500000D01*
X165519127Y-141452380D01*
X165281032Y-141452380D01*
X165185794Y-141500000D01*
X165138175Y-141547619D01*
X165090556Y-141642857D01*
X165090556Y-141738095D01*
X165138175Y-141880952D01*
X165709603Y-142452380D01*
X165090556Y-142452380D01*
X164519127Y-141880952D02*
X164614365Y-141833333D01*
X164661984Y-141785714D01*
X164709603Y-141690476D01*
X164709603Y-141642857D01*
X164661984Y-141547619D01*
X164614365Y-141500000D01*
X164519127Y-141452380D01*
X164328651Y-141452380D01*
X164233413Y-141500000D01*
X164185794Y-141547619D01*
X164138175Y-141642857D01*
X164138175Y-141690476D01*
X164185794Y-141785714D01*
X164233413Y-141833333D01*
X164328651Y-141880952D01*
X164519127Y-141880952D01*
X164614365Y-141928571D01*
X164661984Y-141976190D01*
X164709603Y-142071428D01*
X164709603Y-142261904D01*
X164661984Y-142357142D01*
X164614365Y-142404761D01*
X164519127Y-142452380D01*
X164328651Y-142452380D01*
X164233413Y-142404761D01*
X164185794Y-142357142D01*
X164138175Y-142261904D01*
X164138175Y-142071428D01*
X164185794Y-141976190D01*
X164233413Y-141928571D01*
X164328651Y-141880952D01*
%TO.C,D19*%
X89320535Y-119133630D02*
X89320535Y-118133630D01*
X89082440Y-118133630D01*
X88939583Y-118181250D01*
X88844345Y-118276488D01*
X88796726Y-118371726D01*
X88749107Y-118562202D01*
X88749107Y-118705059D01*
X88796726Y-118895535D01*
X88844345Y-118990773D01*
X88939583Y-119086011D01*
X89082440Y-119133630D01*
X89320535Y-119133630D01*
X87796726Y-119133630D02*
X88368154Y-119133630D01*
X88082440Y-119133630D02*
X88082440Y-118133630D01*
X88177678Y-118276488D01*
X88272916Y-118371726D01*
X88368154Y-118419345D01*
X87320535Y-119133630D02*
X87130059Y-119133630D01*
X87034821Y-119086011D01*
X86987202Y-119038392D01*
X86891964Y-118895535D01*
X86844345Y-118705059D01*
X86844345Y-118324107D01*
X86891964Y-118228869D01*
X86939583Y-118181250D01*
X87034821Y-118133630D01*
X87225297Y-118133630D01*
X87320535Y-118181250D01*
X87368154Y-118228869D01*
X87415773Y-118324107D01*
X87415773Y-118562202D01*
X87368154Y-118657440D01*
X87320535Y-118705059D01*
X87225297Y-118752678D01*
X87034821Y-118752678D01*
X86939583Y-118705059D01*
X86891964Y-118657440D01*
X86844345Y-118562202D01*
%TO.C,D9*%
X129325595Y-81033630D02*
X129325595Y-80033630D01*
X129087500Y-80033630D01*
X128944642Y-80081250D01*
X128849404Y-80176488D01*
X128801785Y-80271726D01*
X128754166Y-80462202D01*
X128754166Y-80605059D01*
X128801785Y-80795535D01*
X128849404Y-80890773D01*
X128944642Y-80986011D01*
X129087500Y-81033630D01*
X129325595Y-81033630D01*
X128277976Y-81033630D02*
X128087500Y-81033630D01*
X127992261Y-80986011D01*
X127944642Y-80938392D01*
X127849404Y-80795535D01*
X127801785Y-80605059D01*
X127801785Y-80224107D01*
X127849404Y-80128869D01*
X127897023Y-80081250D01*
X127992261Y-80033630D01*
X128182738Y-80033630D01*
X128277976Y-80081250D01*
X128325595Y-80128869D01*
X128373214Y-80224107D01*
X128373214Y-80462202D01*
X128325595Y-80557440D01*
X128277976Y-80605059D01*
X128182738Y-80652678D01*
X127992261Y-80652678D01*
X127897023Y-80605059D01*
X127849404Y-80557440D01*
X127801785Y-80462202D01*
%TO.C,D8*%
X110275595Y-81033630D02*
X110275595Y-80033630D01*
X110037500Y-80033630D01*
X109894642Y-80081250D01*
X109799404Y-80176488D01*
X109751785Y-80271726D01*
X109704166Y-80462202D01*
X109704166Y-80605059D01*
X109751785Y-80795535D01*
X109799404Y-80890773D01*
X109894642Y-80986011D01*
X110037500Y-81033630D01*
X110275595Y-81033630D01*
X109132738Y-80462202D02*
X109227976Y-80414583D01*
X109275595Y-80366964D01*
X109323214Y-80271726D01*
X109323214Y-80224107D01*
X109275595Y-80128869D01*
X109227976Y-80081250D01*
X109132738Y-80033630D01*
X108942261Y-80033630D01*
X108847023Y-80081250D01*
X108799404Y-80128869D01*
X108751785Y-80224107D01*
X108751785Y-80271726D01*
X108799404Y-80366964D01*
X108847023Y-80414583D01*
X108942261Y-80462202D01*
X109132738Y-80462202D01*
X109227976Y-80509821D01*
X109275595Y-80557440D01*
X109323214Y-80652678D01*
X109323214Y-80843154D01*
X109275595Y-80938392D01*
X109227976Y-80986011D01*
X109132738Y-81033630D01*
X108942261Y-81033630D01*
X108847023Y-80986011D01*
X108799404Y-80938392D01*
X108751785Y-80843154D01*
X108751785Y-80652678D01*
X108799404Y-80557440D01*
X108847023Y-80509821D01*
X108942261Y-80462202D01*
%TO.C,D16*%
X148851785Y-100083630D02*
X148851785Y-99083630D01*
X148613690Y-99083630D01*
X148470833Y-99131250D01*
X148375595Y-99226488D01*
X148327976Y-99321726D01*
X148280357Y-99512202D01*
X148280357Y-99655059D01*
X148327976Y-99845535D01*
X148375595Y-99940773D01*
X148470833Y-100036011D01*
X148613690Y-100083630D01*
X148851785Y-100083630D01*
X147327976Y-100083630D02*
X147899404Y-100083630D01*
X147613690Y-100083630D02*
X147613690Y-99083630D01*
X147708928Y-99226488D01*
X147804166Y-99321726D01*
X147899404Y-99369345D01*
X146470833Y-99083630D02*
X146661309Y-99083630D01*
X146756547Y-99131250D01*
X146804166Y-99178869D01*
X146899404Y-99321726D01*
X146947023Y-99512202D01*
X146947023Y-99893154D01*
X146899404Y-99988392D01*
X146851785Y-100036011D01*
X146756547Y-100083630D01*
X146566071Y-100083630D01*
X146470833Y-100036011D01*
X146423214Y-99988392D01*
X146375595Y-99893154D01*
X146375595Y-99655059D01*
X146423214Y-99559821D01*
X146470833Y-99512202D01*
X146566071Y-99464583D01*
X146756547Y-99464583D01*
X146851785Y-99512202D01*
X146899404Y-99559821D01*
X146947023Y-99655059D01*
%TO.C,D12*%
X186951785Y-85796130D02*
X186951785Y-84796130D01*
X186713690Y-84796130D01*
X186570833Y-84843750D01*
X186475595Y-84938988D01*
X186427976Y-85034226D01*
X186380357Y-85224702D01*
X186380357Y-85367559D01*
X186427976Y-85558035D01*
X186475595Y-85653273D01*
X186570833Y-85748511D01*
X186713690Y-85796130D01*
X186951785Y-85796130D01*
X185427976Y-85796130D02*
X185999404Y-85796130D01*
X185713690Y-85796130D02*
X185713690Y-84796130D01*
X185808928Y-84938988D01*
X185904166Y-85034226D01*
X185999404Y-85081845D01*
X185047023Y-84891369D02*
X184999404Y-84843750D01*
X184904166Y-84796130D01*
X184666071Y-84796130D01*
X184570833Y-84843750D01*
X184523214Y-84891369D01*
X184475595Y-84986607D01*
X184475595Y-85081845D01*
X184523214Y-85224702D01*
X185094642Y-85796130D01*
X184475595Y-85796130D01*
%TO.C,D3*%
X129325595Y-61983630D02*
X129325595Y-60983630D01*
X129087500Y-60983630D01*
X128944642Y-61031250D01*
X128849404Y-61126488D01*
X128801785Y-61221726D01*
X128754166Y-61412202D01*
X128754166Y-61555059D01*
X128801785Y-61745535D01*
X128849404Y-61840773D01*
X128944642Y-61936011D01*
X129087500Y-61983630D01*
X129325595Y-61983630D01*
X128420833Y-60983630D02*
X127801785Y-60983630D01*
X128135119Y-61364583D01*
X127992261Y-61364583D01*
X127897023Y-61412202D01*
X127849404Y-61459821D01*
X127801785Y-61555059D01*
X127801785Y-61793154D01*
X127849404Y-61888392D01*
X127897023Y-61936011D01*
X127992261Y-61983630D01*
X128277976Y-61983630D01*
X128373214Y-61936011D01*
X128420833Y-61888392D01*
%TO.C,D2*%
X110275595Y-61983630D02*
X110275595Y-60983630D01*
X110037500Y-60983630D01*
X109894642Y-61031250D01*
X109799404Y-61126488D01*
X109751785Y-61221726D01*
X109704166Y-61412202D01*
X109704166Y-61555059D01*
X109751785Y-61745535D01*
X109799404Y-61840773D01*
X109894642Y-61936011D01*
X110037500Y-61983630D01*
X110275595Y-61983630D01*
X109323214Y-61078869D02*
X109275595Y-61031250D01*
X109180357Y-60983630D01*
X108942261Y-60983630D01*
X108847023Y-61031250D01*
X108799404Y-61078869D01*
X108751785Y-61174107D01*
X108751785Y-61269345D01*
X108799404Y-61412202D01*
X109370833Y-61983630D01*
X108751785Y-61983630D01*
%TO.C,D29*%
X197305780Y-146452380D02*
X197305780Y-145452380D01*
X197067685Y-145452380D01*
X196924828Y-145500000D01*
X196829590Y-145595238D01*
X196781971Y-145690476D01*
X196734352Y-145880952D01*
X196734352Y-146023809D01*
X196781971Y-146214285D01*
X196829590Y-146309523D01*
X196924828Y-146404761D01*
X197067685Y-146452380D01*
X197305780Y-146452380D01*
X196353399Y-145547619D02*
X196305780Y-145500000D01*
X196210542Y-145452380D01*
X195972447Y-145452380D01*
X195877209Y-145500000D01*
X195829590Y-145547619D01*
X195781971Y-145642857D01*
X195781971Y-145738095D01*
X195829590Y-145880952D01*
X196401018Y-146452380D01*
X195781971Y-146452380D01*
X195305780Y-146452380D02*
X195115304Y-146452380D01*
X195020066Y-146404761D01*
X194972447Y-146357142D01*
X194877209Y-146214285D01*
X194829590Y-146023809D01*
X194829590Y-145642857D01*
X194877209Y-145547619D01*
X194924828Y-145500000D01*
X195020066Y-145452380D01*
X195210542Y-145452380D01*
X195305780Y-145500000D01*
X195353399Y-145547619D01*
X195401018Y-145642857D01*
X195401018Y-145880952D01*
X195353399Y-145976190D01*
X195305780Y-146023809D01*
X195210542Y-146071428D01*
X195020066Y-146071428D01*
X194924828Y-146023809D01*
X194877209Y-145976190D01*
X194829590Y-145880952D01*
%TO.C,D18*%
X186951785Y-104846130D02*
X186951785Y-103846130D01*
X186713690Y-103846130D01*
X186570833Y-103893750D01*
X186475595Y-103988988D01*
X186427976Y-104084226D01*
X186380357Y-104274702D01*
X186380357Y-104417559D01*
X186427976Y-104608035D01*
X186475595Y-104703273D01*
X186570833Y-104798511D01*
X186713690Y-104846130D01*
X186951785Y-104846130D01*
X185427976Y-104846130D02*
X185999404Y-104846130D01*
X185713690Y-104846130D02*
X185713690Y-103846130D01*
X185808928Y-103988988D01*
X185904166Y-104084226D01*
X185999404Y-104131845D01*
X184856547Y-104274702D02*
X184951785Y-104227083D01*
X184999404Y-104179464D01*
X185047023Y-104084226D01*
X185047023Y-104036607D01*
X184999404Y-103941369D01*
X184951785Y-103893750D01*
X184856547Y-103846130D01*
X184666071Y-103846130D01*
X184570833Y-103893750D01*
X184523214Y-103941369D01*
X184475595Y-104036607D01*
X184475595Y-104084226D01*
X184523214Y-104179464D01*
X184570833Y-104227083D01*
X184666071Y-104274702D01*
X184856547Y-104274702D01*
X184951785Y-104322321D01*
X184999404Y-104369940D01*
X185047023Y-104465178D01*
X185047023Y-104655654D01*
X184999404Y-104750892D01*
X184951785Y-104798511D01*
X184856547Y-104846130D01*
X184666071Y-104846130D01*
X184570833Y-104798511D01*
X184523214Y-104750892D01*
X184475595Y-104655654D01*
X184475595Y-104465178D01*
X184523214Y-104369940D01*
X184570833Y-104322321D01*
X184666071Y-104274702D01*
%TO.C,D14*%
X110751785Y-100083630D02*
X110751785Y-99083630D01*
X110513690Y-99083630D01*
X110370833Y-99131250D01*
X110275595Y-99226488D01*
X110227976Y-99321726D01*
X110180357Y-99512202D01*
X110180357Y-99655059D01*
X110227976Y-99845535D01*
X110275595Y-99940773D01*
X110370833Y-100036011D01*
X110513690Y-100083630D01*
X110751785Y-100083630D01*
X109227976Y-100083630D02*
X109799404Y-100083630D01*
X109513690Y-100083630D02*
X109513690Y-99083630D01*
X109608928Y-99226488D01*
X109704166Y-99321726D01*
X109799404Y-99369345D01*
X108370833Y-99416964D02*
X108370833Y-100083630D01*
X108608928Y-99036011D02*
X108847023Y-99750297D01*
X108227976Y-99750297D01*
%TO.C,D22*%
X148851785Y-119133630D02*
X148851785Y-118133630D01*
X148613690Y-118133630D01*
X148470833Y-118181250D01*
X148375595Y-118276488D01*
X148327976Y-118371726D01*
X148280357Y-118562202D01*
X148280357Y-118705059D01*
X148327976Y-118895535D01*
X148375595Y-118990773D01*
X148470833Y-119086011D01*
X148613690Y-119133630D01*
X148851785Y-119133630D01*
X147899404Y-118228869D02*
X147851785Y-118181250D01*
X147756547Y-118133630D01*
X147518452Y-118133630D01*
X147423214Y-118181250D01*
X147375595Y-118228869D01*
X147327976Y-118324107D01*
X147327976Y-118419345D01*
X147375595Y-118562202D01*
X147947023Y-119133630D01*
X147327976Y-119133630D01*
X146947023Y-118228869D02*
X146899404Y-118181250D01*
X146804166Y-118133630D01*
X146566071Y-118133630D01*
X146470833Y-118181250D01*
X146423214Y-118228869D01*
X146375595Y-118324107D01*
X146375595Y-118419345D01*
X146423214Y-118562202D01*
X146994642Y-119133630D01*
X146375595Y-119133630D01*
%TO.C,D23*%
X167901785Y-121514880D02*
X167901785Y-120514880D01*
X167663690Y-120514880D01*
X167520833Y-120562500D01*
X167425595Y-120657738D01*
X167377976Y-120752976D01*
X167330357Y-120943452D01*
X167330357Y-121086309D01*
X167377976Y-121276785D01*
X167425595Y-121372023D01*
X167520833Y-121467261D01*
X167663690Y-121514880D01*
X167901785Y-121514880D01*
X166949404Y-120610119D02*
X166901785Y-120562500D01*
X166806547Y-120514880D01*
X166568452Y-120514880D01*
X166473214Y-120562500D01*
X166425595Y-120610119D01*
X166377976Y-120705357D01*
X166377976Y-120800595D01*
X166425595Y-120943452D01*
X166997023Y-121514880D01*
X166377976Y-121514880D01*
X166044642Y-120514880D02*
X165425595Y-120514880D01*
X165758928Y-120895833D01*
X165616071Y-120895833D01*
X165520833Y-120943452D01*
X165473214Y-120991071D01*
X165425595Y-121086309D01*
X165425595Y-121324404D01*
X165473214Y-121419642D01*
X165520833Y-121467261D01*
X165616071Y-121514880D01*
X165901785Y-121514880D01*
X165997023Y-121467261D01*
X166044642Y-121419642D01*
%TO.C,D5*%
X167425595Y-64364880D02*
X167425595Y-63364880D01*
X167187500Y-63364880D01*
X167044642Y-63412500D01*
X166949404Y-63507738D01*
X166901785Y-63602976D01*
X166854166Y-63793452D01*
X166854166Y-63936309D01*
X166901785Y-64126785D01*
X166949404Y-64222023D01*
X167044642Y-64317261D01*
X167187500Y-64364880D01*
X167425595Y-64364880D01*
X165949404Y-63364880D02*
X166425595Y-63364880D01*
X166473214Y-63841071D01*
X166425595Y-63793452D01*
X166330357Y-63745833D01*
X166092261Y-63745833D01*
X165997023Y-63793452D01*
X165949404Y-63841071D01*
X165901785Y-63936309D01*
X165901785Y-64174404D01*
X165949404Y-64269642D01*
X165997023Y-64317261D01*
X166092261Y-64364880D01*
X166330357Y-64364880D01*
X166425595Y-64317261D01*
X166473214Y-64269642D01*
%TO.C,R2*%
X209166666Y-67102380D02*
X209500000Y-66626190D01*
X209738095Y-67102380D02*
X209738095Y-66102380D01*
X209357142Y-66102380D01*
X209261904Y-66150000D01*
X209214285Y-66197619D01*
X209166666Y-66292857D01*
X209166666Y-66435714D01*
X209214285Y-66530952D01*
X209261904Y-66578571D01*
X209357142Y-66626190D01*
X209738095Y-66626190D01*
X208785714Y-66197619D02*
X208738095Y-66150000D01*
X208642857Y-66102380D01*
X208404761Y-66102380D01*
X208309523Y-66150000D01*
X208261904Y-66197619D01*
X208214285Y-66292857D01*
X208214285Y-66388095D01*
X208261904Y-66530952D01*
X208833333Y-67102380D01*
X208214285Y-67102380D01*
%TO.C,D21*%
X129801785Y-119133630D02*
X129801785Y-118133630D01*
X129563690Y-118133630D01*
X129420833Y-118181250D01*
X129325595Y-118276488D01*
X129277976Y-118371726D01*
X129230357Y-118562202D01*
X129230357Y-118705059D01*
X129277976Y-118895535D01*
X129325595Y-118990773D01*
X129420833Y-119086011D01*
X129563690Y-119133630D01*
X129801785Y-119133630D01*
X128849404Y-118228869D02*
X128801785Y-118181250D01*
X128706547Y-118133630D01*
X128468452Y-118133630D01*
X128373214Y-118181250D01*
X128325595Y-118228869D01*
X128277976Y-118324107D01*
X128277976Y-118419345D01*
X128325595Y-118562202D01*
X128897023Y-119133630D01*
X128277976Y-119133630D01*
X127325595Y-119133630D02*
X127897023Y-119133630D01*
X127611309Y-119133630D02*
X127611309Y-118133630D01*
X127706547Y-118276488D01*
X127801785Y-118371726D01*
X127897023Y-118419345D01*
%TO.C,D27*%
X129801785Y-138183630D02*
X129801785Y-137183630D01*
X129563690Y-137183630D01*
X129420833Y-137231250D01*
X129325595Y-137326488D01*
X129277976Y-137421726D01*
X129230357Y-137612202D01*
X129230357Y-137755059D01*
X129277976Y-137945535D01*
X129325595Y-138040773D01*
X129420833Y-138136011D01*
X129563690Y-138183630D01*
X129801785Y-138183630D01*
X128849404Y-137278869D02*
X128801785Y-137231250D01*
X128706547Y-137183630D01*
X128468452Y-137183630D01*
X128373214Y-137231250D01*
X128325595Y-137278869D01*
X128277976Y-137374107D01*
X128277976Y-137469345D01*
X128325595Y-137612202D01*
X128897023Y-138183630D01*
X128277976Y-138183630D01*
X127944642Y-137183630D02*
X127277976Y-137183630D01*
X127706547Y-138183630D01*
%TO.C,D13*%
X89320535Y-100083630D02*
X89320535Y-99083630D01*
X89082440Y-99083630D01*
X88939583Y-99131250D01*
X88844345Y-99226488D01*
X88796726Y-99321726D01*
X88749107Y-99512202D01*
X88749107Y-99655059D01*
X88796726Y-99845535D01*
X88844345Y-99940773D01*
X88939583Y-100036011D01*
X89082440Y-100083630D01*
X89320535Y-100083630D01*
X87796726Y-100083630D02*
X88368154Y-100083630D01*
X88082440Y-100083630D02*
X88082440Y-99083630D01*
X88177678Y-99226488D01*
X88272916Y-99321726D01*
X88368154Y-99369345D01*
X87463392Y-99083630D02*
X86844345Y-99083630D01*
X87177678Y-99464583D01*
X87034821Y-99464583D01*
X86939583Y-99512202D01*
X86891964Y-99559821D01*
X86844345Y-99655059D01*
X86844345Y-99893154D01*
X86891964Y-99988392D01*
X86939583Y-100036011D01*
X87034821Y-100083630D01*
X87320535Y-100083630D01*
X87415773Y-100036011D01*
X87463392Y-99988392D01*
%TO.C,D17*%
X167901785Y-102464880D02*
X167901785Y-101464880D01*
X167663690Y-101464880D01*
X167520833Y-101512500D01*
X167425595Y-101607738D01*
X167377976Y-101702976D01*
X167330357Y-101893452D01*
X167330357Y-102036309D01*
X167377976Y-102226785D01*
X167425595Y-102322023D01*
X167520833Y-102417261D01*
X167663690Y-102464880D01*
X167901785Y-102464880D01*
X166377976Y-102464880D02*
X166949404Y-102464880D01*
X166663690Y-102464880D02*
X166663690Y-101464880D01*
X166758928Y-101607738D01*
X166854166Y-101702976D01*
X166949404Y-101750595D01*
X166044642Y-101464880D02*
X165377976Y-101464880D01*
X165806547Y-102464880D01*
%TO.C,D25*%
X89320535Y-138183630D02*
X89320535Y-137183630D01*
X89082440Y-137183630D01*
X88939583Y-137231250D01*
X88844345Y-137326488D01*
X88796726Y-137421726D01*
X88749107Y-137612202D01*
X88749107Y-137755059D01*
X88796726Y-137945535D01*
X88844345Y-138040773D01*
X88939583Y-138136011D01*
X89082440Y-138183630D01*
X89320535Y-138183630D01*
X88368154Y-137278869D02*
X88320535Y-137231250D01*
X88225297Y-137183630D01*
X87987202Y-137183630D01*
X87891964Y-137231250D01*
X87844345Y-137278869D01*
X87796726Y-137374107D01*
X87796726Y-137469345D01*
X87844345Y-137612202D01*
X88415773Y-138183630D01*
X87796726Y-138183630D01*
X86891964Y-137183630D02*
X87368154Y-137183630D01*
X87415773Y-137659821D01*
X87368154Y-137612202D01*
X87272916Y-137564583D01*
X87034821Y-137564583D01*
X86939583Y-137612202D01*
X86891964Y-137659821D01*
X86844345Y-137755059D01*
X86844345Y-137993154D01*
X86891964Y-138088392D01*
X86939583Y-138136011D01*
X87034821Y-138183630D01*
X87272916Y-138183630D01*
X87368154Y-138136011D01*
X87415773Y-138088392D01*
%TO.C,D6*%
X186475595Y-66746130D02*
X186475595Y-65746130D01*
X186237500Y-65746130D01*
X186094642Y-65793750D01*
X185999404Y-65888988D01*
X185951785Y-65984226D01*
X185904166Y-66174702D01*
X185904166Y-66317559D01*
X185951785Y-66508035D01*
X185999404Y-66603273D01*
X186094642Y-66698511D01*
X186237500Y-66746130D01*
X186475595Y-66746130D01*
X185047023Y-65746130D02*
X185237500Y-65746130D01*
X185332738Y-65793750D01*
X185380357Y-65841369D01*
X185475595Y-65984226D01*
X185523214Y-66174702D01*
X185523214Y-66555654D01*
X185475595Y-66650892D01*
X185427976Y-66698511D01*
X185332738Y-66746130D01*
X185142261Y-66746130D01*
X185047023Y-66698511D01*
X184999404Y-66650892D01*
X184951785Y-66555654D01*
X184951785Y-66317559D01*
X184999404Y-66222321D01*
X185047023Y-66174702D01*
X185142261Y-66127083D01*
X185332738Y-66127083D01*
X185427976Y-66174702D01*
X185475595Y-66222321D01*
X185523214Y-66317559D01*
D12*
%TO.C,K18*%
X185537500Y-94931250D02*
X190637500Y-94931250D01*
X181637500Y-90731250D02*
X186737500Y-90731250D01*
X185537500Y-94931250D02*
G75*
G03*
X183537500Y-96931250I-1J-1999999D01*
G01*
X181637500Y-90731250D02*
G75*
G03*
X179637500Y-92731250I-1J-1999999D01*
G01*
%TO.C,K1*%
X86387500Y-47868750D02*
X91487500Y-47868750D01*
X90287500Y-52068750D02*
X95387500Y-52068750D01*
X90287500Y-52068750D02*
G75*
G03*
X88287500Y-54068750I-1J-1999999D01*
G01*
X86387500Y-47868750D02*
G75*
G03*
X84387500Y-49868750I-1J-1999999D01*
G01*
%TO.C,K10*%
X147437500Y-71118750D02*
X152537500Y-71118750D01*
X143537500Y-66918750D02*
X148637500Y-66918750D01*
X147437500Y-71118750D02*
G75*
G03*
X145437500Y-73118750I-1J-1999999D01*
G01*
X143537500Y-66918750D02*
G75*
G03*
X141537500Y-68918750I-1J-1999999D01*
G01*
%TO.C,K2*%
X109337500Y-52068750D02*
X114437500Y-52068750D01*
X105437500Y-47868750D02*
X110537500Y-47868750D01*
X105437500Y-47868750D02*
G75*
G03*
X103437500Y-49868750I-1J-1999999D01*
G01*
X109337500Y-52068750D02*
G75*
G03*
X107337500Y-54068750I-1J-1999999D01*
G01*
%TO.C,K23*%
X162587500Y-107400000D02*
X167687500Y-107400000D01*
X166487500Y-111600000D02*
X171587500Y-111600000D01*
X162587500Y-107400000D02*
G75*
G03*
X160587500Y-109400000I-1J-1999999D01*
G01*
X166487500Y-111600000D02*
G75*
G03*
X164487500Y-113600000I-1J-1999999D01*
G01*
%TO.C,K27*%
X124487500Y-124068750D02*
X129587500Y-124068750D01*
X128387500Y-128268750D02*
X133487500Y-128268750D01*
X128387500Y-128268750D02*
G75*
G03*
X126387500Y-130268750I-1J-1999999D01*
G01*
X124487500Y-124068750D02*
G75*
G03*
X122487500Y-126068750I-1J-1999999D01*
G01*
%TO.C,K6*%
X185537500Y-56831250D02*
X190637500Y-56831250D01*
X181637500Y-52631250D02*
X186737500Y-52631250D01*
X181637500Y-52631250D02*
G75*
G03*
X179637500Y-54631250I-1J-1999999D01*
G01*
X185537500Y-56831250D02*
G75*
G03*
X183537500Y-58831250I-1J-1999999D01*
G01*
%TO.C,K29*%
X192927202Y-131218815D02*
X197983571Y-131884499D01*
X196245627Y-135891936D02*
X201301996Y-136557619D01*
X192927202Y-131218816D02*
G75*
G03*
X190683260Y-132940652I-261053J-1982889D01*
G01*
X196245627Y-135891936D02*
G75*
G03*
X194001685Y-137613773I-261053J-1982889D01*
G01*
%TO.C,K28*%
X165554212Y-131851334D02*
X170610581Y-132517017D01*
X162235787Y-127178213D02*
X167292156Y-127843897D01*
X165554212Y-131851334D02*
G75*
G03*
X163310270Y-133573171I-261053J-1982889D01*
G01*
X162235787Y-127178214D02*
G75*
G03*
X159991845Y-128900050I-261053J-1982889D01*
G01*
%TO.C,K24*%
X185537500Y-113981250D02*
X190637500Y-113981250D01*
X181637500Y-109781250D02*
X186737500Y-109781250D01*
X181637500Y-109781250D02*
G75*
G03*
X179637500Y-111781250I-1J-1999999D01*
G01*
X185537500Y-113981250D02*
G75*
G03*
X183537500Y-115981250I-1J-1999999D01*
G01*
%TO.C,K25*%
X87906250Y-128268750D02*
X93006250Y-128268750D01*
X84006250Y-124068750D02*
X89106250Y-124068750D01*
X84006250Y-124068750D02*
G75*
G03*
X82006250Y-126068750I-1J-1999999D01*
G01*
X87906250Y-128268750D02*
G75*
G03*
X85906250Y-130268750I-1J-1999999D01*
G01*
%TO.C,K9*%
X124487500Y-66918750D02*
X129587500Y-66918750D01*
X128387500Y-71118750D02*
X133487500Y-71118750D01*
X124487500Y-66918750D02*
G75*
G03*
X122487500Y-68918750I-1J-1999999D01*
G01*
X128387500Y-71118750D02*
G75*
G03*
X126387500Y-73118750I-1J-1999999D01*
G01*
%TO.C,K5*%
X166487500Y-54450000D02*
X171587500Y-54450000D01*
X162587500Y-50250000D02*
X167687500Y-50250000D01*
X166487500Y-54450000D02*
G75*
G03*
X164487500Y-56450000I-1J-1999999D01*
G01*
X162587500Y-50250000D02*
G75*
G03*
X160587500Y-52250000I-1J-1999999D01*
G01*
%TO.C,K20*%
X105437500Y-105018750D02*
X110537500Y-105018750D01*
X109337500Y-109218750D02*
X114437500Y-109218750D01*
X105437500Y-105018750D02*
G75*
G03*
X103437500Y-107018750I-1J-1999999D01*
G01*
X109337500Y-109218750D02*
G75*
G03*
X107337500Y-111218750I-1J-1999999D01*
G01*
%TO.C,K22*%
X143537500Y-105018750D02*
X148637500Y-105018750D01*
X147437500Y-109218750D02*
X152537500Y-109218750D01*
X143537500Y-105018750D02*
G75*
G03*
X141537500Y-107018750I-1J-1999999D01*
G01*
X147437500Y-109218750D02*
G75*
G03*
X145437500Y-111218750I-1J-1999999D01*
G01*
%TO.C,K11*%
X166487500Y-73500000D02*
X171587500Y-73500000D01*
X162587500Y-69300000D02*
X167687500Y-69300000D01*
X166487500Y-73500000D02*
G75*
G03*
X164487500Y-75500000I-1J-1999999D01*
G01*
X162587500Y-69300000D02*
G75*
G03*
X160587500Y-71300000I-1J-1999999D01*
G01*
%TO.C,K17*%
X162587500Y-88350000D02*
X167687500Y-88350000D01*
X166487500Y-92550000D02*
X171587500Y-92550000D01*
X162587500Y-88350000D02*
G75*
G03*
X160587500Y-90350000I-1J-1999999D01*
G01*
X166487500Y-92550000D02*
G75*
G03*
X164487500Y-94550000I-1J-1999999D01*
G01*
%TO.C,K3*%
X124487500Y-47868750D02*
X129587500Y-47868750D01*
X128387500Y-52068750D02*
X133487500Y-52068750D01*
X124487500Y-47868750D02*
G75*
G03*
X122487500Y-49868750I-1J-1999999D01*
G01*
X128387500Y-52068750D02*
G75*
G03*
X126387500Y-54068750I-1J-1999999D01*
G01*
%TO.C,K14*%
X109337500Y-90168750D02*
X114437500Y-90168750D01*
X105437500Y-85968750D02*
X110537500Y-85968750D01*
X109337500Y-90168750D02*
G75*
G03*
X107337500Y-92168750I-1J-1999999D01*
G01*
X105437500Y-85968750D02*
G75*
G03*
X103437500Y-87968750I-1J-1999999D01*
G01*
%TO.C,K7*%
X90287500Y-71118750D02*
X95387500Y-71118750D01*
X86387500Y-66918750D02*
X91487500Y-66918750D01*
X86387500Y-66918750D02*
G75*
G03*
X84387500Y-68918750I-1J-1999999D01*
G01*
X90287500Y-71118750D02*
G75*
G03*
X88287500Y-73118750I-1J-1999999D01*
G01*
%TO.C,K15*%
X128387500Y-90168750D02*
X133487500Y-90168750D01*
X124487500Y-85968750D02*
X129587500Y-85968750D01*
X128387500Y-90168750D02*
G75*
G03*
X126387500Y-92168750I-1J-1999999D01*
G01*
X124487500Y-85968750D02*
G75*
G03*
X122487500Y-87968750I-1J-1999999D01*
G01*
%TO.C,K19*%
X84006250Y-105018750D02*
X89106250Y-105018750D01*
X87906250Y-109218750D02*
X93006250Y-109218750D01*
X84006250Y-105018750D02*
G75*
G03*
X82006250Y-107018750I-1J-1999999D01*
G01*
X87906250Y-109218750D02*
G75*
G03*
X85906250Y-111218750I-1J-1999999D01*
G01*
%TO.C,K12*%
X181637500Y-71681250D02*
X186737500Y-71681250D01*
X185537500Y-75881250D02*
X190637500Y-75881250D01*
X185537500Y-75881250D02*
G75*
G03*
X183537500Y-77881250I-1J-1999999D01*
G01*
X181637500Y-71681250D02*
G75*
G03*
X179637500Y-73681250I-1J-1999999D01*
G01*
%TO.C,K8*%
X105437500Y-66918750D02*
X110537500Y-66918750D01*
X109337500Y-71118750D02*
X114437500Y-71118750D01*
X105437500Y-66918750D02*
G75*
G03*
X103437500Y-68918750I-1J-1999999D01*
G01*
X109337500Y-71118750D02*
G75*
G03*
X107337500Y-73118750I-1J-1999999D01*
G01*
%TO.C,K4*%
X147437500Y-52068750D02*
X152537500Y-52068750D01*
X143537500Y-47868750D02*
X148637500Y-47868750D01*
X147437500Y-52068750D02*
G75*
G03*
X145437500Y-54068750I-1J-1999999D01*
G01*
X143537500Y-47868750D02*
G75*
G03*
X141537500Y-49868750I-1J-1999999D01*
G01*
%TO.C,K21*%
X128387500Y-109218750D02*
X133487500Y-109218750D01*
X124487500Y-105018750D02*
X129587500Y-105018750D01*
X124487500Y-105018750D02*
G75*
G03*
X122487500Y-107018750I-1J-1999999D01*
G01*
X128387500Y-109218750D02*
G75*
G03*
X126387500Y-111218750I-1J-1999999D01*
G01*
%TO.C,K13*%
X87906250Y-90168750D02*
X93006250Y-90168750D01*
X84006250Y-85968750D02*
X89106250Y-85968750D01*
X87906250Y-90168750D02*
G75*
G03*
X85906250Y-92168750I-1J-1999999D01*
G01*
X84006250Y-85968750D02*
G75*
G03*
X82006250Y-87968750I-1J-1999999D01*
G01*
%TO.C,K26*%
X109337500Y-128268750D02*
X114437500Y-128268750D01*
X105437500Y-124068750D02*
X110537500Y-124068750D01*
X109337500Y-128268750D02*
G75*
G03*
X107337500Y-130268750I-1J-1999999D01*
G01*
X105437500Y-124068750D02*
G75*
G03*
X103437500Y-126068750I-1J-1999999D01*
G01*
%TO.C,K16*%
X147437500Y-90168750D02*
X152537500Y-90168750D01*
X143537500Y-85968750D02*
X148637500Y-85968750D01*
X147437500Y-90168750D02*
G75*
G03*
X145437500Y-92168750I-1J-1999999D01*
G01*
X143537500Y-85968750D02*
G75*
G03*
X141537500Y-87968750I-1J-1999999D01*
G01*
%TO.C,D20*%
X107287500Y-117681250D02*
X111187500Y-117681250D01*
X107287500Y-117681250D02*
X107287500Y-115681250D01*
X107287500Y-115681250D02*
X111187500Y-115681250D01*
%TO.C,D11*%
X164437500Y-79962500D02*
X168337500Y-79962500D01*
X164437500Y-81962500D02*
X164437500Y-79962500D01*
X164437500Y-81962500D02*
X168337500Y-81962500D01*
%TO.C,D7*%
X88237500Y-79581250D02*
X92137500Y-79581250D01*
X88237500Y-79581250D02*
X88237500Y-77581250D01*
X88237500Y-77581250D02*
X92137500Y-77581250D01*
%TO.C,D1*%
X88237500Y-60531250D02*
X88237500Y-58531250D01*
X88237500Y-58531250D02*
X92137500Y-58531250D01*
X88237500Y-60531250D02*
X92137500Y-60531250D01*
%TO.C,D10*%
X145387500Y-79581250D02*
X145387500Y-77581250D01*
X145387500Y-77581250D02*
X149287500Y-77581250D01*
X145387500Y-79581250D02*
X149287500Y-79581250D01*
%TO.C,D26*%
X107287500Y-136731250D02*
X107287500Y-134731250D01*
X107287500Y-136731250D02*
X111187500Y-136731250D01*
X107287500Y-134731250D02*
X111187500Y-134731250D01*
%TO.C,D4*%
X145387500Y-60531250D02*
X145387500Y-58531250D01*
X145387500Y-58531250D02*
X149287500Y-58531250D01*
X145387500Y-60531250D02*
X149287500Y-60531250D01*
%TO.C,D15*%
X126337500Y-98631250D02*
X130237500Y-98631250D01*
X126337500Y-96631250D02*
X130237500Y-96631250D01*
X126337500Y-98631250D02*
X126337500Y-96631250D01*
%TO.C,R1*%
X208772936Y-61265000D02*
X209227064Y-61265000D01*
X208772936Y-62735000D02*
X209227064Y-62735000D01*
%TO.C,D24*%
X183487500Y-122443750D02*
X187387500Y-122443750D01*
X183487500Y-120443750D02*
X187387500Y-120443750D01*
X183487500Y-122443750D02*
X183487500Y-120443750D01*
%TO.C,D28*%
X163150080Y-141000000D02*
X163150080Y-139000000D01*
X163150080Y-139000000D02*
X167050080Y-139000000D01*
X163150080Y-141000000D02*
X167050080Y-141000000D01*
%TO.C,D19*%
X85856250Y-117681250D02*
X89756250Y-117681250D01*
X85856250Y-117681250D02*
X85856250Y-115681250D01*
X85856250Y-115681250D02*
X89756250Y-115681250D01*
%TO.C,D9*%
X126337500Y-77581250D02*
X130237500Y-77581250D01*
X126337500Y-79581250D02*
X130237500Y-79581250D01*
X126337500Y-79581250D02*
X126337500Y-77581250D01*
%TO.C,D8*%
X107287500Y-77581250D02*
X111187500Y-77581250D01*
X107287500Y-79581250D02*
X107287500Y-77581250D01*
X107287500Y-79581250D02*
X111187500Y-79581250D01*
%TO.C,D16*%
X145387500Y-98631250D02*
X145387500Y-96631250D01*
X145387500Y-98631250D02*
X149287500Y-98631250D01*
X145387500Y-96631250D02*
X149287500Y-96631250D01*
%TO.C,D12*%
X183487500Y-82343750D02*
X187387500Y-82343750D01*
X183487500Y-84343750D02*
X187387500Y-84343750D01*
X183487500Y-84343750D02*
X183487500Y-82343750D01*
%TO.C,D3*%
X126337500Y-60531250D02*
X130237500Y-60531250D01*
X126337500Y-58531250D02*
X130237500Y-58531250D01*
X126337500Y-60531250D02*
X126337500Y-58531250D01*
%TO.C,D2*%
X107287500Y-60531250D02*
X111187500Y-60531250D01*
X107287500Y-60531250D02*
X107287500Y-58531250D01*
X107287500Y-58531250D02*
X111187500Y-58531250D01*
%TO.C,D29*%
X193841495Y-143000000D02*
X197741495Y-143000000D01*
X193841495Y-145000000D02*
X193841495Y-143000000D01*
X193841495Y-145000000D02*
X197741495Y-145000000D01*
%TO.C,D18*%
X183487500Y-103393750D02*
X187387500Y-103393750D01*
X183487500Y-101393750D02*
X187387500Y-101393750D01*
X183487500Y-103393750D02*
X183487500Y-101393750D01*
%TO.C,D14*%
X107287500Y-96631250D02*
X111187500Y-96631250D01*
X107287500Y-98631250D02*
X107287500Y-96631250D01*
X107287500Y-98631250D02*
X111187500Y-98631250D01*
%TO.C,D22*%
X145387500Y-117681250D02*
X149287500Y-117681250D01*
X145387500Y-117681250D02*
X145387500Y-115681250D01*
X145387500Y-115681250D02*
X149287500Y-115681250D01*
%TO.C,D23*%
X164437500Y-120062500D02*
X164437500Y-118062500D01*
X164437500Y-118062500D02*
X168337500Y-118062500D01*
X164437500Y-120062500D02*
X168337500Y-120062500D01*
%TO.C,D5*%
X164437500Y-60912500D02*
X168337500Y-60912500D01*
X164437500Y-62912500D02*
X164437500Y-60912500D01*
X164437500Y-62912500D02*
X168337500Y-62912500D01*
%TO.C,R2*%
X208772936Y-64265000D02*
X209227064Y-64265000D01*
X208772936Y-65735000D02*
X209227064Y-65735000D01*
%TO.C,D21*%
X126337500Y-115681250D02*
X130237500Y-115681250D01*
X126337500Y-117681250D02*
X126337500Y-115681250D01*
X126337500Y-117681250D02*
X130237500Y-117681250D01*
%TO.C,D27*%
X126337500Y-136731250D02*
X126337500Y-134731250D01*
X126337500Y-134731250D02*
X130237500Y-134731250D01*
X126337500Y-136731250D02*
X130237500Y-136731250D01*
%TO.C,D13*%
X85856250Y-96631250D02*
X89756250Y-96631250D01*
X85856250Y-98631250D02*
X89756250Y-98631250D01*
X85856250Y-98631250D02*
X85856250Y-96631250D01*
%TO.C,D17*%
X164437500Y-101012500D02*
X168337500Y-101012500D01*
X164437500Y-101012500D02*
X164437500Y-99012500D01*
X164437500Y-99012500D02*
X168337500Y-99012500D01*
%TO.C,D25*%
X85856250Y-136731250D02*
X85856250Y-134731250D01*
X85856250Y-136731250D02*
X89756250Y-136731250D01*
X85856250Y-134731250D02*
X89756250Y-134731250D01*
%TO.C,G\u002A\u002A\u002A*%
G36*
X208171650Y-97933170D02*
G01*
X208222307Y-97982301D01*
X208274270Y-97979582D01*
X208313813Y-97955337D01*
X208436851Y-97943243D01*
X208594659Y-97964171D01*
X208597175Y-97967051D01*
X208560610Y-98014847D01*
X208464676Y-98100592D01*
X208306281Y-98230234D01*
X208423058Y-98378693D01*
X208482366Y-98471312D01*
X208487118Y-98551260D01*
X208407688Y-98565312D01*
X208253344Y-98506489D01*
X208128712Y-98451567D01*
X208040034Y-98458691D01*
X207929412Y-98534208D01*
X207912057Y-98547578D01*
X207794494Y-98612023D01*
X207718369Y-98590034D01*
X207702718Y-98564949D01*
X207727632Y-98487631D01*
X207845913Y-98373383D01*
X207949031Y-98279287D01*
X208005097Y-98181643D01*
X207997573Y-98070569D01*
X207987301Y-97996503D01*
X208014865Y-97894872D01*
X208084641Y-97867189D01*
X208171650Y-97933170D01*
G37*
G36*
X207609184Y-98854107D02*
G01*
X207609580Y-98957450D01*
X207582261Y-99000376D01*
X207488389Y-99046504D01*
X207458101Y-99039445D01*
X207408928Y-98969571D01*
X207408869Y-98867825D01*
X207463145Y-98787740D01*
X207463388Y-98787590D01*
X207548986Y-98784198D01*
X207609184Y-98854107D01*
G37*
G36*
X209668940Y-98559791D02*
G01*
X209749700Y-98618364D01*
X209836120Y-98690191D01*
X209858820Y-98709058D01*
X209901594Y-98762726D01*
X209889100Y-98776917D01*
X209796436Y-98808099D01*
X209643083Y-98833569D01*
X209566412Y-98843347D01*
X209424742Y-98868603D01*
X209355249Y-98892029D01*
X209354436Y-98893145D01*
X209382479Y-98947092D01*
X209475226Y-99053521D01*
X209613761Y-99190585D01*
X209617984Y-99194540D01*
X209733188Y-99308744D01*
X209761015Y-99336329D01*
X209862817Y-99451803D01*
X209901594Y-99516301D01*
X209889419Y-99534779D01*
X209794871Y-99545978D01*
X209624087Y-99522557D01*
X209397942Y-99466577D01*
X209334561Y-99450202D01*
X209291891Y-99462224D01*
X209326913Y-99545864D01*
X209337588Y-99566146D01*
X209363327Y-99632298D01*
X209382260Y-99680957D01*
X209358385Y-99747305D01*
X209251091Y-99777839D01*
X209045509Y-99785207D01*
X208889077Y-99790969D01*
X208704112Y-99813165D01*
X208586631Y-99846327D01*
X208539134Y-99874395D01*
X208513991Y-99916701D01*
X208554238Y-99982215D01*
X208668731Y-100098094D01*
X208763629Y-100197696D01*
X208832941Y-100308142D01*
X208869155Y-100448323D01*
X208880912Y-100575861D01*
X208888687Y-100660195D01*
X208890009Y-100680248D01*
X208916034Y-100906384D01*
X208963932Y-101058370D01*
X209044804Y-101172650D01*
X209110093Y-101255189D01*
X209127660Y-101315173D01*
X209146391Y-101379131D01*
X209079283Y-101460597D01*
X208912800Y-101489905D01*
X208904066Y-101489945D01*
X208752052Y-101514908D01*
X208702800Y-101570512D01*
X208683445Y-101592363D01*
X208619500Y-101699108D01*
X208482994Y-101854447D01*
X208299657Y-102031336D01*
X208093731Y-102207845D01*
X207889458Y-102362044D01*
X207711080Y-102472003D01*
X207698398Y-102478530D01*
X207630957Y-102518695D01*
X207581782Y-102570863D01*
X207544127Y-102655153D01*
X207511248Y-102791680D01*
X207476401Y-103000563D01*
X207432841Y-103301920D01*
X207327889Y-104043151D01*
X207530410Y-104267317D01*
X207544395Y-104282870D01*
X207731259Y-104512758D01*
X207825639Y-104681163D01*
X207826819Y-104786829D01*
X207814729Y-104803876D01*
X207726836Y-104839272D01*
X207601061Y-104773400D01*
X207433960Y-104604665D01*
X207325468Y-104481466D01*
X207250763Y-104417318D01*
X207200657Y-104419506D01*
X207150062Y-104476723D01*
X207096309Y-104535968D01*
X207037763Y-104548126D01*
X207020017Y-104473886D01*
X207052895Y-104328260D01*
X207086835Y-104218992D01*
X207079159Y-104174481D01*
X207016848Y-104190608D01*
X206993658Y-104200092D01*
X206829879Y-104251126D01*
X206709497Y-104262554D01*
X206662668Y-104230940D01*
X206663730Y-104224482D01*
X206723691Y-104166421D01*
X206847344Y-104105976D01*
X206983343Y-104053588D01*
X207091513Y-103995770D01*
X207163948Y-103917489D01*
X207214067Y-103795806D01*
X207255291Y-103607782D01*
X207301041Y-103330476D01*
X207333210Y-103119481D01*
X207364379Y-102891159D01*
X207383146Y-102722496D01*
X207386276Y-102639698D01*
X207374035Y-102616112D01*
X207304057Y-102616141D01*
X207160077Y-102682315D01*
X206967335Y-102756792D01*
X206638161Y-102796840D01*
X206522693Y-102800289D01*
X206323810Y-102820564D01*
X206181502Y-102852967D01*
X206033877Y-102909094D01*
X206049950Y-103544292D01*
X206066024Y-104179490D01*
X206264905Y-104286822D01*
X206319943Y-104318183D01*
X206491033Y-104440335D01*
X206614339Y-104565460D01*
X206678720Y-104676256D01*
X206673034Y-104755421D01*
X206586139Y-104785654D01*
X206560842Y-104779894D01*
X206455178Y-104722399D01*
X206321675Y-104623160D01*
X206127033Y-104460665D01*
X205969927Y-104708395D01*
X205932703Y-104764387D01*
X205828863Y-104892128D01*
X205748572Y-104953038D01*
X205706786Y-104939146D01*
X205718457Y-104842478D01*
X205740322Y-104771560D01*
X205788535Y-104615185D01*
X205799770Y-104567000D01*
X205781193Y-104507984D01*
X205705257Y-104534026D01*
X205583026Y-104643596D01*
X205542083Y-104683770D01*
X205425443Y-104764967D01*
X205335157Y-104784992D01*
X205298910Y-104734943D01*
X205330524Y-104687483D01*
X205431792Y-104590491D01*
X205578562Y-104470967D01*
X205704692Y-104365050D01*
X205829492Y-104235367D01*
X205890314Y-104138121D01*
X205899233Y-104082147D01*
X205911349Y-103920005D01*
X205919813Y-103694418D01*
X205923190Y-103436102D01*
X205923965Y-102853663D01*
X205727608Y-102853663D01*
X205723585Y-102853687D01*
X205584133Y-102882075D01*
X205525480Y-102894015D01*
X205323108Y-102994912D01*
X205255770Y-103038296D01*
X205115909Y-103100312D01*
X205038576Y-103075439D01*
X205014793Y-102962738D01*
X204999974Y-102900076D01*
X204982694Y-102882075D01*
X205185263Y-102882075D01*
X205213675Y-102910487D01*
X205242086Y-102882075D01*
X205213675Y-102853663D01*
X205185263Y-102882075D01*
X204982694Y-102882075D01*
X204909493Y-102805819D01*
X204774981Y-102760179D01*
X204641138Y-102784478D01*
X204622087Y-102794059D01*
X204517273Y-102801445D01*
X204383368Y-102726323D01*
X204373334Y-102718996D01*
X204256583Y-102654307D01*
X204122682Y-102633192D01*
X203925083Y-102647661D01*
X203886935Y-102652106D01*
X203665213Y-102674694D01*
X203391982Y-102698985D01*
X203117639Y-102720437D01*
X202612656Y-102756667D01*
X202648507Y-103217134D01*
X202649325Y-103227719D01*
X202667054Y-103501861D01*
X202679745Y-103780247D01*
X202684699Y-104004171D01*
X202686851Y-104126267D01*
X202708361Y-104285063D01*
X202768555Y-104410378D01*
X202886220Y-104553423D01*
X202956371Y-104640231D01*
X203020249Y-104758028D01*
X203020590Y-104826854D01*
X202961021Y-104829461D01*
X202845169Y-104748603D01*
X202768910Y-104685906D01*
X202710433Y-104684523D01*
X202642937Y-104771449D01*
X202617513Y-104807568D01*
X202530892Y-104889403D01*
X202476567Y-104862911D01*
X202457746Y-104728831D01*
X202457538Y-104703763D01*
X202440576Y-104586353D01*
X202385335Y-104571794D01*
X202276202Y-104653618D01*
X202182858Y-104712922D01*
X202107113Y-104685043D01*
X202092456Y-104638357D01*
X202152220Y-104565835D01*
X202305540Y-104461934D01*
X202567801Y-104302657D01*
X202562955Y-103904894D01*
X202557646Y-103705464D01*
X202542541Y-103404312D01*
X202522134Y-103138511D01*
X202486158Y-102769891D01*
X202258865Y-102725518D01*
X202245724Y-102722971D01*
X202022988Y-102682979D01*
X201803944Y-102647932D01*
X201576316Y-102614717D01*
X201471074Y-103401864D01*
X201423782Y-103770579D01*
X201394848Y-104055052D01*
X201387787Y-104262041D01*
X201404666Y-104409148D01*
X201447551Y-104513975D01*
X201518508Y-104594124D01*
X201619603Y-104667197D01*
X201729632Y-104750065D01*
X201816654Y-104851880D01*
X201828119Y-104926898D01*
X201755119Y-104956124D01*
X201754269Y-104956118D01*
X201657098Y-104922333D01*
X201533069Y-104842478D01*
X201525729Y-104836731D01*
X201420437Y-104760332D01*
X201362198Y-104728831D01*
X201354731Y-104735694D01*
X201327428Y-104816946D01*
X201298775Y-104960407D01*
X201275576Y-105066560D01*
X201226654Y-105163413D01*
X201177518Y-105159366D01*
X201141491Y-105061187D01*
X201131895Y-104875642D01*
X201141391Y-104608287D01*
X200989837Y-104704491D01*
X200859187Y-104795797D01*
X200714637Y-104912775D01*
X200605465Y-104985710D01*
X200526143Y-104988058D01*
X200513310Y-104922980D01*
X200588210Y-104808071D01*
X200594506Y-104801436D01*
X200696947Y-104709802D01*
X200768982Y-104672008D01*
X200799859Y-104661694D01*
X200904894Y-104598462D01*
X201043193Y-104496763D01*
X201088579Y-104460151D01*
X201203043Y-104347951D01*
X201253292Y-104235327D01*
X201264458Y-104074296D01*
X201266366Y-104012861D01*
X201283694Y-103809356D01*
X201315201Y-103552902D01*
X201356129Y-103284475D01*
X201377986Y-103146139D01*
X201406804Y-102919871D01*
X201419965Y-102746621D01*
X201414736Y-102655712D01*
X201352477Y-102597749D01*
X201223624Y-102569230D01*
X200997501Y-102547844D01*
X200734310Y-102481272D01*
X200491831Y-102382144D01*
X200300983Y-102263395D01*
X200192689Y-102137960D01*
X200171111Y-102084632D01*
X200122599Y-101806771D01*
X200252271Y-101806771D01*
X200303815Y-102023957D01*
X200422382Y-102179997D01*
X200441705Y-102193450D01*
X200592535Y-102267899D01*
X200799159Y-102341911D01*
X201021667Y-102404056D01*
X201220146Y-102442902D01*
X201354687Y-102447019D01*
X201366921Y-102444301D01*
X201417944Y-102414449D01*
X201449680Y-102341551D01*
X201468354Y-102202074D01*
X201480187Y-101972485D01*
X201480403Y-101966743D01*
X201498180Y-101695428D01*
X201523712Y-101527611D01*
X201552099Y-101465074D01*
X201578443Y-101509599D01*
X201597842Y-101662968D01*
X201605397Y-101926961D01*
X201605397Y-102443570D01*
X201994172Y-102531366D01*
X202186304Y-102565768D01*
X202552678Y-102600443D01*
X202952027Y-102607293D01*
X203175012Y-102600942D01*
X203376130Y-102586710D01*
X203519260Y-102559498D01*
X203635344Y-102512879D01*
X203729700Y-102455900D01*
X203963563Y-102455900D01*
X203977177Y-102494686D01*
X204073856Y-102512724D01*
X204170539Y-102498254D01*
X204219267Y-102455900D01*
X204199474Y-102423519D01*
X204108974Y-102399077D01*
X204043710Y-102408165D01*
X203963563Y-102455900D01*
X203729700Y-102455900D01*
X203755323Y-102440427D01*
X203865287Y-102374683D01*
X204093185Y-102293224D01*
X204278038Y-102311487D01*
X204414283Y-102429563D01*
X204434525Y-102455900D01*
X204472710Y-102505584D01*
X204562428Y-102549683D01*
X204707207Y-102536459D01*
X204866833Y-102526324D01*
X205002860Y-102583576D01*
X205007728Y-102587758D01*
X205185612Y-102689305D01*
X205358981Y-102703202D01*
X205497410Y-102626791D01*
X205515980Y-102607503D01*
X205609648Y-102547887D01*
X205666672Y-102565928D01*
X205659700Y-102656602D01*
X205658694Y-102659296D01*
X205669865Y-102721478D01*
X205775828Y-102740017D01*
X205830185Y-102738512D01*
X205883852Y-102719484D01*
X205911754Y-102658953D01*
X205922317Y-102532873D01*
X205923965Y-102317196D01*
X205928129Y-102134712D01*
X205946460Y-101950846D01*
X205973865Y-101869370D01*
X206004231Y-101892836D01*
X206031444Y-102023798D01*
X206049394Y-102264809D01*
X206051550Y-102312687D01*
X206068630Y-102512687D01*
X206093942Y-102655703D01*
X206122847Y-102713406D01*
X206239652Y-102714923D01*
X206439648Y-102690566D01*
X206680574Y-102645503D01*
X206927050Y-102586435D01*
X207143696Y-102520061D01*
X207307032Y-102462465D01*
X207441262Y-102416642D01*
X207498842Y-102399077D01*
X207503740Y-102394329D01*
X207500811Y-102329866D01*
X207500258Y-102325281D01*
X207547067Y-102269924D01*
X207666855Y-102230426D01*
X207819216Y-102171289D01*
X207969301Y-102043932D01*
X207980003Y-102030637D01*
X208086286Y-101929233D01*
X208176090Y-101887668D01*
X208223286Y-101869672D01*
X208239232Y-101793033D01*
X208222338Y-101631963D01*
X208221034Y-101623266D01*
X208363595Y-101623266D01*
X208377538Y-101659785D01*
X208414451Y-101696582D01*
X208477580Y-101636099D01*
X208518947Y-101570512D01*
X208507991Y-101503169D01*
X208407984Y-101499088D01*
X208364051Y-101526119D01*
X208363595Y-101623266D01*
X208221034Y-101623266D01*
X208183992Y-101376258D01*
X208408616Y-101376258D01*
X208517296Y-101368767D01*
X208628175Y-101323450D01*
X208633800Y-101315173D01*
X208832843Y-101315173D01*
X208836466Y-101347426D01*
X208907187Y-101376258D01*
X208954101Y-101366987D01*
X208981531Y-101315173D01*
X208973814Y-101298326D01*
X208907187Y-101254088D01*
X208891506Y-101256466D01*
X208832843Y-101315173D01*
X208633800Y-101315173D01*
X208698025Y-101220663D01*
X208737516Y-101041801D01*
X208757321Y-100768257D01*
X208760872Y-100575861D01*
X208742306Y-100440725D01*
X208687155Y-100332926D01*
X208581548Y-100208273D01*
X208391216Y-100000585D01*
X207967322Y-100127517D01*
X207949989Y-100132686D01*
X207754602Y-100185886D01*
X207579737Y-100218606D01*
X207391946Y-100233661D01*
X207157781Y-100233863D01*
X206843793Y-100222028D01*
X206816045Y-100220730D01*
X206516049Y-100203795D01*
X206301119Y-100182915D01*
X206144751Y-100153180D01*
X206020439Y-100109680D01*
X205901679Y-100047505D01*
X205825119Y-100000513D01*
X205677427Y-99897685D01*
X205585744Y-99816894D01*
X205556649Y-99790778D01*
X205459655Y-99753797D01*
X205292797Y-99734158D01*
X205034422Y-99728384D01*
X204858621Y-99723661D01*
X204583829Y-99695345D01*
X204362964Y-99645888D01*
X204215884Y-99580400D01*
X204195004Y-99550545D01*
X204486094Y-99550545D01*
X204568273Y-99577317D01*
X204661173Y-99592882D01*
X204845019Y-99607865D01*
X205057411Y-99613961D01*
X205108484Y-99614023D01*
X205280837Y-99610157D01*
X205371490Y-99591345D01*
X205406659Y-99546579D01*
X205412556Y-99464855D01*
X205407502Y-99380980D01*
X205373621Y-99339458D01*
X205282929Y-99332895D01*
X205107444Y-99350834D01*
X205000361Y-99366350D01*
X204785187Y-99411683D01*
X204618307Y-99464071D01*
X204590808Y-99475672D01*
X204490765Y-99523094D01*
X204486094Y-99550545D01*
X204195004Y-99550545D01*
X204162444Y-99503990D01*
X204138532Y-99478230D01*
X204038059Y-99453109D01*
X203899563Y-99444615D01*
X203767507Y-99454548D01*
X203686357Y-99484709D01*
X203695857Y-99542363D01*
X203776327Y-99625504D01*
X203849349Y-99684684D01*
X203865456Y-99719522D01*
X203796755Y-99727120D01*
X203684957Y-99694365D01*
X203558402Y-99607787D01*
X203433460Y-99532405D01*
X203293778Y-99517571D01*
X203184053Y-99566786D01*
X203139625Y-99674426D01*
X203139528Y-99680389D01*
X203094733Y-99788138D01*
X202998975Y-99832895D01*
X202897148Y-99792752D01*
X202789203Y-99737798D01*
X202637012Y-99741585D01*
X202513988Y-99814319D01*
X202452325Y-99864415D01*
X202369161Y-99839249D01*
X202363006Y-99834649D01*
X202280597Y-99818802D01*
X202134983Y-99850108D01*
X201907908Y-99932248D01*
X201883121Y-99942171D01*
X201454839Y-100146263D01*
X201391408Y-100190100D01*
X201111176Y-100383767D01*
X200825363Y-100673000D01*
X200735500Y-100781330D01*
X200592764Y-100952529D01*
X200483040Y-101083124D01*
X200343747Y-101306653D01*
X200266124Y-101557862D01*
X200252271Y-101806771D01*
X200122599Y-101806771D01*
X200121802Y-101802204D01*
X200152581Y-101492818D01*
X200256372Y-101192832D01*
X200426100Y-100938604D01*
X200540444Y-100813477D01*
X200392536Y-100637698D01*
X200371068Y-100610535D01*
X200260094Y-100423680D01*
X200182672Y-100223004D01*
X200173629Y-100188179D01*
X200118097Y-99975691D01*
X200067848Y-99785207D01*
X200065013Y-99772870D01*
X200049124Y-99638876D01*
X200035336Y-99415553D01*
X200024458Y-99123695D01*
X200017297Y-98784098D01*
X200014663Y-98417556D01*
X200013151Y-98080258D01*
X200004111Y-97657986D01*
X199984149Y-97323340D01*
X199950119Y-97060783D01*
X199898875Y-96854777D01*
X199827274Y-96689787D01*
X199732168Y-96550275D01*
X199610414Y-96420704D01*
X199532786Y-96341979D01*
X199422336Y-96186437D01*
X199389290Y-96039147D01*
X199389302Y-96035459D01*
X199392172Y-96021321D01*
X199518897Y-96021321D01*
X199561718Y-96144176D01*
X199710520Y-96307369D01*
X199811949Y-96407582D01*
X199915173Y-96539539D01*
X199993667Y-96691962D01*
X200050683Y-96880360D01*
X200089469Y-97120243D01*
X200113278Y-97427123D01*
X200125360Y-97816508D01*
X200128966Y-98303910D01*
X200135997Y-98836710D01*
X200159743Y-99322479D01*
X200201886Y-99716709D01*
X200264092Y-100030423D01*
X200348031Y-100274642D01*
X200455371Y-100460390D01*
X200465446Y-100473795D01*
X200560126Y-100579836D01*
X200644082Y-100607252D01*
X200745101Y-100553116D01*
X200890969Y-100414500D01*
X201110090Y-100190100D01*
X200964977Y-100017643D01*
X200939269Y-99985749D01*
X200894961Y-99918467D01*
X200858549Y-99835845D01*
X200828584Y-99725603D01*
X200803619Y-99575459D01*
X200782206Y-99373134D01*
X200762898Y-99106345D01*
X200744247Y-98762813D01*
X200724804Y-98330256D01*
X200703123Y-97796393D01*
X200687855Y-97430704D01*
X200671062Y-97099707D01*
X200653212Y-96849475D01*
X200632269Y-96662405D01*
X200606197Y-96520899D01*
X200572961Y-96407355D01*
X200530525Y-96304173D01*
X200448258Y-96147262D01*
X200300635Y-95973359D01*
X200115521Y-95887908D01*
X199868818Y-95875293D01*
X199754806Y-95886781D01*
X199582959Y-95936343D01*
X199518897Y-96021321D01*
X199392172Y-96021321D01*
X199417061Y-95898708D01*
X199508655Y-95811093D01*
X199679777Y-95764485D01*
X199946124Y-95750755D01*
X200098429Y-95756153D01*
X200309794Y-95799836D01*
X200463423Y-95902596D01*
X200581353Y-96082521D01*
X200685620Y-96357697D01*
X200692361Y-96379123D01*
X200730850Y-96517377D01*
X200761833Y-96667791D01*
X200786918Y-96847277D01*
X200807718Y-97072745D01*
X200825842Y-97361107D01*
X200842901Y-97729274D01*
X200860505Y-98194155D01*
X200873338Y-98517828D01*
X200891963Y-98897179D01*
X200912322Y-99231915D01*
X200933218Y-99504789D01*
X200953452Y-99698552D01*
X200971825Y-99795958D01*
X200985108Y-99827571D01*
X201099907Y-99983509D01*
X201255006Y-100033249D01*
X201448620Y-99976117D01*
X201455681Y-99972515D01*
X201588128Y-99915014D01*
X201798686Y-99833571D01*
X202059847Y-99738507D01*
X202344100Y-99640142D01*
X202386752Y-99625737D01*
X202670989Y-99526610D01*
X202865050Y-99450486D01*
X202985616Y-99389052D01*
X203049373Y-99333999D01*
X203050774Y-99330621D01*
X203196449Y-99330621D01*
X203197100Y-99343480D01*
X203221507Y-99387444D01*
X203230622Y-99384829D01*
X203281684Y-99330621D01*
X203290562Y-99308610D01*
X203256626Y-99273798D01*
X203240132Y-99275981D01*
X203196449Y-99330621D01*
X203050774Y-99330621D01*
X203073004Y-99277012D01*
X203076937Y-99255495D01*
X203141040Y-99143447D01*
X203251257Y-99126793D01*
X203387678Y-99209785D01*
X203454434Y-99262403D01*
X203558138Y-99304910D01*
X203585874Y-99308610D01*
X203711321Y-99325345D01*
X203945916Y-99330621D01*
X203953549Y-99330615D01*
X204193772Y-99324976D01*
X204413955Y-99310801D01*
X204567310Y-99291067D01*
X204759089Y-99251513D01*
X204531795Y-99186498D01*
X204408729Y-99139933D01*
X204318096Y-99064781D01*
X204318854Y-99059739D01*
X204649296Y-99059739D01*
X204714440Y-99080224D01*
X204864742Y-99108512D01*
X205059386Y-99134874D01*
X205412556Y-99174830D01*
X205412556Y-99038414D01*
X205532050Y-99038414D01*
X205535075Y-99174830D01*
X205538117Y-99312029D01*
X205566736Y-99464855D01*
X205575501Y-99511662D01*
X205655793Y-99664046D01*
X205790584Y-99795916D01*
X205991463Y-99934003D01*
X205992504Y-99934660D01*
X206104074Y-99997238D01*
X206221628Y-100040155D01*
X206372083Y-100068499D01*
X206582352Y-100087357D01*
X206879351Y-100101815D01*
X207066906Y-100108273D01*
X207331925Y-100110228D01*
X207533945Y-100097550D01*
X207705148Y-100067517D01*
X207877714Y-100017410D01*
X207984162Y-99980571D01*
X208175738Y-99902173D01*
X208276301Y-99840335D01*
X208279717Y-99799775D01*
X208179849Y-99785207D01*
X208075381Y-99769905D01*
X208026426Y-99728384D01*
X208037694Y-99711670D01*
X208128345Y-99682929D01*
X208280154Y-99671560D01*
X208401825Y-99665421D01*
X208470190Y-99645039D01*
X208841876Y-99645039D01*
X208879715Y-99667974D01*
X209014026Y-99671560D01*
X209028853Y-99671539D01*
X209154709Y-99664361D01*
X209191775Y-99632298D01*
X209162892Y-99557914D01*
X209115970Y-99488350D01*
X209056053Y-99444267D01*
X208999077Y-99473347D01*
X208907187Y-99557914D01*
X208883342Y-99584494D01*
X208841876Y-99645039D01*
X208470190Y-99645039D01*
X208568623Y-99615693D01*
X208734556Y-99495366D01*
X208797550Y-99436705D01*
X208886264Y-99336088D01*
X208909913Y-99278209D01*
X208923073Y-99224745D01*
X208960083Y-99183179D01*
X209198500Y-99183179D01*
X209283067Y-99251470D01*
X209409308Y-99307321D01*
X209516478Y-99330127D01*
X209560655Y-99308744D01*
X209560608Y-99307412D01*
X209511704Y-99250391D01*
X209404207Y-99187005D01*
X209287366Y-99141338D01*
X209210433Y-99137476D01*
X209198500Y-99183179D01*
X208960083Y-99183179D01*
X208999670Y-99138718D01*
X209018693Y-99121911D01*
X209078820Y-99038008D01*
X209048690Y-98960601D01*
X209038480Y-98946696D01*
X209014397Y-98858209D01*
X209040929Y-98790611D01*
X209103556Y-98789247D01*
X209138869Y-98799374D01*
X209207858Y-98741168D01*
X209240660Y-98648742D01*
X209390185Y-98648742D01*
X209418271Y-98683984D01*
X209518037Y-98704695D01*
X209548843Y-98704063D01*
X209605280Y-98690191D01*
X209560655Y-98648742D01*
X209529450Y-98629712D01*
X209425956Y-98595867D01*
X209390185Y-98648742D01*
X209240660Y-98648742D01*
X209265206Y-98579579D01*
X209307924Y-98321445D01*
X209323358Y-98168531D01*
X209326084Y-98040062D01*
X209304333Y-97981055D01*
X209254384Y-97966862D01*
X209246456Y-97966711D01*
X209187485Y-97934379D01*
X209195491Y-97828349D01*
X209194598Y-97719604D01*
X209150960Y-97567228D01*
X209077963Y-97408256D01*
X208991364Y-97271474D01*
X208906919Y-97185666D01*
X208840385Y-97179618D01*
X208821876Y-97193277D01*
X208732163Y-97213545D01*
X208685163Y-97164969D01*
X208716098Y-97076712D01*
X208742807Y-97038214D01*
X208743222Y-97031429D01*
X209049536Y-97031429D01*
X209050212Y-97041171D01*
X209084104Y-97136800D01*
X209153311Y-97259453D01*
X209235804Y-97377215D01*
X209309554Y-97458171D01*
X209352532Y-97470405D01*
X209383570Y-97391447D01*
X209426348Y-97240485D01*
X209472776Y-97049889D01*
X209516367Y-96849573D01*
X209550635Y-96669452D01*
X209569092Y-96539442D01*
X209565252Y-96489457D01*
X209524411Y-96511551D01*
X209425707Y-96596968D01*
X209301722Y-96720191D01*
X209179602Y-96852694D01*
X209086491Y-96965949D01*
X209049536Y-97031429D01*
X208743222Y-97031429D01*
X208746090Y-96984532D01*
X208687342Y-96930418D01*
X208551279Y-96864108D01*
X208322617Y-96773835D01*
X208144112Y-96720756D01*
X207832259Y-96672105D01*
X207495502Y-96659046D01*
X207167362Y-96680575D01*
X206881358Y-96735686D01*
X206730954Y-96798384D01*
X206671007Y-96823374D01*
X206668698Y-96824876D01*
X206623431Y-96888619D01*
X206658800Y-96993640D01*
X206673085Y-97021331D01*
X206692935Y-97095968D01*
X206639079Y-97114513D01*
X206585036Y-97099206D01*
X206500656Y-97017999D01*
X206482636Y-96989017D01*
X206436685Y-96959116D01*
X206359495Y-96984527D01*
X206220715Y-97070997D01*
X206080145Y-97180145D01*
X205857311Y-97454213D01*
X205696929Y-97817350D01*
X205662339Y-97940424D01*
X205659306Y-98033463D01*
X205703966Y-98085017D01*
X205719201Y-98095226D01*
X205741739Y-98145001D01*
X205669634Y-98214537D01*
X205633841Y-98246345D01*
X205596543Y-98310152D01*
X205593302Y-98315697D01*
X205566595Y-98429871D01*
X205549160Y-98611810D01*
X205536434Y-98884454D01*
X205532050Y-99038414D01*
X205412556Y-99038414D01*
X205412556Y-99025432D01*
X205411981Y-98998317D01*
X205381280Y-98901712D01*
X205284704Y-98877131D01*
X205226330Y-98880536D01*
X205074024Y-98904223D01*
X204909071Y-98942923D01*
X204762567Y-98987701D01*
X204665610Y-99029618D01*
X204649296Y-99059739D01*
X204318854Y-99059739D01*
X204329269Y-98990503D01*
X204446561Y-98930077D01*
X204477140Y-98921382D01*
X204641351Y-98875527D01*
X204827907Y-98824282D01*
X205067195Y-98759151D01*
X204892226Y-98591942D01*
X204799356Y-98486183D01*
X204770954Y-98413232D01*
X204968820Y-98413232D01*
X204986704Y-98471590D01*
X205088991Y-98568341D01*
X205187973Y-98645733D01*
X205309856Y-98698344D01*
X205385057Y-98652967D01*
X205423204Y-98507858D01*
X205446285Y-98310152D01*
X205216333Y-98345296D01*
X205045001Y-98376340D01*
X204968820Y-98413232D01*
X204770954Y-98413232D01*
X204751186Y-98362459D01*
X204801202Y-98280585D01*
X204947707Y-98250979D01*
X205100199Y-98235827D01*
X205281665Y-98191652D01*
X205306119Y-98182331D01*
X205397725Y-98125355D01*
X205470393Y-98029939D01*
X205528821Y-97881059D01*
X205577706Y-97663692D01*
X205621742Y-97362816D01*
X205638792Y-97207640D01*
X205772626Y-97207640D01*
X205791313Y-97197470D01*
X205875701Y-97138153D01*
X206000612Y-97045772D01*
X206135769Y-96943140D01*
X206250896Y-96853072D01*
X206315720Y-96798384D01*
X206304740Y-96743087D01*
X206242047Y-96635935D01*
X206151668Y-96511544D01*
X206058356Y-96403890D01*
X205986862Y-96346952D01*
X205938743Y-96332424D01*
X205893627Y-96344705D01*
X205862312Y-96411002D01*
X205836782Y-96551037D01*
X205809020Y-96784533D01*
X205805612Y-96815772D01*
X205785679Y-97011666D01*
X205773864Y-97151813D01*
X205772626Y-97207640D01*
X205638792Y-97207640D01*
X205665627Y-96963407D01*
X205671210Y-96908380D01*
X205701749Y-96631768D01*
X205731390Y-96399336D01*
X205756995Y-96234084D01*
X205775423Y-96159010D01*
X205785067Y-96146475D01*
X205872540Y-96126294D01*
X206001060Y-96180995D01*
X206149930Y-96295242D01*
X206298451Y-96453696D01*
X206425924Y-96641021D01*
X206455660Y-96687137D01*
X206504921Y-96713764D01*
X206594520Y-96699333D01*
X206757393Y-96644156D01*
X206937093Y-96593967D01*
X207304112Y-96546660D01*
X207714187Y-96547177D01*
X208129874Y-96594584D01*
X208513726Y-96687949D01*
X208569303Y-96705600D01*
X208773392Y-96761736D01*
X208931322Y-96791945D01*
X209012685Y-96790008D01*
X209049748Y-96763000D01*
X209159024Y-96671695D01*
X209296232Y-96548900D01*
X209302415Y-96543217D01*
X209478115Y-96400762D01*
X209600570Y-96347382D01*
X209671473Y-96386150D01*
X209692514Y-96520143D01*
X209690260Y-96539442D01*
X209665387Y-96752435D01*
X209591783Y-97086102D01*
X209539247Y-97341318D01*
X209492610Y-97652277D01*
X209464348Y-97941213D01*
X209458283Y-98040062D01*
X209436286Y-98398562D01*
X209668940Y-98559791D01*
G37*
G36*
X207174077Y-99586325D02*
G01*
X207109237Y-99671861D01*
X206983573Y-99731348D01*
X206856795Y-99704922D01*
X206758800Y-99602581D01*
X206734306Y-99497737D01*
X206889961Y-99497737D01*
X206895828Y-99529209D01*
X206953260Y-99586802D01*
X207024093Y-99575310D01*
X207039521Y-99557618D01*
X207053563Y-99479164D01*
X206975196Y-99444267D01*
X206936036Y-99450283D01*
X206889961Y-99497737D01*
X206734306Y-99497737D01*
X206719491Y-99434323D01*
X206725888Y-99340977D01*
X206770876Y-99297249D01*
X206889820Y-99310704D01*
X207010305Y-99318605D01*
X207154765Y-99266666D01*
X207220025Y-99225935D01*
X207270404Y-99250939D01*
X207310428Y-99277562D01*
X207459725Y-99293820D01*
X207715749Y-99286084D01*
X207755089Y-99283725D01*
X207950508Y-99277525D01*
X208088066Y-99282386D01*
X208140073Y-99297558D01*
X208139921Y-99302115D01*
X208108842Y-99398311D01*
X208042251Y-99521033D01*
X207966993Y-99626658D01*
X207909914Y-99671560D01*
X207855732Y-99631104D01*
X207796524Y-99522640D01*
X207762521Y-99448561D01*
X207692951Y-99397600D01*
X207563535Y-99408993D01*
X207420214Y-99433708D01*
X207318635Y-99444267D01*
X207257484Y-99479164D01*
X207251344Y-99482668D01*
X207174077Y-99586325D01*
G37*
G36*
X206829842Y-97945472D02*
G01*
X206898840Y-98048893D01*
X206908052Y-98068140D01*
X206976527Y-98166720D01*
X207035410Y-98194212D01*
X207060431Y-98137332D01*
X207085662Y-98088193D01*
X207166499Y-98095310D01*
X207272587Y-98170901D01*
X207293334Y-98192310D01*
X207331904Y-98260071D01*
X207282734Y-98312089D01*
X207240473Y-98335453D01*
X207153244Y-98363755D01*
X207129661Y-98387224D01*
X207133719Y-98478272D01*
X207137570Y-98556603D01*
X207069317Y-98600573D01*
X206941933Y-98614908D01*
X206845466Y-98640345D01*
X206747903Y-98691734D01*
X206723715Y-98705339D01*
X206590091Y-98749771D01*
X206520102Y-98726150D01*
X206530348Y-98654839D01*
X206637428Y-98556203D01*
X206655533Y-98544144D01*
X206738825Y-98470178D01*
X206765324Y-98376537D01*
X206750159Y-98217806D01*
X206746755Y-98193243D01*
X206742912Y-98030015D01*
X206774237Y-97943302D01*
X206829842Y-97945472D01*
G37*
%TO.C,D6*%
X183487500Y-65293750D02*
X183487500Y-63293750D01*
X183487500Y-63293750D02*
X187387500Y-63293750D01*
X183487500Y-65293750D02*
X187387500Y-65293750D01*
%TD*%
M02*
