M48
; DRILL file {KiCad (6.0.4)} date Tue Oct 11 17:38:12 2022
; FORMAT={-:-/ absolute / inch / decimal}
; #@! TF.CreationDate,2022-10-11T17:38:12-05:00
; #@! TF.GenerationSoftware,Kicad,Pcbnew,(6.0.4)
; #@! TF.FileFunction,NonPlated,1,2,NPTH
FMAT,2
INCH
; #@! TA.AperFunction,NonPlated,NPTH,ComponentDrill
T1C0.0472
; #@! TA.AperFunction,NonPlated,NPTH,ComponentDrill
T2C0.0689
; #@! TA.AperFunction,NonPlated,NPTH,ComponentDrill
T3C0.1200
; #@! TA.AperFunction,NonPlated,NPTH,ComponentDrill
T4C0.1201
; #@! TA.AperFunction,NonPlated,NPTH,ComponentDrill
T5C0.1570
; #@! TA.AperFunction,NonPlated,NPTH,ComponentDrill
T6C0.1575
%
G90
G05
T1
X8.1966Y-3.3821
X8.4722Y-3.3821
T2
X3.2687Y-3.6562
X3.2687Y-4.4062
X3.2687Y-5.1562
X3.3625Y-2.1562
X3.3625Y-2.9062
X3.6687Y-3.6562
X3.6687Y-4.4062
X3.6687Y-5.1562
X3.7625Y-2.1562
X3.7625Y-2.9062
X4.1125Y-2.1562
X4.1125Y-2.9062
X4.1125Y-3.6562
X4.1125Y-4.4062
X4.1125Y-5.1562
X4.5125Y-2.1562
X4.5125Y-2.9062
X4.5125Y-3.6562
X4.5125Y-4.4062
X4.5125Y-5.1562
X4.8625Y-2.1562
X4.8625Y-2.9062
X4.8625Y-3.6562
X4.8625Y-4.4062
X4.8625Y-5.1562
X5.2625Y-2.1562
X5.2625Y-2.9062
X5.2625Y-3.6562
X5.2625Y-4.4062
X5.2625Y-5.1562
X5.6125Y-2.1562
X5.6125Y-2.9062
X5.6125Y-3.6562
X5.6125Y-4.4062
X6.0125Y-2.1562
X6.0125Y-2.9062
X6.0125Y-3.6562
X6.0125Y-4.4062
X6.3135Y-5.2713
X6.3625Y-2.25
X6.3625Y-3.0
X6.3625Y-3.75
X6.3625Y-4.5
X6.7101Y-5.3235
X6.7625Y-2.25
X6.7625Y-3.0
X6.7625Y-3.75
X6.7625Y-4.5
X7.1125Y-2.3438
X7.1125Y-3.0938
X7.1125Y-3.8438
X7.1125Y-4.5938
X7.5125Y-2.3438
X7.5125Y-3.0938
X7.5125Y-3.8438
X7.5125Y-4.5938
X7.5218Y-5.4304
X7.9184Y-5.4826
T3
X6.0817Y-4.9634
X7.0137Y-5.0861
T4
X3.3188Y-3.5562
X3.3188Y-4.3062
X3.3188Y-5.0562
X3.4125Y-2.0562
X3.4125Y-2.8062
X3.5688Y-3.4562
X3.5688Y-4.2062
X3.5688Y-4.9562
X3.6625Y-1.9563
X3.6625Y-2.7062
X4.1625Y-2.0562
X4.1625Y-2.8062
X4.1625Y-3.5562
X4.1625Y-4.3062
X4.1625Y-5.0562
X4.4125Y-1.9563
X4.4125Y-2.7062
X4.4125Y-3.4562
X4.4125Y-4.2062
X4.4125Y-4.9562
X4.9125Y-2.0562
X4.9125Y-2.8062
X4.9125Y-3.5562
X4.9125Y-4.3062
X4.9125Y-5.0562
X5.1625Y-1.9563
X5.1625Y-2.7062
X5.1625Y-3.4562
X5.1625Y-4.2062
X5.1625Y-4.9562
X5.6625Y-2.0562
X5.6625Y-2.8062
X5.6625Y-3.5562
X5.6625Y-4.3062
X5.9125Y-1.9563
X5.9125Y-2.7062
X5.9125Y-3.4562
X5.9125Y-4.2062
X6.3762Y-5.1787
X6.4125Y-2.15
X6.4125Y-2.9
X6.4125Y-3.65
X6.4125Y-4.4
X6.6371Y-5.1122
X6.6625Y-2.05
X6.6625Y-2.8
X6.6625Y-3.55
X6.6625Y-4.3
X7.1625Y-2.2437
X7.1625Y-2.9937
X7.1625Y-3.7437
X7.1625Y-4.4937
X7.4125Y-2.1437
X7.4125Y-2.8937
X7.4125Y-3.6437
X7.4125Y-4.3937
X7.5845Y-5.3378
X7.8454Y-5.2713
T5
X6.0036Y-5.5571
X6.9355Y-5.6798
T6
X3.4688Y-3.6562
X3.4688Y-4.4062
X3.4688Y-5.1562
X3.5625Y-2.1562
X3.5625Y-2.9062
X4.3125Y-2.1562
X4.3125Y-2.9062
X4.3125Y-3.6562
X4.3125Y-4.4062
X4.3125Y-5.1562
X5.0625Y-2.1562
X5.0625Y-2.9062
X5.0625Y-3.6562
X5.0625Y-4.4062
X5.0625Y-5.1562
X5.8125Y-2.1562
X5.8125Y-2.9062
X5.8125Y-3.6562
X5.8125Y-4.4062
X6.5118Y-5.2974
X6.5625Y-2.25
X6.5625Y-3.0
X6.5625Y-3.75
X6.5625Y-4.5
X7.3125Y-2.3438
X7.3125Y-3.0938
X7.3125Y-3.8438
X7.3125Y-4.5938
X7.7201Y-5.4565
T0
M30
