%TF.GenerationSoftware,KiCad,Pcbnew,(6.0.4)*%
%TF.CreationDate,2022-10-11T17:38:10-05:00*%
%TF.ProjectId,GummyKey_Left,47756d6d-794b-4657-995f-4c6566742e6b,rev?*%
%TF.SameCoordinates,Original*%
%TF.FileFunction,Legend,Top*%
%TF.FilePolarity,Positive*%
%FSLAX46Y46*%
G04 Gerber Fmt 4.6, Leading zero omitted, Abs format (unit mm)*
G04 Created by KiCad (PCBNEW (6.0.4)) date 2022-10-11 17:38:10*
%MOMM*%
%LPD*%
G01*
G04 APERTURE LIST*
%ADD10C,0.100000*%
%ADD11C,0.150000*%
%ADD12C,0.125000*%
%ADD13C,0.120000*%
G04 APERTURE END LIST*
D10*
X205946428Y-77500000D02*
X205982142Y-77392857D01*
X206017857Y-77357142D01*
X206089285Y-77321428D01*
X206196428Y-77321428D01*
X206267857Y-77357142D01*
X206303571Y-77392857D01*
X206339285Y-77464285D01*
X206339285Y-77750000D01*
X205589285Y-77750000D01*
X205589285Y-77500000D01*
X205625000Y-77428571D01*
X205660714Y-77392857D01*
X205732142Y-77357142D01*
X205803571Y-77357142D01*
X205875000Y-77392857D01*
X205910714Y-77428571D01*
X205946428Y-77500000D01*
X205946428Y-77750000D01*
X205589285Y-76857142D02*
X205589285Y-76714285D01*
X205625000Y-76642857D01*
X205696428Y-76571428D01*
X205839285Y-76535714D01*
X206089285Y-76535714D01*
X206232142Y-76571428D01*
X206303571Y-76642857D01*
X206339285Y-76714285D01*
X206339285Y-76857142D01*
X206303571Y-76928571D01*
X206232142Y-77000000D01*
X206089285Y-77035714D01*
X205839285Y-77035714D01*
X205696428Y-77000000D01*
X205625000Y-76928571D01*
X205589285Y-76857142D01*
X205589285Y-76321428D02*
X205589285Y-75892857D01*
X206339285Y-76107142D02*
X205589285Y-76107142D01*
X205589285Y-75750000D02*
X205589285Y-75321428D01*
X206339285Y-75535714D02*
X205589285Y-75535714D01*
X205589285Y-74928571D02*
X205589285Y-74785714D01*
X205625000Y-74714285D01*
X205696428Y-74642857D01*
X205839285Y-74607142D01*
X206089285Y-74607142D01*
X206232142Y-74642857D01*
X206303571Y-74714285D01*
X206339285Y-74785714D01*
X206339285Y-74928571D01*
X206303571Y-75000000D01*
X206232142Y-75071428D01*
X206089285Y-75107142D01*
X205839285Y-75107142D01*
X205696428Y-75071428D01*
X205625000Y-75000000D01*
X205589285Y-74928571D01*
X206339285Y-74285714D02*
X205589285Y-74285714D01*
X206125000Y-74035714D01*
X205589285Y-73785714D01*
X206339285Y-73785714D01*
X206303571Y-72892857D02*
X206339285Y-72785714D01*
X206339285Y-72607142D01*
X206303571Y-72535714D01*
X206267857Y-72500000D01*
X206196428Y-72464285D01*
X206125000Y-72464285D01*
X206053571Y-72500000D01*
X206017857Y-72535714D01*
X205982142Y-72607142D01*
X205946428Y-72750000D01*
X205910714Y-72821428D01*
X205875000Y-72857142D01*
X205803571Y-72892857D01*
X205732142Y-72892857D01*
X205660714Y-72857142D01*
X205625000Y-72821428D01*
X205589285Y-72750000D01*
X205589285Y-72571428D01*
X205625000Y-72464285D01*
X206339285Y-72142857D02*
X205589285Y-72142857D01*
X206339285Y-71785714D02*
X205589285Y-71785714D01*
X205589285Y-71607142D01*
X205625000Y-71500000D01*
X205696428Y-71428571D01*
X205767857Y-71392857D01*
X205910714Y-71357142D01*
X206017857Y-71357142D01*
X206160714Y-71392857D01*
X206232142Y-71428571D01*
X206303571Y-71500000D01*
X206339285Y-71607142D01*
X206339285Y-71785714D01*
X205946428Y-71035714D02*
X205946428Y-70785714D01*
X206339285Y-70678571D02*
X206339285Y-71035714D01*
X205589285Y-71035714D01*
X205589285Y-70678571D01*
X205589285Y-69785714D02*
X206196428Y-69785714D01*
X206267857Y-69750000D01*
X206303571Y-69714285D01*
X206339285Y-69642857D01*
X206339285Y-69500000D01*
X206303571Y-69428571D01*
X206267857Y-69392857D01*
X206196428Y-69357142D01*
X205589285Y-69357142D01*
X206339285Y-69000000D02*
X205589285Y-69000000D01*
X205589285Y-68714285D01*
X205625000Y-68642857D01*
X205660714Y-68607142D01*
X205732142Y-68571428D01*
X205839285Y-68571428D01*
X205910714Y-68607142D01*
X205946428Y-68642857D01*
X205982142Y-68714285D01*
X205982142Y-69000000D01*
X206267857Y-68250000D02*
X206303571Y-68214285D01*
X206339285Y-68250000D01*
X206303571Y-68285714D01*
X206267857Y-68250000D01*
X206339285Y-68250000D01*
X206053571Y-68250000D02*
X205625000Y-68285714D01*
X205589285Y-68250000D01*
X205625000Y-68214285D01*
X206053571Y-68250000D01*
X205589285Y-68250000D01*
D11*
%TO.C,K18*%
X184523214Y-90083630D02*
X184523214Y-89083630D01*
X185094642Y-90083630D02*
X184666071Y-89512202D01*
X185094642Y-89083630D02*
X184523214Y-89655059D01*
X186047023Y-90083630D02*
X185475595Y-90083630D01*
X185761309Y-90083630D02*
X185761309Y-89083630D01*
X185666071Y-89226488D01*
X185570833Y-89321726D01*
X185475595Y-89369345D01*
X186618452Y-89512202D02*
X186523214Y-89464583D01*
X186475595Y-89416964D01*
X186427976Y-89321726D01*
X186427976Y-89274107D01*
X186475595Y-89178869D01*
X186523214Y-89131250D01*
X186618452Y-89083630D01*
X186808928Y-89083630D01*
X186904166Y-89131250D01*
X186951785Y-89178869D01*
X186999404Y-89274107D01*
X186999404Y-89321726D01*
X186951785Y-89416964D01*
X186904166Y-89464583D01*
X186808928Y-89512202D01*
X186618452Y-89512202D01*
X186523214Y-89559821D01*
X186475595Y-89607440D01*
X186427976Y-89702678D01*
X186427976Y-89893154D01*
X186475595Y-89988392D01*
X186523214Y-90036011D01*
X186618452Y-90083630D01*
X186808928Y-90083630D01*
X186904166Y-90036011D01*
X186951785Y-89988392D01*
X186999404Y-89893154D01*
X186999404Y-89702678D01*
X186951785Y-89607440D01*
X186904166Y-89559821D01*
X186808928Y-89512202D01*
%TO.C,K1*%
X89749404Y-47221130D02*
X89749404Y-46221130D01*
X90320833Y-47221130D02*
X89892261Y-46649702D01*
X90320833Y-46221130D02*
X89749404Y-46792559D01*
X91273214Y-47221130D02*
X90701785Y-47221130D01*
X90987500Y-47221130D02*
X90987500Y-46221130D01*
X90892261Y-46363988D01*
X90797023Y-46459226D01*
X90701785Y-46506845D01*
%TO.C,K10*%
X146423214Y-66271130D02*
X146423214Y-65271130D01*
X146994642Y-66271130D02*
X146566071Y-65699702D01*
X146994642Y-65271130D02*
X146423214Y-65842559D01*
X147947023Y-66271130D02*
X147375595Y-66271130D01*
X147661309Y-66271130D02*
X147661309Y-65271130D01*
X147566071Y-65413988D01*
X147470833Y-65509226D01*
X147375595Y-65556845D01*
X148566071Y-65271130D02*
X148661309Y-65271130D01*
X148756547Y-65318750D01*
X148804166Y-65366369D01*
X148851785Y-65461607D01*
X148899404Y-65652083D01*
X148899404Y-65890178D01*
X148851785Y-66080654D01*
X148804166Y-66175892D01*
X148756547Y-66223511D01*
X148661309Y-66271130D01*
X148566071Y-66271130D01*
X148470833Y-66223511D01*
X148423214Y-66175892D01*
X148375595Y-66080654D01*
X148327976Y-65890178D01*
X148327976Y-65652083D01*
X148375595Y-65461607D01*
X148423214Y-65366369D01*
X148470833Y-65318750D01*
X148566071Y-65271130D01*
%TO.C,K2*%
X108799404Y-47221130D02*
X108799404Y-46221130D01*
X109370833Y-47221130D02*
X108942261Y-46649702D01*
X109370833Y-46221130D02*
X108799404Y-46792559D01*
X109751785Y-46316369D02*
X109799404Y-46268750D01*
X109894642Y-46221130D01*
X110132738Y-46221130D01*
X110227976Y-46268750D01*
X110275595Y-46316369D01*
X110323214Y-46411607D01*
X110323214Y-46506845D01*
X110275595Y-46649702D01*
X109704166Y-47221130D01*
X110323214Y-47221130D01*
%TO.C,K23*%
X165473214Y-106752380D02*
X165473214Y-105752380D01*
X166044642Y-106752380D02*
X165616071Y-106180952D01*
X166044642Y-105752380D02*
X165473214Y-106323809D01*
X166425595Y-105847619D02*
X166473214Y-105800000D01*
X166568452Y-105752380D01*
X166806547Y-105752380D01*
X166901785Y-105800000D01*
X166949404Y-105847619D01*
X166997023Y-105942857D01*
X166997023Y-106038095D01*
X166949404Y-106180952D01*
X166377976Y-106752380D01*
X166997023Y-106752380D01*
X167330357Y-105752380D02*
X167949404Y-105752380D01*
X167616071Y-106133333D01*
X167758928Y-106133333D01*
X167854166Y-106180952D01*
X167901785Y-106228571D01*
X167949404Y-106323809D01*
X167949404Y-106561904D01*
X167901785Y-106657142D01*
X167854166Y-106704761D01*
X167758928Y-106752380D01*
X167473214Y-106752380D01*
X167377976Y-106704761D01*
X167330357Y-106657142D01*
%TO.C,K27*%
X127373214Y-123421130D02*
X127373214Y-122421130D01*
X127944642Y-123421130D02*
X127516071Y-122849702D01*
X127944642Y-122421130D02*
X127373214Y-122992559D01*
X128325595Y-122516369D02*
X128373214Y-122468750D01*
X128468452Y-122421130D01*
X128706547Y-122421130D01*
X128801785Y-122468750D01*
X128849404Y-122516369D01*
X128897023Y-122611607D01*
X128897023Y-122706845D01*
X128849404Y-122849702D01*
X128277976Y-123421130D01*
X128897023Y-123421130D01*
X129230357Y-122421130D02*
X129897023Y-122421130D01*
X129468452Y-123421130D01*
%TO.C,K6*%
X184999404Y-51983630D02*
X184999404Y-50983630D01*
X185570833Y-51983630D02*
X185142261Y-51412202D01*
X185570833Y-50983630D02*
X184999404Y-51555059D01*
X186427976Y-50983630D02*
X186237500Y-50983630D01*
X186142261Y-51031250D01*
X186094642Y-51078869D01*
X185999404Y-51221726D01*
X185951785Y-51412202D01*
X185951785Y-51793154D01*
X185999404Y-51888392D01*
X186047023Y-51936011D01*
X186142261Y-51983630D01*
X186332738Y-51983630D01*
X186427976Y-51936011D01*
X186475595Y-51888392D01*
X186523214Y-51793154D01*
X186523214Y-51555059D01*
X186475595Y-51459821D01*
X186427976Y-51412202D01*
X186332738Y-51364583D01*
X186142261Y-51364583D01*
X186047023Y-51412202D01*
X185999404Y-51459821D01*
X185951785Y-51555059D01*
D12*
%TO.C,U1*%
X200401880Y-52536285D02*
X200178547Y-52179142D01*
X200019023Y-52536285D02*
X200019023Y-51786285D01*
X200274261Y-51786285D01*
X200338071Y-51822000D01*
X200369976Y-51857714D01*
X200401880Y-51929142D01*
X200401880Y-52036285D01*
X200369976Y-52107714D01*
X200338071Y-52143428D01*
X200274261Y-52179142D01*
X200019023Y-52179142D01*
X200657119Y-52322000D02*
X200976166Y-52322000D01*
X200593309Y-52536285D02*
X200816642Y-51786285D01*
X201039976Y-52536285D01*
X201199500Y-51786285D02*
X201359023Y-52536285D01*
X201486642Y-52000571D01*
X201614261Y-52536285D01*
X201773785Y-51786285D01*
X200169285Y-67550000D02*
X200488333Y-67550000D01*
X200105476Y-67764285D02*
X200328809Y-67014285D01*
X200552142Y-67764285D01*
X201126428Y-67764285D02*
X200743571Y-67764285D01*
X200935000Y-67764285D02*
X200935000Y-67014285D01*
X200871190Y-67121428D01*
X200807380Y-67192857D01*
X200743571Y-67228571D01*
X201892142Y-66978571D02*
X201317857Y-67942857D01*
X202338809Y-67371428D02*
X202115476Y-67371428D01*
X202115476Y-67764285D02*
X202115476Y-67014285D01*
X202434523Y-67014285D01*
X202976904Y-67014285D02*
X202849285Y-67014285D01*
X202785476Y-67050000D01*
X202753571Y-67085714D01*
X202689761Y-67192857D01*
X202657857Y-67335714D01*
X202657857Y-67621428D01*
X202689761Y-67692857D01*
X202721666Y-67728571D01*
X202785476Y-67764285D01*
X202913095Y-67764285D01*
X202976904Y-67728571D01*
X203008809Y-67692857D01*
X203040714Y-67621428D01*
X203040714Y-67442857D01*
X203008809Y-67371428D01*
X202976904Y-67335714D01*
X202913095Y-67300000D01*
X202785476Y-67300000D01*
X202721666Y-67335714D01*
X202689761Y-67371428D01*
X202657857Y-67442857D01*
X199931666Y-59349285D02*
X200155000Y-60099285D01*
X200378333Y-59349285D01*
X200984523Y-60027857D02*
X200952619Y-60063571D01*
X200856904Y-60099285D01*
X200793095Y-60099285D01*
X200697380Y-60063571D01*
X200633571Y-59992142D01*
X200601666Y-59920714D01*
X200569761Y-59777857D01*
X200569761Y-59670714D01*
X200601666Y-59527857D01*
X200633571Y-59456428D01*
X200697380Y-59385000D01*
X200793095Y-59349285D01*
X200856904Y-59349285D01*
X200952619Y-59385000D01*
X200984523Y-59420714D01*
X201654523Y-60027857D02*
X201622619Y-60063571D01*
X201526904Y-60099285D01*
X201463095Y-60099285D01*
X201367380Y-60063571D01*
X201303571Y-59992142D01*
X201271666Y-59920714D01*
X201239761Y-59777857D01*
X201239761Y-59670714D01*
X201271666Y-59527857D01*
X201303571Y-59456428D01*
X201367380Y-59385000D01*
X201463095Y-59349285D01*
X201526904Y-59349285D01*
X201622619Y-59385000D01*
X201654523Y-59420714D01*
X200497595Y-57679785D02*
X200274261Y-57322642D01*
X200114738Y-57679785D02*
X200114738Y-56929785D01*
X200369976Y-56929785D01*
X200433785Y-56965500D01*
X200465690Y-57001214D01*
X200497595Y-57072642D01*
X200497595Y-57179785D01*
X200465690Y-57251214D01*
X200433785Y-57286928D01*
X200369976Y-57322642D01*
X200114738Y-57322642D01*
X200752833Y-57644071D02*
X200848547Y-57679785D01*
X201008071Y-57679785D01*
X201071880Y-57644071D01*
X201103785Y-57608357D01*
X201135690Y-57536928D01*
X201135690Y-57465500D01*
X201103785Y-57394071D01*
X201071880Y-57358357D01*
X201008071Y-57322642D01*
X200880452Y-57286928D01*
X200816642Y-57251214D01*
X200784738Y-57215500D01*
X200752833Y-57144071D01*
X200752833Y-57072642D01*
X200784738Y-57001214D01*
X200816642Y-56965500D01*
X200880452Y-56929785D01*
X201039976Y-56929785D01*
X201135690Y-56965500D01*
X201327119Y-56929785D02*
X201709976Y-56929785D01*
X201518547Y-57679785D02*
X201518547Y-56929785D01*
X200169285Y-70100000D02*
X200488333Y-70100000D01*
X200105476Y-70314285D02*
X200328809Y-69564285D01*
X200552142Y-70314285D01*
X200903095Y-69564285D02*
X200966904Y-69564285D01*
X201030714Y-69600000D01*
X201062619Y-69635714D01*
X201094523Y-69707142D01*
X201126428Y-69850000D01*
X201126428Y-70028571D01*
X201094523Y-70171428D01*
X201062619Y-70242857D01*
X201030714Y-70278571D01*
X200966904Y-70314285D01*
X200903095Y-70314285D01*
X200839285Y-70278571D01*
X200807380Y-70242857D01*
X200775476Y-70171428D01*
X200743571Y-70028571D01*
X200743571Y-69850000D01*
X200775476Y-69707142D01*
X200807380Y-69635714D01*
X200839285Y-69600000D01*
X200903095Y-69564285D01*
X201892142Y-69528571D02*
X201317857Y-70492857D01*
X202338809Y-69921428D02*
X202115476Y-69921428D01*
X202115476Y-70314285D02*
X202115476Y-69564285D01*
X202434523Y-69564285D01*
X202625952Y-69564285D02*
X203072619Y-69564285D01*
X202785476Y-70314285D01*
X206982380Y-65078571D02*
X207078095Y-65114285D01*
X207237619Y-65114285D01*
X207301428Y-65078571D01*
X207333333Y-65042857D01*
X207365238Y-64971428D01*
X207365238Y-64900000D01*
X207333333Y-64828571D01*
X207301428Y-64792857D01*
X207237619Y-64757142D01*
X207110000Y-64721428D01*
X207046190Y-64685714D01*
X207014285Y-64650000D01*
X206982380Y-64578571D01*
X206982380Y-64507142D01*
X207014285Y-64435714D01*
X207046190Y-64400000D01*
X207110000Y-64364285D01*
X207269523Y-64364285D01*
X207365238Y-64400000D01*
X208035238Y-65042857D02*
X208003333Y-65078571D01*
X207907619Y-65114285D01*
X207843809Y-65114285D01*
X207748095Y-65078571D01*
X207684285Y-65007142D01*
X207652380Y-64935714D01*
X207620476Y-64792857D01*
X207620476Y-64685714D01*
X207652380Y-64542857D01*
X207684285Y-64471428D01*
X207748095Y-64400000D01*
X207843809Y-64364285D01*
X207907619Y-64364285D01*
X208003333Y-64400000D01*
X208035238Y-64435714D01*
X208641428Y-65114285D02*
X208322380Y-65114285D01*
X208322380Y-64364285D01*
X209343333Y-64328571D02*
X208769047Y-65292857D01*
X209566666Y-65114285D02*
X209566666Y-64364285D01*
X209726190Y-64364285D01*
X209821904Y-64400000D01*
X209885714Y-64471428D01*
X209917619Y-64542857D01*
X209949523Y-64685714D01*
X209949523Y-64792857D01*
X209917619Y-64935714D01*
X209885714Y-65007142D01*
X209821904Y-65078571D01*
X209726190Y-65114285D01*
X209566666Y-65114285D01*
X210364285Y-64364285D02*
X210428095Y-64364285D01*
X210491904Y-64400000D01*
X210523809Y-64435714D01*
X210555714Y-64507142D01*
X210587619Y-64650000D01*
X210587619Y-64828571D01*
X210555714Y-64971428D01*
X210523809Y-65042857D01*
X210491904Y-65078571D01*
X210428095Y-65114285D01*
X210364285Y-65114285D01*
X210300476Y-65078571D01*
X210268571Y-65042857D01*
X210236666Y-64971428D01*
X210204761Y-64828571D01*
X210204761Y-64650000D01*
X210236666Y-64507142D01*
X210268571Y-64435714D01*
X210300476Y-64400000D01*
X210364285Y-64364285D01*
X211353333Y-64328571D02*
X210779047Y-65292857D01*
X211512857Y-64364285D02*
X211927619Y-64364285D01*
X211704285Y-64650000D01*
X211800000Y-64650000D01*
X211863809Y-64685714D01*
X211895714Y-64721428D01*
X211927619Y-64792857D01*
X211927619Y-64971428D01*
X211895714Y-65042857D01*
X211863809Y-65078571D01*
X211800000Y-65114285D01*
X211608571Y-65114285D01*
X211544761Y-65078571D01*
X211512857Y-65042857D01*
X200169285Y-65050000D02*
X200488333Y-65050000D01*
X200105476Y-65264285D02*
X200328809Y-64514285D01*
X200552142Y-65264285D01*
X200743571Y-64585714D02*
X200775476Y-64550000D01*
X200839285Y-64514285D01*
X200998809Y-64514285D01*
X201062619Y-64550000D01*
X201094523Y-64585714D01*
X201126428Y-64657142D01*
X201126428Y-64728571D01*
X201094523Y-64835714D01*
X200711666Y-65264285D01*
X201126428Y-65264285D01*
X201892142Y-64478571D02*
X201317857Y-65442857D01*
X202338809Y-64871428D02*
X202115476Y-64871428D01*
X202115476Y-65264285D02*
X202115476Y-64514285D01*
X202434523Y-64514285D01*
X203008809Y-64514285D02*
X202689761Y-64514285D01*
X202657857Y-64871428D01*
X202689761Y-64835714D01*
X202753571Y-64800000D01*
X202913095Y-64800000D01*
X202976904Y-64835714D01*
X203008809Y-64871428D01*
X203040714Y-64942857D01*
X203040714Y-65121428D01*
X203008809Y-65192857D01*
X202976904Y-65228571D01*
X202913095Y-65264285D01*
X202753571Y-65264285D01*
X202689761Y-65228571D01*
X202657857Y-65192857D01*
X200472380Y-72864285D02*
X200089523Y-72864285D01*
X200280952Y-72864285D02*
X200280952Y-72114285D01*
X200217142Y-72221428D01*
X200153333Y-72292857D01*
X200089523Y-72328571D01*
X201078571Y-72114285D02*
X200759523Y-72114285D01*
X200727619Y-72471428D01*
X200759523Y-72435714D01*
X200823333Y-72400000D01*
X200982857Y-72400000D01*
X201046666Y-72435714D01*
X201078571Y-72471428D01*
X201110476Y-72542857D01*
X201110476Y-72721428D01*
X201078571Y-72792857D01*
X201046666Y-72828571D01*
X200982857Y-72864285D01*
X200823333Y-72864285D01*
X200759523Y-72828571D01*
X200727619Y-72792857D01*
X201876190Y-72078571D02*
X201301904Y-73042857D01*
X202322857Y-72471428D02*
X202418571Y-72507142D01*
X202450476Y-72542857D01*
X202482380Y-72614285D01*
X202482380Y-72721428D01*
X202450476Y-72792857D01*
X202418571Y-72828571D01*
X202354761Y-72864285D01*
X202099523Y-72864285D01*
X202099523Y-72114285D01*
X202322857Y-72114285D01*
X202386666Y-72150000D01*
X202418571Y-72185714D01*
X202450476Y-72257142D01*
X202450476Y-72328571D01*
X202418571Y-72400000D01*
X202386666Y-72435714D01*
X202322857Y-72471428D01*
X202099523Y-72471428D01*
X203120476Y-72864285D02*
X202737619Y-72864285D01*
X202929047Y-72864285D02*
X202929047Y-72114285D01*
X202865238Y-72221428D01*
X202801428Y-72292857D01*
X202737619Y-72328571D01*
X210444523Y-56950000D02*
X210380714Y-56914285D01*
X210285000Y-56914285D01*
X210189285Y-56950000D01*
X210125476Y-57021428D01*
X210093571Y-57092857D01*
X210061666Y-57235714D01*
X210061666Y-57342857D01*
X210093571Y-57485714D01*
X210125476Y-57557142D01*
X210189285Y-57628571D01*
X210285000Y-57664285D01*
X210348809Y-57664285D01*
X210444523Y-57628571D01*
X210476428Y-57592857D01*
X210476428Y-57342857D01*
X210348809Y-57342857D01*
X210763571Y-57664285D02*
X210763571Y-56914285D01*
X211146428Y-57664285D01*
X211146428Y-56914285D01*
X211465476Y-57664285D02*
X211465476Y-56914285D01*
X211625000Y-56914285D01*
X211720714Y-56950000D01*
X211784523Y-57021428D01*
X211816428Y-57092857D01*
X211848333Y-57235714D01*
X211848333Y-57342857D01*
X211816428Y-57485714D01*
X211784523Y-57557142D01*
X211720714Y-57628571D01*
X211625000Y-57664285D01*
X211465476Y-57664285D01*
X200374523Y-54360000D02*
X200310714Y-54324285D01*
X200215000Y-54324285D01*
X200119285Y-54360000D01*
X200055476Y-54431428D01*
X200023571Y-54502857D01*
X199991666Y-54645714D01*
X199991666Y-54752857D01*
X200023571Y-54895714D01*
X200055476Y-54967142D01*
X200119285Y-55038571D01*
X200215000Y-55074285D01*
X200278809Y-55074285D01*
X200374523Y-55038571D01*
X200406428Y-55002857D01*
X200406428Y-54752857D01*
X200278809Y-54752857D01*
X200693571Y-55074285D02*
X200693571Y-54324285D01*
X201076428Y-55074285D01*
X201076428Y-54324285D01*
X201395476Y-55074285D02*
X201395476Y-54324285D01*
X201555000Y-54324285D01*
X201650714Y-54360000D01*
X201714523Y-54431428D01*
X201746428Y-54502857D01*
X201778333Y-54645714D01*
X201778333Y-54752857D01*
X201746428Y-54895714D01*
X201714523Y-54967142D01*
X201650714Y-55038571D01*
X201555000Y-55074285D01*
X201395476Y-55074285D01*
X200472380Y-75414285D02*
X200089523Y-75414285D01*
X200280952Y-75414285D02*
X200280952Y-74664285D01*
X200217142Y-74771428D01*
X200153333Y-74842857D01*
X200089523Y-74878571D01*
X201046666Y-74914285D02*
X201046666Y-75414285D01*
X200887142Y-74628571D02*
X200727619Y-75164285D01*
X201142380Y-75164285D01*
X201876190Y-74628571D02*
X201301904Y-75592857D01*
X202322857Y-75021428D02*
X202418571Y-75057142D01*
X202450476Y-75092857D01*
X202482380Y-75164285D01*
X202482380Y-75271428D01*
X202450476Y-75342857D01*
X202418571Y-75378571D01*
X202354761Y-75414285D01*
X202099523Y-75414285D01*
X202099523Y-74664285D01*
X202322857Y-74664285D01*
X202386666Y-74700000D01*
X202418571Y-74735714D01*
X202450476Y-74807142D01*
X202450476Y-74878571D01*
X202418571Y-74950000D01*
X202386666Y-74985714D01*
X202322857Y-75021428D01*
X202099523Y-75021428D01*
X202705714Y-74664285D02*
X203120476Y-74664285D01*
X202897142Y-74950000D01*
X202992857Y-74950000D01*
X203056666Y-74985714D01*
X203088571Y-75021428D01*
X203120476Y-75092857D01*
X203120476Y-75271428D01*
X203088571Y-75342857D01*
X203056666Y-75378571D01*
X202992857Y-75414285D01*
X202801428Y-75414285D01*
X202737619Y-75378571D01*
X202705714Y-75342857D01*
X200472380Y-77964285D02*
X200089523Y-77964285D01*
X200280952Y-77964285D02*
X200280952Y-77214285D01*
X200217142Y-77321428D01*
X200153333Y-77392857D01*
X200089523Y-77428571D01*
X201046666Y-77214285D02*
X200919047Y-77214285D01*
X200855238Y-77250000D01*
X200823333Y-77285714D01*
X200759523Y-77392857D01*
X200727619Y-77535714D01*
X200727619Y-77821428D01*
X200759523Y-77892857D01*
X200791428Y-77928571D01*
X200855238Y-77964285D01*
X200982857Y-77964285D01*
X201046666Y-77928571D01*
X201078571Y-77892857D01*
X201110476Y-77821428D01*
X201110476Y-77642857D01*
X201078571Y-77571428D01*
X201046666Y-77535714D01*
X200982857Y-77500000D01*
X200855238Y-77500000D01*
X200791428Y-77535714D01*
X200759523Y-77571428D01*
X200727619Y-77642857D01*
X201876190Y-77178571D02*
X201301904Y-78142857D01*
X202322857Y-77571428D02*
X202418571Y-77607142D01*
X202450476Y-77642857D01*
X202482380Y-77714285D01*
X202482380Y-77821428D01*
X202450476Y-77892857D01*
X202418571Y-77928571D01*
X202354761Y-77964285D01*
X202099523Y-77964285D01*
X202099523Y-77214285D01*
X202322857Y-77214285D01*
X202386666Y-77250000D01*
X202418571Y-77285714D01*
X202450476Y-77357142D01*
X202450476Y-77428571D01*
X202418571Y-77500000D01*
X202386666Y-77535714D01*
X202322857Y-77571428D01*
X202099523Y-77571428D01*
X202737619Y-77285714D02*
X202769523Y-77250000D01*
X202833333Y-77214285D01*
X202992857Y-77214285D01*
X203056666Y-77250000D01*
X203088571Y-77285714D01*
X203120476Y-77357142D01*
X203120476Y-77428571D01*
X203088571Y-77535714D01*
X202705714Y-77964285D01*
X203120476Y-77964285D01*
X209540476Y-67614285D02*
X209540476Y-66864285D01*
X209700000Y-66864285D01*
X209795714Y-66900000D01*
X209859523Y-66971428D01*
X209891428Y-67042857D01*
X209923333Y-67185714D01*
X209923333Y-67292857D01*
X209891428Y-67435714D01*
X209859523Y-67507142D01*
X209795714Y-67578571D01*
X209700000Y-67614285D01*
X209540476Y-67614285D01*
X210497619Y-67114285D02*
X210497619Y-67614285D01*
X210338095Y-66828571D02*
X210178571Y-67364285D01*
X210593333Y-67364285D01*
X211327142Y-66828571D02*
X210752857Y-67792857D01*
X211837619Y-67114285D02*
X211837619Y-67614285D01*
X211678095Y-66828571D02*
X211518571Y-67364285D01*
X211933333Y-67364285D01*
X210444523Y-59400000D02*
X210380714Y-59364285D01*
X210285000Y-59364285D01*
X210189285Y-59400000D01*
X210125476Y-59471428D01*
X210093571Y-59542857D01*
X210061666Y-59685714D01*
X210061666Y-59792857D01*
X210093571Y-59935714D01*
X210125476Y-60007142D01*
X210189285Y-60078571D01*
X210285000Y-60114285D01*
X210348809Y-60114285D01*
X210444523Y-60078571D01*
X210476428Y-60042857D01*
X210476428Y-59792857D01*
X210348809Y-59792857D01*
X210763571Y-60114285D02*
X210763571Y-59364285D01*
X211146428Y-60114285D01*
X211146428Y-59364285D01*
X211465476Y-60114285D02*
X211465476Y-59364285D01*
X211625000Y-59364285D01*
X211720714Y-59400000D01*
X211784523Y-59471428D01*
X211816428Y-59542857D01*
X211848333Y-59685714D01*
X211848333Y-59792857D01*
X211816428Y-59935714D01*
X211784523Y-60007142D01*
X211720714Y-60078571D01*
X211625000Y-60114285D01*
X211465476Y-60114285D01*
X206966428Y-62578571D02*
X207062142Y-62614285D01*
X207221666Y-62614285D01*
X207285476Y-62578571D01*
X207317380Y-62542857D01*
X207349285Y-62471428D01*
X207349285Y-62400000D01*
X207317380Y-62328571D01*
X207285476Y-62292857D01*
X207221666Y-62257142D01*
X207094047Y-62221428D01*
X207030238Y-62185714D01*
X206998333Y-62150000D01*
X206966428Y-62078571D01*
X206966428Y-62007142D01*
X206998333Y-61935714D01*
X207030238Y-61900000D01*
X207094047Y-61864285D01*
X207253571Y-61864285D01*
X207349285Y-61900000D01*
X207636428Y-62614285D02*
X207636428Y-61864285D01*
X207795952Y-61864285D01*
X207891666Y-61900000D01*
X207955476Y-61971428D01*
X207987380Y-62042857D01*
X208019285Y-62185714D01*
X208019285Y-62292857D01*
X207987380Y-62435714D01*
X207955476Y-62507142D01*
X207891666Y-62578571D01*
X207795952Y-62614285D01*
X207636428Y-62614285D01*
X208274523Y-62400000D02*
X208593571Y-62400000D01*
X208210714Y-62614285D02*
X208434047Y-61864285D01*
X208657380Y-62614285D01*
X209359285Y-61828571D02*
X208785000Y-62792857D01*
X209582619Y-62614285D02*
X209582619Y-61864285D01*
X209742142Y-61864285D01*
X209837857Y-61900000D01*
X209901666Y-61971428D01*
X209933571Y-62042857D01*
X209965476Y-62185714D01*
X209965476Y-62292857D01*
X209933571Y-62435714D01*
X209901666Y-62507142D01*
X209837857Y-62578571D01*
X209742142Y-62614285D01*
X209582619Y-62614285D01*
X210603571Y-62614285D02*
X210220714Y-62614285D01*
X210412142Y-62614285D02*
X210412142Y-61864285D01*
X210348333Y-61971428D01*
X210284523Y-62042857D01*
X210220714Y-62078571D01*
X211369285Y-61828571D02*
X210795000Y-62792857D01*
X211560714Y-61935714D02*
X211592619Y-61900000D01*
X211656428Y-61864285D01*
X211815952Y-61864285D01*
X211879761Y-61900000D01*
X211911666Y-61935714D01*
X211943571Y-62007142D01*
X211943571Y-62078571D01*
X211911666Y-62185714D01*
X211528809Y-62614285D01*
X211943571Y-62614285D01*
X209923333Y-70092857D02*
X209891428Y-70128571D01*
X209795714Y-70164285D01*
X209731904Y-70164285D01*
X209636190Y-70128571D01*
X209572380Y-70057142D01*
X209540476Y-69985714D01*
X209508571Y-69842857D01*
X209508571Y-69735714D01*
X209540476Y-69592857D01*
X209572380Y-69521428D01*
X209636190Y-69450000D01*
X209731904Y-69414285D01*
X209795714Y-69414285D01*
X209891428Y-69450000D01*
X209923333Y-69485714D01*
X210497619Y-69414285D02*
X210370000Y-69414285D01*
X210306190Y-69450000D01*
X210274285Y-69485714D01*
X210210476Y-69592857D01*
X210178571Y-69735714D01*
X210178571Y-70021428D01*
X210210476Y-70092857D01*
X210242380Y-70128571D01*
X210306190Y-70164285D01*
X210433809Y-70164285D01*
X210497619Y-70128571D01*
X210529523Y-70092857D01*
X210561428Y-70021428D01*
X210561428Y-69842857D01*
X210529523Y-69771428D01*
X210497619Y-69735714D01*
X210433809Y-69700000D01*
X210306190Y-69700000D01*
X210242380Y-69735714D01*
X210210476Y-69771428D01*
X210178571Y-69842857D01*
X211327142Y-69378571D02*
X210752857Y-70342857D01*
X211869523Y-69414285D02*
X211550476Y-69414285D01*
X211518571Y-69771428D01*
X211550476Y-69735714D01*
X211614285Y-69700000D01*
X211773809Y-69700000D01*
X211837619Y-69735714D01*
X211869523Y-69771428D01*
X211901428Y-69842857D01*
X211901428Y-70021428D01*
X211869523Y-70092857D01*
X211837619Y-70128571D01*
X211773809Y-70164285D01*
X211614285Y-70164285D01*
X211550476Y-70128571D01*
X211518571Y-70092857D01*
X209572380Y-74871428D02*
X209795714Y-74871428D01*
X209891428Y-75264285D02*
X209572380Y-75264285D01*
X209572380Y-74514285D01*
X209891428Y-74514285D01*
X210465714Y-74514285D02*
X210338095Y-74514285D01*
X210274285Y-74550000D01*
X210242380Y-74585714D01*
X210178571Y-74692857D01*
X210146666Y-74835714D01*
X210146666Y-75121428D01*
X210178571Y-75192857D01*
X210210476Y-75228571D01*
X210274285Y-75264285D01*
X210401904Y-75264285D01*
X210465714Y-75228571D01*
X210497619Y-75192857D01*
X210529523Y-75121428D01*
X210529523Y-74942857D01*
X210497619Y-74871428D01*
X210465714Y-74835714D01*
X210401904Y-74800000D01*
X210274285Y-74800000D01*
X210210476Y-74835714D01*
X210178571Y-74871428D01*
X210146666Y-74942857D01*
X211295238Y-74478571D02*
X210720952Y-75442857D01*
X211454761Y-74514285D02*
X211901428Y-74514285D01*
X211614285Y-75264285D01*
X209763809Y-79921428D02*
X209859523Y-79957142D01*
X209891428Y-79992857D01*
X209923333Y-80064285D01*
X209923333Y-80171428D01*
X209891428Y-80242857D01*
X209859523Y-80278571D01*
X209795714Y-80314285D01*
X209540476Y-80314285D01*
X209540476Y-79564285D01*
X209763809Y-79564285D01*
X209827619Y-79600000D01*
X209859523Y-79635714D01*
X209891428Y-79707142D01*
X209891428Y-79778571D01*
X209859523Y-79850000D01*
X209827619Y-79885714D01*
X209763809Y-79921428D01*
X209540476Y-79921428D01*
X210529523Y-79564285D02*
X210210476Y-79564285D01*
X210178571Y-79921428D01*
X210210476Y-79885714D01*
X210274285Y-79850000D01*
X210433809Y-79850000D01*
X210497619Y-79885714D01*
X210529523Y-79921428D01*
X210561428Y-79992857D01*
X210561428Y-80171428D01*
X210529523Y-80242857D01*
X210497619Y-80278571D01*
X210433809Y-80314285D01*
X210274285Y-80314285D01*
X210210476Y-80278571D01*
X210178571Y-80242857D01*
X211327142Y-79528571D02*
X210752857Y-80492857D01*
X211582380Y-80314285D02*
X211710000Y-80314285D01*
X211773809Y-80278571D01*
X211805714Y-80242857D01*
X211869523Y-80135714D01*
X211901428Y-79992857D01*
X211901428Y-79707142D01*
X211869523Y-79635714D01*
X211837619Y-79600000D01*
X211773809Y-79564285D01*
X211646190Y-79564285D01*
X211582380Y-79600000D01*
X211550476Y-79635714D01*
X211518571Y-79707142D01*
X211518571Y-79885714D01*
X211550476Y-79957142D01*
X211582380Y-79992857D01*
X211646190Y-80028571D01*
X211773809Y-80028571D01*
X211837619Y-79992857D01*
X211869523Y-79957142D01*
X211901428Y-79885714D01*
X209540476Y-72714285D02*
X209540476Y-71964285D01*
X209700000Y-71964285D01*
X209795714Y-72000000D01*
X209859523Y-72071428D01*
X209891428Y-72142857D01*
X209923333Y-72285714D01*
X209923333Y-72392857D01*
X209891428Y-72535714D01*
X209859523Y-72607142D01*
X209795714Y-72678571D01*
X209700000Y-72714285D01*
X209540476Y-72714285D01*
X210146666Y-71964285D02*
X210593333Y-71964285D01*
X210306190Y-72714285D01*
X211327142Y-71928571D02*
X210752857Y-72892857D01*
X211837619Y-71964285D02*
X211710000Y-71964285D01*
X211646190Y-72000000D01*
X211614285Y-72035714D01*
X211550476Y-72142857D01*
X211518571Y-72285714D01*
X211518571Y-72571428D01*
X211550476Y-72642857D01*
X211582380Y-72678571D01*
X211646190Y-72714285D01*
X211773809Y-72714285D01*
X211837619Y-72678571D01*
X211869523Y-72642857D01*
X211901428Y-72571428D01*
X211901428Y-72392857D01*
X211869523Y-72321428D01*
X211837619Y-72285714D01*
X211773809Y-72250000D01*
X211646190Y-72250000D01*
X211582380Y-72285714D01*
X211550476Y-72321428D01*
X211518571Y-72392857D01*
X200169285Y-62550000D02*
X200488333Y-62550000D01*
X200105476Y-62764285D02*
X200328809Y-62014285D01*
X200552142Y-62764285D01*
X200711666Y-62014285D02*
X201126428Y-62014285D01*
X200903095Y-62300000D01*
X200998809Y-62300000D01*
X201062619Y-62335714D01*
X201094523Y-62371428D01*
X201126428Y-62442857D01*
X201126428Y-62621428D01*
X201094523Y-62692857D01*
X201062619Y-62728571D01*
X200998809Y-62764285D01*
X200807380Y-62764285D01*
X200743571Y-62728571D01*
X200711666Y-62692857D01*
X201892142Y-61978571D02*
X201317857Y-62942857D01*
X202338809Y-62371428D02*
X202115476Y-62371428D01*
X202115476Y-62764285D02*
X202115476Y-62014285D01*
X202434523Y-62014285D01*
X202976904Y-62264285D02*
X202976904Y-62764285D01*
X202817380Y-61978571D02*
X202657857Y-62514285D01*
X203072619Y-62514285D01*
X209763809Y-77421428D02*
X209859523Y-77457142D01*
X209891428Y-77492857D01*
X209923333Y-77564285D01*
X209923333Y-77671428D01*
X209891428Y-77742857D01*
X209859523Y-77778571D01*
X209795714Y-77814285D01*
X209540476Y-77814285D01*
X209540476Y-77064285D01*
X209763809Y-77064285D01*
X209827619Y-77100000D01*
X209859523Y-77135714D01*
X209891428Y-77207142D01*
X209891428Y-77278571D01*
X209859523Y-77350000D01*
X209827619Y-77385714D01*
X209763809Y-77421428D01*
X209540476Y-77421428D01*
X210497619Y-77314285D02*
X210497619Y-77814285D01*
X210338095Y-77028571D02*
X210178571Y-77564285D01*
X210593333Y-77564285D01*
X211327142Y-77028571D02*
X210752857Y-77992857D01*
X211646190Y-77385714D02*
X211582380Y-77350000D01*
X211550476Y-77314285D01*
X211518571Y-77242857D01*
X211518571Y-77207142D01*
X211550476Y-77135714D01*
X211582380Y-77100000D01*
X211646190Y-77064285D01*
X211773809Y-77064285D01*
X211837619Y-77100000D01*
X211869523Y-77135714D01*
X211901428Y-77207142D01*
X211901428Y-77242857D01*
X211869523Y-77314285D01*
X211837619Y-77350000D01*
X211773809Y-77385714D01*
X211646190Y-77385714D01*
X211582380Y-77421428D01*
X211550476Y-77457142D01*
X211518571Y-77528571D01*
X211518571Y-77671428D01*
X211550476Y-77742857D01*
X211582380Y-77778571D01*
X211646190Y-77814285D01*
X211773809Y-77814285D01*
X211837619Y-77778571D01*
X211869523Y-77742857D01*
X211901428Y-77671428D01*
X211901428Y-77528571D01*
X211869523Y-77457142D01*
X211837619Y-77421428D01*
X211773809Y-77385714D01*
X208336428Y-55114285D02*
X208336428Y-54364285D01*
X208495952Y-54364285D01*
X208591666Y-54400000D01*
X208655476Y-54471428D01*
X208687380Y-54542857D01*
X208719285Y-54685714D01*
X208719285Y-54792857D01*
X208687380Y-54935714D01*
X208655476Y-55007142D01*
X208591666Y-55078571D01*
X208495952Y-55114285D01*
X208336428Y-55114285D01*
X208974523Y-54435714D02*
X209006428Y-54400000D01*
X209070238Y-54364285D01*
X209229761Y-54364285D01*
X209293571Y-54400000D01*
X209325476Y-54435714D01*
X209357380Y-54507142D01*
X209357380Y-54578571D01*
X209325476Y-54685714D01*
X208942619Y-55114285D01*
X209357380Y-55114285D01*
X210123095Y-54328571D02*
X209548809Y-55292857D01*
X210729285Y-55114285D02*
X210505952Y-54757142D01*
X210346428Y-55114285D02*
X210346428Y-54364285D01*
X210601666Y-54364285D01*
X210665476Y-54400000D01*
X210697380Y-54435714D01*
X210729285Y-54507142D01*
X210729285Y-54614285D01*
X210697380Y-54685714D01*
X210665476Y-54721428D01*
X210601666Y-54757142D01*
X210346428Y-54757142D01*
X210952619Y-54364285D02*
X211399285Y-55114285D01*
X211399285Y-54364285D02*
X210952619Y-55114285D01*
X212005476Y-55114285D02*
X211622619Y-55114285D01*
X211814047Y-55114285D02*
X211814047Y-54364285D01*
X211750238Y-54471428D01*
X211686428Y-54542857D01*
X211622619Y-54578571D01*
X208416190Y-52564285D02*
X208416190Y-51814285D01*
X208575714Y-51814285D01*
X208671428Y-51850000D01*
X208735238Y-51921428D01*
X208767142Y-51992857D01*
X208799047Y-52135714D01*
X208799047Y-52242857D01*
X208767142Y-52385714D01*
X208735238Y-52457142D01*
X208671428Y-52528571D01*
X208575714Y-52564285D01*
X208416190Y-52564285D01*
X209022380Y-51814285D02*
X209437142Y-51814285D01*
X209213809Y-52100000D01*
X209309523Y-52100000D01*
X209373333Y-52135714D01*
X209405238Y-52171428D01*
X209437142Y-52242857D01*
X209437142Y-52421428D01*
X209405238Y-52492857D01*
X209373333Y-52528571D01*
X209309523Y-52564285D01*
X209118095Y-52564285D01*
X209054285Y-52528571D01*
X209022380Y-52492857D01*
X210202857Y-51778571D02*
X209628571Y-52742857D01*
X210330476Y-51814285D02*
X210713333Y-51814285D01*
X210521904Y-52564285D02*
X210521904Y-51814285D01*
X210872857Y-51814285D02*
X211319523Y-52564285D01*
X211319523Y-51814285D02*
X210872857Y-52564285D01*
X211702380Y-51814285D02*
X211766190Y-51814285D01*
X211830000Y-51850000D01*
X211861904Y-51885714D01*
X211893809Y-51957142D01*
X211925714Y-52100000D01*
X211925714Y-52278571D01*
X211893809Y-52421428D01*
X211861904Y-52492857D01*
X211830000Y-52528571D01*
X211766190Y-52564285D01*
X211702380Y-52564285D01*
X211638571Y-52528571D01*
X211606666Y-52492857D01*
X211574761Y-52421428D01*
X211542857Y-52278571D01*
X211542857Y-52100000D01*
X211574761Y-51957142D01*
X211606666Y-51885714D01*
X211638571Y-51850000D01*
X211702380Y-51814285D01*
X200472380Y-80464285D02*
X200089523Y-80464285D01*
X200280952Y-80464285D02*
X200280952Y-79714285D01*
X200217142Y-79821428D01*
X200153333Y-79892857D01*
X200089523Y-79928571D01*
X200887142Y-79714285D02*
X200950952Y-79714285D01*
X201014761Y-79750000D01*
X201046666Y-79785714D01*
X201078571Y-79857142D01*
X201110476Y-80000000D01*
X201110476Y-80178571D01*
X201078571Y-80321428D01*
X201046666Y-80392857D01*
X201014761Y-80428571D01*
X200950952Y-80464285D01*
X200887142Y-80464285D01*
X200823333Y-80428571D01*
X200791428Y-80392857D01*
X200759523Y-80321428D01*
X200727619Y-80178571D01*
X200727619Y-80000000D01*
X200759523Y-79857142D01*
X200791428Y-79785714D01*
X200823333Y-79750000D01*
X200887142Y-79714285D01*
X201876190Y-79678571D02*
X201301904Y-80642857D01*
X202322857Y-80071428D02*
X202418571Y-80107142D01*
X202450476Y-80142857D01*
X202482380Y-80214285D01*
X202482380Y-80321428D01*
X202450476Y-80392857D01*
X202418571Y-80428571D01*
X202354761Y-80464285D01*
X202099523Y-80464285D01*
X202099523Y-79714285D01*
X202322857Y-79714285D01*
X202386666Y-79750000D01*
X202418571Y-79785714D01*
X202450476Y-79857142D01*
X202450476Y-79928571D01*
X202418571Y-80000000D01*
X202386666Y-80035714D01*
X202322857Y-80071428D01*
X202099523Y-80071428D01*
X203056666Y-79714285D02*
X202929047Y-79714285D01*
X202865238Y-79750000D01*
X202833333Y-79785714D01*
X202769523Y-79892857D01*
X202737619Y-80035714D01*
X202737619Y-80321428D01*
X202769523Y-80392857D01*
X202801428Y-80428571D01*
X202865238Y-80464285D01*
X202992857Y-80464285D01*
X203056666Y-80428571D01*
X203088571Y-80392857D01*
X203120476Y-80321428D01*
X203120476Y-80142857D01*
X203088571Y-80071428D01*
X203056666Y-80035714D01*
X202992857Y-80000000D01*
X202865238Y-80000000D01*
X202801428Y-80035714D01*
X202769523Y-80071428D01*
X202737619Y-80142857D01*
D11*
%TO.C,K29*%
X198398649Y-130373368D02*
X198268123Y-131364813D01*
X197832109Y-130298781D02*
X198182428Y-130921261D01*
X197701583Y-131290226D02*
X198342710Y-130798273D01*
X197336321Y-131146079D02*
X197282894Y-131187075D01*
X197182255Y-131221855D01*
X196946197Y-131190778D01*
X196857989Y-131131135D01*
X196816993Y-131077708D01*
X196782212Y-130977069D01*
X196794643Y-130882646D01*
X196860502Y-130747226D01*
X197501628Y-130255273D01*
X196887876Y-130174471D01*
X196415760Y-130112315D02*
X196226913Y-130087453D01*
X196126274Y-130122234D01*
X196072847Y-130163230D01*
X195959777Y-130292434D01*
X195887703Y-130475065D01*
X195837979Y-130852758D01*
X195872760Y-130953397D01*
X195913756Y-131006824D01*
X196001964Y-131066467D01*
X196190810Y-131091329D01*
X196291449Y-131056549D01*
X196344876Y-131015553D01*
X196404519Y-130927345D01*
X196435597Y-130691286D01*
X196400816Y-130590648D01*
X196359820Y-130537220D01*
X196271612Y-130477578D01*
X196082765Y-130452716D01*
X195982127Y-130487496D01*
X195928699Y-130528492D01*
X195869057Y-130616700D01*
%TO.C,K28*%
X167707234Y-126332766D02*
X167576708Y-127324211D01*
X167140694Y-126258179D02*
X167491013Y-126880659D01*
X167010168Y-127249624D02*
X167651295Y-126757671D01*
X166644906Y-127105477D02*
X166591479Y-127146473D01*
X166490840Y-127181253D01*
X166254782Y-127150176D01*
X166166574Y-127090533D01*
X166125578Y-127037106D01*
X166090797Y-126936467D01*
X166103228Y-126842044D01*
X166169087Y-126706624D01*
X166810213Y-126214671D01*
X166196461Y-126133869D01*
X165555335Y-126625822D02*
X165643543Y-126685465D01*
X165684539Y-126738892D01*
X165719319Y-126839531D01*
X165713104Y-126886743D01*
X165653461Y-126974951D01*
X165600034Y-127015947D01*
X165499395Y-127050727D01*
X165310549Y-127025865D01*
X165222341Y-126966222D01*
X165181345Y-126912795D01*
X165146564Y-126812156D01*
X165152780Y-126764945D01*
X165212422Y-126676737D01*
X165265849Y-126635741D01*
X165366488Y-126600960D01*
X165555335Y-126625822D01*
X165655974Y-126591042D01*
X165709401Y-126550046D01*
X165769044Y-126461838D01*
X165793906Y-126272991D01*
X165759125Y-126172352D01*
X165718129Y-126118925D01*
X165629921Y-126059282D01*
X165441075Y-126034420D01*
X165340436Y-126069201D01*
X165287009Y-126110197D01*
X165227366Y-126198405D01*
X165202504Y-126387251D01*
X165237284Y-126487890D01*
X165278281Y-126541317D01*
X165366488Y-126600960D01*
%TO.C,K24*%
X184523214Y-109133630D02*
X184523214Y-108133630D01*
X185094642Y-109133630D02*
X184666071Y-108562202D01*
X185094642Y-108133630D02*
X184523214Y-108705059D01*
X185475595Y-108228869D02*
X185523214Y-108181250D01*
X185618452Y-108133630D01*
X185856547Y-108133630D01*
X185951785Y-108181250D01*
X185999404Y-108228869D01*
X186047023Y-108324107D01*
X186047023Y-108419345D01*
X185999404Y-108562202D01*
X185427976Y-109133630D01*
X186047023Y-109133630D01*
X186904166Y-108466964D02*
X186904166Y-109133630D01*
X186666071Y-108086011D02*
X186427976Y-108800297D01*
X187047023Y-108800297D01*
%TO.C,K25*%
X86891964Y-123421130D02*
X86891964Y-122421130D01*
X87463392Y-123421130D02*
X87034821Y-122849702D01*
X87463392Y-122421130D02*
X86891964Y-122992559D01*
X87844345Y-122516369D02*
X87891964Y-122468750D01*
X87987202Y-122421130D01*
X88225297Y-122421130D01*
X88320535Y-122468750D01*
X88368154Y-122516369D01*
X88415773Y-122611607D01*
X88415773Y-122706845D01*
X88368154Y-122849702D01*
X87796726Y-123421130D01*
X88415773Y-123421130D01*
X89320535Y-122421130D02*
X88844345Y-122421130D01*
X88796726Y-122897321D01*
X88844345Y-122849702D01*
X88939583Y-122802083D01*
X89177678Y-122802083D01*
X89272916Y-122849702D01*
X89320535Y-122897321D01*
X89368154Y-122992559D01*
X89368154Y-123230654D01*
X89320535Y-123325892D01*
X89272916Y-123373511D01*
X89177678Y-123421130D01*
X88939583Y-123421130D01*
X88844345Y-123373511D01*
X88796726Y-123325892D01*
%TO.C,K9*%
X127849404Y-66271130D02*
X127849404Y-65271130D01*
X128420833Y-66271130D02*
X127992261Y-65699702D01*
X128420833Y-65271130D02*
X127849404Y-65842559D01*
X128897023Y-66271130D02*
X129087500Y-66271130D01*
X129182738Y-66223511D01*
X129230357Y-66175892D01*
X129325595Y-66033035D01*
X129373214Y-65842559D01*
X129373214Y-65461607D01*
X129325595Y-65366369D01*
X129277976Y-65318750D01*
X129182738Y-65271130D01*
X128992261Y-65271130D01*
X128897023Y-65318750D01*
X128849404Y-65366369D01*
X128801785Y-65461607D01*
X128801785Y-65699702D01*
X128849404Y-65794940D01*
X128897023Y-65842559D01*
X128992261Y-65890178D01*
X129182738Y-65890178D01*
X129277976Y-65842559D01*
X129325595Y-65794940D01*
X129373214Y-65699702D01*
%TO.C,K5*%
X165949404Y-49602380D02*
X165949404Y-48602380D01*
X166520833Y-49602380D02*
X166092261Y-49030952D01*
X166520833Y-48602380D02*
X165949404Y-49173809D01*
X167425595Y-48602380D02*
X166949404Y-48602380D01*
X166901785Y-49078571D01*
X166949404Y-49030952D01*
X167044642Y-48983333D01*
X167282738Y-48983333D01*
X167377976Y-49030952D01*
X167425595Y-49078571D01*
X167473214Y-49173809D01*
X167473214Y-49411904D01*
X167425595Y-49507142D01*
X167377976Y-49554761D01*
X167282738Y-49602380D01*
X167044642Y-49602380D01*
X166949404Y-49554761D01*
X166901785Y-49507142D01*
%TO.C,K20*%
X108323214Y-104371130D02*
X108323214Y-103371130D01*
X108894642Y-104371130D02*
X108466071Y-103799702D01*
X108894642Y-103371130D02*
X108323214Y-103942559D01*
X109275595Y-103466369D02*
X109323214Y-103418750D01*
X109418452Y-103371130D01*
X109656547Y-103371130D01*
X109751785Y-103418750D01*
X109799404Y-103466369D01*
X109847023Y-103561607D01*
X109847023Y-103656845D01*
X109799404Y-103799702D01*
X109227976Y-104371130D01*
X109847023Y-104371130D01*
X110466071Y-103371130D02*
X110561309Y-103371130D01*
X110656547Y-103418750D01*
X110704166Y-103466369D01*
X110751785Y-103561607D01*
X110799404Y-103752083D01*
X110799404Y-103990178D01*
X110751785Y-104180654D01*
X110704166Y-104275892D01*
X110656547Y-104323511D01*
X110561309Y-104371130D01*
X110466071Y-104371130D01*
X110370833Y-104323511D01*
X110323214Y-104275892D01*
X110275595Y-104180654D01*
X110227976Y-103990178D01*
X110227976Y-103752083D01*
X110275595Y-103561607D01*
X110323214Y-103466369D01*
X110370833Y-103418750D01*
X110466071Y-103371130D01*
%TO.C,K22*%
X146423214Y-104371130D02*
X146423214Y-103371130D01*
X146994642Y-104371130D02*
X146566071Y-103799702D01*
X146994642Y-103371130D02*
X146423214Y-103942559D01*
X147375595Y-103466369D02*
X147423214Y-103418750D01*
X147518452Y-103371130D01*
X147756547Y-103371130D01*
X147851785Y-103418750D01*
X147899404Y-103466369D01*
X147947023Y-103561607D01*
X147947023Y-103656845D01*
X147899404Y-103799702D01*
X147327976Y-104371130D01*
X147947023Y-104371130D01*
X148327976Y-103466369D02*
X148375595Y-103418750D01*
X148470833Y-103371130D01*
X148708928Y-103371130D01*
X148804166Y-103418750D01*
X148851785Y-103466369D01*
X148899404Y-103561607D01*
X148899404Y-103656845D01*
X148851785Y-103799702D01*
X148280357Y-104371130D01*
X148899404Y-104371130D01*
%TO.C,K11*%
X165473214Y-68652380D02*
X165473214Y-67652380D01*
X166044642Y-68652380D02*
X165616071Y-68080952D01*
X166044642Y-67652380D02*
X165473214Y-68223809D01*
X166997023Y-68652380D02*
X166425595Y-68652380D01*
X166711309Y-68652380D02*
X166711309Y-67652380D01*
X166616071Y-67795238D01*
X166520833Y-67890476D01*
X166425595Y-67938095D01*
X167949404Y-68652380D02*
X167377976Y-68652380D01*
X167663690Y-68652380D02*
X167663690Y-67652380D01*
X167568452Y-67795238D01*
X167473214Y-67890476D01*
X167377976Y-67938095D01*
%TO.C,SW1*%
X200746130Y-89358630D02*
X200269940Y-89691964D01*
X200746130Y-89930059D02*
X199746130Y-89930059D01*
X199746130Y-89549107D01*
X199793750Y-89453869D01*
X199841369Y-89406250D01*
X199936607Y-89358630D01*
X200079464Y-89358630D01*
X200174702Y-89406250D01*
X200222321Y-89453869D01*
X200269940Y-89549107D01*
X200269940Y-89930059D01*
X200222321Y-88930059D02*
X200222321Y-88596726D01*
X200746130Y-88453869D02*
X200746130Y-88930059D01*
X199746130Y-88930059D01*
X199746130Y-88453869D01*
X200698511Y-88072916D02*
X200746130Y-87930059D01*
X200746130Y-87691964D01*
X200698511Y-87596726D01*
X200650892Y-87549107D01*
X200555654Y-87501488D01*
X200460416Y-87501488D01*
X200365178Y-87549107D01*
X200317559Y-87596726D01*
X200269940Y-87691964D01*
X200222321Y-87882440D01*
X200174702Y-87977678D01*
X200127083Y-88025297D01*
X200031845Y-88072916D01*
X199936607Y-88072916D01*
X199841369Y-88025297D01*
X199793750Y-87977678D01*
X199746130Y-87882440D01*
X199746130Y-87644345D01*
X199793750Y-87501488D01*
X200222321Y-87072916D02*
X200222321Y-86739583D01*
X200746130Y-86596726D02*
X200746130Y-87072916D01*
X199746130Y-87072916D01*
X199746130Y-86596726D01*
X199746130Y-86311011D02*
X199746130Y-85739583D01*
X200746130Y-86025297D02*
X199746130Y-86025297D01*
%TO.C,K17*%
X165473214Y-87702380D02*
X165473214Y-86702380D01*
X166044642Y-87702380D02*
X165616071Y-87130952D01*
X166044642Y-86702380D02*
X165473214Y-87273809D01*
X166997023Y-87702380D02*
X166425595Y-87702380D01*
X166711309Y-87702380D02*
X166711309Y-86702380D01*
X166616071Y-86845238D01*
X166520833Y-86940476D01*
X166425595Y-86988095D01*
X167330357Y-86702380D02*
X167997023Y-86702380D01*
X167568452Y-87702380D01*
%TO.C,K3*%
X127849404Y-47221130D02*
X127849404Y-46221130D01*
X128420833Y-47221130D02*
X127992261Y-46649702D01*
X128420833Y-46221130D02*
X127849404Y-46792559D01*
X128754166Y-46221130D02*
X129373214Y-46221130D01*
X129039880Y-46602083D01*
X129182738Y-46602083D01*
X129277976Y-46649702D01*
X129325595Y-46697321D01*
X129373214Y-46792559D01*
X129373214Y-47030654D01*
X129325595Y-47125892D01*
X129277976Y-47173511D01*
X129182738Y-47221130D01*
X128897023Y-47221130D01*
X128801785Y-47173511D01*
X128754166Y-47125892D01*
%TO.C,K14*%
X108323214Y-85321130D02*
X108323214Y-84321130D01*
X108894642Y-85321130D02*
X108466071Y-84749702D01*
X108894642Y-84321130D02*
X108323214Y-84892559D01*
X109847023Y-85321130D02*
X109275595Y-85321130D01*
X109561309Y-85321130D02*
X109561309Y-84321130D01*
X109466071Y-84463988D01*
X109370833Y-84559226D01*
X109275595Y-84606845D01*
X110704166Y-84654464D02*
X110704166Y-85321130D01*
X110466071Y-84273511D02*
X110227976Y-84987797D01*
X110847023Y-84987797D01*
%TO.C,K7*%
X89749404Y-66271130D02*
X89749404Y-65271130D01*
X90320833Y-66271130D02*
X89892261Y-65699702D01*
X90320833Y-65271130D02*
X89749404Y-65842559D01*
X90654166Y-65271130D02*
X91320833Y-65271130D01*
X90892261Y-66271130D01*
%TO.C,K15*%
X127373214Y-85321130D02*
X127373214Y-84321130D01*
X127944642Y-85321130D02*
X127516071Y-84749702D01*
X127944642Y-84321130D02*
X127373214Y-84892559D01*
X128897023Y-85321130D02*
X128325595Y-85321130D01*
X128611309Y-85321130D02*
X128611309Y-84321130D01*
X128516071Y-84463988D01*
X128420833Y-84559226D01*
X128325595Y-84606845D01*
X129801785Y-84321130D02*
X129325595Y-84321130D01*
X129277976Y-84797321D01*
X129325595Y-84749702D01*
X129420833Y-84702083D01*
X129658928Y-84702083D01*
X129754166Y-84749702D01*
X129801785Y-84797321D01*
X129849404Y-84892559D01*
X129849404Y-85130654D01*
X129801785Y-85225892D01*
X129754166Y-85273511D01*
X129658928Y-85321130D01*
X129420833Y-85321130D01*
X129325595Y-85273511D01*
X129277976Y-85225892D01*
%TO.C,K19*%
X86891964Y-104371130D02*
X86891964Y-103371130D01*
X87463392Y-104371130D02*
X87034821Y-103799702D01*
X87463392Y-103371130D02*
X86891964Y-103942559D01*
X88415773Y-104371130D02*
X87844345Y-104371130D01*
X88130059Y-104371130D02*
X88130059Y-103371130D01*
X88034821Y-103513988D01*
X87939583Y-103609226D01*
X87844345Y-103656845D01*
X88891964Y-104371130D02*
X89082440Y-104371130D01*
X89177678Y-104323511D01*
X89225297Y-104275892D01*
X89320535Y-104133035D01*
X89368154Y-103942559D01*
X89368154Y-103561607D01*
X89320535Y-103466369D01*
X89272916Y-103418750D01*
X89177678Y-103371130D01*
X88987202Y-103371130D01*
X88891964Y-103418750D01*
X88844345Y-103466369D01*
X88796726Y-103561607D01*
X88796726Y-103799702D01*
X88844345Y-103894940D01*
X88891964Y-103942559D01*
X88987202Y-103990178D01*
X89177678Y-103990178D01*
X89272916Y-103942559D01*
X89320535Y-103894940D01*
X89368154Y-103799702D01*
%TO.C,K12*%
X184523214Y-71033630D02*
X184523214Y-70033630D01*
X185094642Y-71033630D02*
X184666071Y-70462202D01*
X185094642Y-70033630D02*
X184523214Y-70605059D01*
X186047023Y-71033630D02*
X185475595Y-71033630D01*
X185761309Y-71033630D02*
X185761309Y-70033630D01*
X185666071Y-70176488D01*
X185570833Y-70271726D01*
X185475595Y-70319345D01*
X186427976Y-70128869D02*
X186475595Y-70081250D01*
X186570833Y-70033630D01*
X186808928Y-70033630D01*
X186904166Y-70081250D01*
X186951785Y-70128869D01*
X186999404Y-70224107D01*
X186999404Y-70319345D01*
X186951785Y-70462202D01*
X186380357Y-71033630D01*
X186999404Y-71033630D01*
%TO.C,J1*%
X209696130Y-86918154D02*
X209696130Y-86346726D01*
X210696130Y-86632440D02*
X209696130Y-86632440D01*
X210696130Y-85441964D02*
X210219940Y-85775297D01*
X210696130Y-86013392D02*
X209696130Y-86013392D01*
X209696130Y-85632440D01*
X209743750Y-85537202D01*
X209791369Y-85489583D01*
X209886607Y-85441964D01*
X210029464Y-85441964D01*
X210124702Y-85489583D01*
X210172321Y-85537202D01*
X210219940Y-85632440D01*
X210219940Y-86013392D01*
X210696130Y-84441964D02*
X210219940Y-84775297D01*
X210696130Y-85013392D02*
X209696130Y-85013392D01*
X209696130Y-84632440D01*
X209743750Y-84537202D01*
X209791369Y-84489583D01*
X209886607Y-84441964D01*
X210029464Y-84441964D01*
X210124702Y-84489583D01*
X210172321Y-84537202D01*
X210219940Y-84632440D01*
X210219940Y-85013392D01*
X210648511Y-84061011D02*
X210696130Y-83918154D01*
X210696130Y-83680059D01*
X210648511Y-83584821D01*
X210600892Y-83537202D01*
X210505654Y-83489583D01*
X210410416Y-83489583D01*
X210315178Y-83537202D01*
X210267559Y-83584821D01*
X210219940Y-83680059D01*
X210172321Y-83870535D01*
X210124702Y-83965773D01*
X210077083Y-84013392D01*
X209981845Y-84061011D01*
X209886607Y-84061011D01*
X209791369Y-84013392D01*
X209743750Y-83965773D01*
X209696130Y-83870535D01*
X209696130Y-83632440D01*
X209743750Y-83489583D01*
%TO.C,K8*%
X108799404Y-66271130D02*
X108799404Y-65271130D01*
X109370833Y-66271130D02*
X108942261Y-65699702D01*
X109370833Y-65271130D02*
X108799404Y-65842559D01*
X109942261Y-65699702D02*
X109847023Y-65652083D01*
X109799404Y-65604464D01*
X109751785Y-65509226D01*
X109751785Y-65461607D01*
X109799404Y-65366369D01*
X109847023Y-65318750D01*
X109942261Y-65271130D01*
X110132738Y-65271130D01*
X110227976Y-65318750D01*
X110275595Y-65366369D01*
X110323214Y-65461607D01*
X110323214Y-65509226D01*
X110275595Y-65604464D01*
X110227976Y-65652083D01*
X110132738Y-65699702D01*
X109942261Y-65699702D01*
X109847023Y-65747321D01*
X109799404Y-65794940D01*
X109751785Y-65890178D01*
X109751785Y-66080654D01*
X109799404Y-66175892D01*
X109847023Y-66223511D01*
X109942261Y-66271130D01*
X110132738Y-66271130D01*
X110227976Y-66223511D01*
X110275595Y-66175892D01*
X110323214Y-66080654D01*
X110323214Y-65890178D01*
X110275595Y-65794940D01*
X110227976Y-65747321D01*
X110132738Y-65699702D01*
%TO.C,K4*%
X146899404Y-47221130D02*
X146899404Y-46221130D01*
X147470833Y-47221130D02*
X147042261Y-46649702D01*
X147470833Y-46221130D02*
X146899404Y-46792559D01*
X148327976Y-46554464D02*
X148327976Y-47221130D01*
X148089880Y-46173511D02*
X147851785Y-46887797D01*
X148470833Y-46887797D01*
%TO.C,K21*%
X127373214Y-104371130D02*
X127373214Y-103371130D01*
X127944642Y-104371130D02*
X127516071Y-103799702D01*
X127944642Y-103371130D02*
X127373214Y-103942559D01*
X128325595Y-103466369D02*
X128373214Y-103418750D01*
X128468452Y-103371130D01*
X128706547Y-103371130D01*
X128801785Y-103418750D01*
X128849404Y-103466369D01*
X128897023Y-103561607D01*
X128897023Y-103656845D01*
X128849404Y-103799702D01*
X128277976Y-104371130D01*
X128897023Y-104371130D01*
X129849404Y-104371130D02*
X129277976Y-104371130D01*
X129563690Y-104371130D02*
X129563690Y-103371130D01*
X129468452Y-103513988D01*
X129373214Y-103609226D01*
X129277976Y-103656845D01*
%TO.C,K13*%
X86891964Y-85321130D02*
X86891964Y-84321130D01*
X87463392Y-85321130D02*
X87034821Y-84749702D01*
X87463392Y-84321130D02*
X86891964Y-84892559D01*
X88415773Y-85321130D02*
X87844345Y-85321130D01*
X88130059Y-85321130D02*
X88130059Y-84321130D01*
X88034821Y-84463988D01*
X87939583Y-84559226D01*
X87844345Y-84606845D01*
X88749107Y-84321130D02*
X89368154Y-84321130D01*
X89034821Y-84702083D01*
X89177678Y-84702083D01*
X89272916Y-84749702D01*
X89320535Y-84797321D01*
X89368154Y-84892559D01*
X89368154Y-85130654D01*
X89320535Y-85225892D01*
X89272916Y-85273511D01*
X89177678Y-85321130D01*
X88891964Y-85321130D01*
X88796726Y-85273511D01*
X88749107Y-85225892D01*
%TO.C,K26*%
X108323214Y-123421130D02*
X108323214Y-122421130D01*
X108894642Y-123421130D02*
X108466071Y-122849702D01*
X108894642Y-122421130D02*
X108323214Y-122992559D01*
X109275595Y-122516369D02*
X109323214Y-122468750D01*
X109418452Y-122421130D01*
X109656547Y-122421130D01*
X109751785Y-122468750D01*
X109799404Y-122516369D01*
X109847023Y-122611607D01*
X109847023Y-122706845D01*
X109799404Y-122849702D01*
X109227976Y-123421130D01*
X109847023Y-123421130D01*
X110704166Y-122421130D02*
X110513690Y-122421130D01*
X110418452Y-122468750D01*
X110370833Y-122516369D01*
X110275595Y-122659226D01*
X110227976Y-122849702D01*
X110227976Y-123230654D01*
X110275595Y-123325892D01*
X110323214Y-123373511D01*
X110418452Y-123421130D01*
X110608928Y-123421130D01*
X110704166Y-123373511D01*
X110751785Y-123325892D01*
X110799404Y-123230654D01*
X110799404Y-122992559D01*
X110751785Y-122897321D01*
X110704166Y-122849702D01*
X110608928Y-122802083D01*
X110418452Y-122802083D01*
X110323214Y-122849702D01*
X110275595Y-122897321D01*
X110227976Y-122992559D01*
%TO.C,K16*%
X146423214Y-85321130D02*
X146423214Y-84321130D01*
X146994642Y-85321130D02*
X146566071Y-84749702D01*
X146994642Y-84321130D02*
X146423214Y-84892559D01*
X147947023Y-85321130D02*
X147375595Y-85321130D01*
X147661309Y-85321130D02*
X147661309Y-84321130D01*
X147566071Y-84463988D01*
X147470833Y-84559226D01*
X147375595Y-84606845D01*
X148804166Y-84321130D02*
X148613690Y-84321130D01*
X148518452Y-84368750D01*
X148470833Y-84416369D01*
X148375595Y-84559226D01*
X148327976Y-84749702D01*
X148327976Y-85130654D01*
X148375595Y-85225892D01*
X148423214Y-85273511D01*
X148518452Y-85321130D01*
X148708928Y-85321130D01*
X148804166Y-85273511D01*
X148851785Y-85225892D01*
X148899404Y-85130654D01*
X148899404Y-84892559D01*
X148851785Y-84797321D01*
X148804166Y-84749702D01*
X148708928Y-84702083D01*
X148518452Y-84702083D01*
X148423214Y-84749702D01*
X148375595Y-84797321D01*
X148327976Y-84892559D01*
D13*
%TO.C,K18*%
X192837500Y-90531250D02*
X178637500Y-90531250D01*
X178637500Y-104731250D02*
X192837500Y-104731250D01*
X178637500Y-90531250D02*
X178637500Y-104731250D01*
X192837500Y-104731250D02*
X192837500Y-90531250D01*
%TO.C,K1*%
X97587500Y-47668750D02*
X83387500Y-47668750D01*
X97587500Y-61868750D02*
X97587500Y-47668750D01*
X83387500Y-61868750D02*
X97587500Y-61868750D01*
X83387500Y-47668750D02*
X83387500Y-61868750D01*
%TO.C,K10*%
X140537500Y-80918750D02*
X154737500Y-80918750D01*
X154737500Y-80918750D02*
X154737500Y-66718750D01*
X154737500Y-66718750D02*
X140537500Y-66718750D01*
X140537500Y-66718750D02*
X140537500Y-80918750D01*
%TO.C,K2*%
X116637500Y-61868750D02*
X116637500Y-47668750D01*
X102437500Y-61868750D02*
X116637500Y-61868750D01*
X116637500Y-47668750D02*
X102437500Y-47668750D01*
X102437500Y-47668750D02*
X102437500Y-61868750D01*
%TO.C,K23*%
X159587500Y-107200000D02*
X159587500Y-121400000D01*
X173787500Y-107200000D02*
X159587500Y-107200000D01*
X159587500Y-121400000D02*
X173787500Y-121400000D01*
X173787500Y-121400000D02*
X173787500Y-107200000D01*
%TO.C,K27*%
X135687500Y-138068750D02*
X135687500Y-123868750D01*
X135687500Y-123868750D02*
X121487500Y-123868750D01*
X121487500Y-123868750D02*
X121487500Y-138068750D01*
X121487500Y-138068750D02*
X135687500Y-138068750D01*
%TO.C,K6*%
X192837500Y-52431250D02*
X178637500Y-52431250D01*
X178637500Y-52431250D02*
X178637500Y-66631250D01*
X192837500Y-66631250D02*
X192837500Y-52431250D01*
X178637500Y-66631250D02*
X192837500Y-66631250D01*
D11*
%TO.C,U1*%
X197250000Y-51075000D02*
X197250000Y-51925000D01*
X214750000Y-51075000D02*
X214750000Y-51925000D01*
X214750000Y-80425000D02*
X214750000Y-81275000D01*
X214750000Y-51075000D02*
X213950000Y-51075000D01*
X197250000Y-81275000D02*
X198100000Y-81275000D01*
X197250000Y-80375000D02*
X197250000Y-81275000D01*
X197250000Y-51075000D02*
X198100000Y-51075000D01*
X214750000Y-81275000D02*
X213890000Y-81275000D01*
D13*
%TO.C,K29*%
X189978972Y-130628948D02*
X188125501Y-144707465D01*
X202204018Y-146560936D02*
X204057489Y-132482419D01*
X188125501Y-144707465D02*
X202204018Y-146560936D01*
X204057489Y-132482419D02*
X189978972Y-130628948D01*
%TO.C,K28*%
X171512603Y-142520334D02*
X173366074Y-128441817D01*
X157434086Y-140666863D02*
X171512603Y-142520334D01*
X159287557Y-126588346D02*
X157434086Y-140666863D01*
X173366074Y-128441817D02*
X159287557Y-126588346D01*
%TO.C,K24*%
X178637500Y-123781250D02*
X192837500Y-123781250D01*
X178637500Y-109581250D02*
X178637500Y-123781250D01*
X192837500Y-109581250D02*
X178637500Y-109581250D01*
X192837500Y-123781250D02*
X192837500Y-109581250D01*
%TO.C,K25*%
X95206250Y-123868750D02*
X81006250Y-123868750D01*
X81006250Y-138068750D02*
X95206250Y-138068750D01*
X81006250Y-123868750D02*
X81006250Y-138068750D01*
X95206250Y-138068750D02*
X95206250Y-123868750D01*
%TO.C,K9*%
X135687500Y-66718750D02*
X121487500Y-66718750D01*
X121487500Y-80918750D02*
X135687500Y-80918750D01*
X121487500Y-66718750D02*
X121487500Y-80918750D01*
X135687500Y-80918750D02*
X135687500Y-66718750D01*
%TO.C,K5*%
X159587500Y-50050000D02*
X159587500Y-64250000D01*
X173787500Y-50050000D02*
X159587500Y-50050000D01*
X159587500Y-64250000D02*
X173787500Y-64250000D01*
X173787500Y-64250000D02*
X173787500Y-50050000D01*
%TO.C,K20*%
X102437500Y-104818750D02*
X102437500Y-119018750D01*
X102437500Y-119018750D02*
X116637500Y-119018750D01*
X116637500Y-119018750D02*
X116637500Y-104818750D01*
X116637500Y-104818750D02*
X102437500Y-104818750D01*
%TO.C,K22*%
X140537500Y-119018750D02*
X154737500Y-119018750D01*
X154737500Y-119018750D02*
X154737500Y-104818750D01*
X154737500Y-104818750D02*
X140537500Y-104818750D01*
X140537500Y-104818750D02*
X140537500Y-119018750D01*
%TO.C,K11*%
X173787500Y-69100000D02*
X159587500Y-69100000D01*
X173787500Y-83300000D02*
X173787500Y-69100000D01*
X159587500Y-69100000D02*
X159587500Y-83300000D01*
X159587500Y-83300000D02*
X173787500Y-83300000D01*
D11*
%TO.C,SW1*%
X198693750Y-85056250D02*
X198943750Y-85056250D01*
X198693750Y-90756250D02*
X198693750Y-85056250D01*
X198693750Y-90756250D02*
X198943750Y-90756250D01*
X201893750Y-90756250D02*
X201893750Y-85056250D01*
X201893750Y-85056250D02*
X201643750Y-85056250D01*
X201893750Y-90756250D02*
X201643750Y-90756250D01*
D13*
%TO.C,K17*%
X159587500Y-88150000D02*
X159587500Y-102350000D01*
X159587500Y-102350000D02*
X173787500Y-102350000D01*
X173787500Y-88150000D02*
X159587500Y-88150000D01*
X173787500Y-102350000D02*
X173787500Y-88150000D01*
%TO.C,K3*%
X135687500Y-61868750D02*
X135687500Y-47668750D01*
X121487500Y-61868750D02*
X135687500Y-61868750D01*
X121487500Y-47668750D02*
X121487500Y-61868750D01*
X135687500Y-47668750D02*
X121487500Y-47668750D01*
%TO.C,K14*%
X102437500Y-85768750D02*
X102437500Y-99968750D01*
X116637500Y-85768750D02*
X102437500Y-85768750D01*
X102437500Y-99968750D02*
X116637500Y-99968750D01*
X116637500Y-99968750D02*
X116637500Y-85768750D01*
%TO.C,K7*%
X97587500Y-66718750D02*
X83387500Y-66718750D01*
X83387500Y-66718750D02*
X83387500Y-80918750D01*
X83387500Y-80918750D02*
X97587500Y-80918750D01*
X97587500Y-80918750D02*
X97587500Y-66718750D01*
%TO.C,K15*%
X135687500Y-85768750D02*
X121487500Y-85768750D01*
X121487500Y-99968750D02*
X135687500Y-99968750D01*
X135687500Y-99968750D02*
X135687500Y-85768750D01*
X121487500Y-85768750D02*
X121487500Y-99968750D01*
%TO.C,K19*%
X81006250Y-104818750D02*
X81006250Y-119018750D01*
X95206250Y-119018750D02*
X95206250Y-104818750D01*
X95206250Y-104818750D02*
X81006250Y-104818750D01*
X81006250Y-119018750D02*
X95206250Y-119018750D01*
%TO.C,K12*%
X178637500Y-71481250D02*
X178637500Y-85681250D01*
X192837500Y-71481250D02*
X178637500Y-71481250D01*
X192837500Y-85681250D02*
X192837500Y-71481250D01*
X178637500Y-85681250D02*
X192837500Y-85681250D01*
D11*
%TO.C,J1*%
X216543750Y-83006250D02*
X216543750Y-88806250D01*
X216543750Y-88806250D02*
X204793750Y-88806250D01*
X204793750Y-88806250D02*
X204793750Y-83006250D01*
X204793750Y-83006250D02*
X216543750Y-83006250D01*
D13*
%TO.C,K8*%
X102437500Y-66718750D02*
X102437500Y-80918750D01*
X116637500Y-66718750D02*
X102437500Y-66718750D01*
X102437500Y-80918750D02*
X116637500Y-80918750D01*
X116637500Y-80918750D02*
X116637500Y-66718750D01*
%TO.C,K4*%
X154737500Y-61868750D02*
X154737500Y-47668750D01*
X140537500Y-47668750D02*
X140537500Y-61868750D01*
X154737500Y-47668750D02*
X140537500Y-47668750D01*
X140537500Y-61868750D02*
X154737500Y-61868750D01*
%TO.C,K21*%
X135687500Y-119018750D02*
X135687500Y-104818750D01*
X121487500Y-119018750D02*
X135687500Y-119018750D01*
X121487500Y-104818750D02*
X121487500Y-119018750D01*
X135687500Y-104818750D02*
X121487500Y-104818750D01*
%TO.C,K13*%
X81006250Y-99968750D02*
X95206250Y-99968750D01*
X81006250Y-85768750D02*
X81006250Y-99968750D01*
X95206250Y-99968750D02*
X95206250Y-85768750D01*
X95206250Y-85768750D02*
X81006250Y-85768750D01*
%TO.C,K26*%
X102437500Y-123868750D02*
X102437500Y-138068750D01*
X116637500Y-123868750D02*
X102437500Y-123868750D01*
X102437500Y-138068750D02*
X116637500Y-138068750D01*
X116637500Y-138068750D02*
X116637500Y-123868750D01*
%TO.C,K16*%
X154737500Y-99968750D02*
X154737500Y-85768750D01*
X140537500Y-85768750D02*
X140537500Y-99968750D01*
X154737500Y-85768750D02*
X140537500Y-85768750D01*
X140537500Y-99968750D02*
X154737500Y-99968750D01*
%TD*%
M02*
