%TF.GenerationSoftware,KiCad,Pcbnew,(6.0.4)*%
%TF.CreationDate,2022-10-11T17:38:10-05:00*%
%TF.ProjectId,GummyKey_Left,47756d6d-794b-4657-995f-4c6566742e6b,rev?*%
%TF.SameCoordinates,Original*%
%TF.FileFunction,Paste,Bot*%
%TF.FilePolarity,Positive*%
%FSLAX46Y46*%
G04 Gerber Fmt 4.6, Leading zero omitted, Abs format (unit mm)*
G04 Created by KiCad (PCBNEW (6.0.4)) date 2022-10-11 17:38:10*
%MOMM*%
%LPD*%
G01*
G04 APERTURE LIST*
G04 Aperture macros list*
%AMRoundRect*
0 Rectangle with rounded corners*
0 $1 Rounding radius*
0 $2 $3 $4 $5 $6 $7 $8 $9 X,Y pos of 4 corners*
0 Add a 4 corners polygon primitive as box body*
4,1,4,$2,$3,$4,$5,$6,$7,$8,$9,$2,$3,0*
0 Add four circle primitives for the rounded corners*
1,1,$1+$1,$2,$3*
1,1,$1+$1,$4,$5*
1,1,$1+$1,$6,$7*
1,1,$1+$1,$8,$9*
0 Add four rect primitives between the rounded corners*
20,1,$1+$1,$2,$3,$4,$5,0*
20,1,$1+$1,$4,$5,$6,$7,0*
20,1,$1+$1,$6,$7,$8,$9,0*
20,1,$1+$1,$8,$9,$2,$3,0*%
G04 Aperture macros list end*
%ADD10RoundRect,0.250000X-1.025000X-1.000000X1.025000X-1.000000X1.025000X1.000000X-1.025000X1.000000X0*%
%ADD11RoundRect,0.250000X-1.146757X-0.857656X0.885705X-1.125234X1.146757X0.857656X-0.885705X1.125234X0*%
%ADD12R,0.900000X1.200000*%
%ADD13RoundRect,0.250000X-0.350000X-0.450000X0.350000X-0.450000X0.350000X0.450000X-0.350000X0.450000X0*%
G04 APERTURE END LIST*
D10*
%TO.C,K18*%
X178652500Y-95091250D03*
X191579500Y-92551250D03*
%TD*%
%TO.C,K1*%
X83402500Y-52228750D03*
X96329500Y-49688750D03*
%TD*%
%TO.C,K10*%
X140552500Y-71278750D03*
X153479500Y-68738750D03*
%TD*%
%TO.C,K2*%
X102452500Y-52228750D03*
X115379500Y-49688750D03*
%TD*%
%TO.C,K23*%
X159602500Y-111760000D03*
X172529500Y-109220000D03*
%TD*%
%TO.C,K27*%
X121502500Y-128428750D03*
X134429500Y-125888750D03*
%TD*%
%TO.C,K6*%
X178652500Y-56991250D03*
X191579500Y-54451250D03*
%TD*%
D11*
%TO.C,K29*%
X189398645Y-135151894D03*
X202546589Y-134320936D03*
%TD*%
%TO.C,K28*%
X158707230Y-131111292D03*
X171855174Y-130280334D03*
%TD*%
D10*
%TO.C,K24*%
X178652500Y-114141250D03*
X191579500Y-111601250D03*
%TD*%
%TO.C,K25*%
X81021250Y-128428750D03*
X93948250Y-125888750D03*
%TD*%
%TO.C,K9*%
X121502500Y-71278750D03*
X134429500Y-68738750D03*
%TD*%
%TO.C,K5*%
X159602500Y-54610000D03*
X172529500Y-52070000D03*
%TD*%
%TO.C,K20*%
X102452500Y-109378750D03*
X115379500Y-106838750D03*
%TD*%
%TO.C,K22*%
X140552500Y-109378750D03*
X153479500Y-106838750D03*
%TD*%
%TO.C,K11*%
X159602500Y-73660000D03*
X172529500Y-71120000D03*
%TD*%
%TO.C,K17*%
X159602500Y-92710000D03*
X172529500Y-90170000D03*
%TD*%
%TO.C,K3*%
X121502500Y-52228750D03*
X134429500Y-49688750D03*
%TD*%
%TO.C,K14*%
X102452500Y-90328750D03*
X115379500Y-87788750D03*
%TD*%
%TO.C,K7*%
X83402500Y-71278750D03*
X96329500Y-68738750D03*
%TD*%
%TO.C,K15*%
X121502500Y-90328750D03*
X134429500Y-87788750D03*
%TD*%
%TO.C,K19*%
X81021250Y-109378750D03*
X93948250Y-106838750D03*
%TD*%
%TO.C,K12*%
X178652500Y-76041250D03*
X191579500Y-73501250D03*
%TD*%
%TO.C,K8*%
X102452500Y-71278750D03*
X115379500Y-68738750D03*
%TD*%
%TO.C,K4*%
X140552500Y-52228750D03*
X153479500Y-49688750D03*
%TD*%
%TO.C,K21*%
X121502500Y-109378750D03*
X134429500Y-106838750D03*
%TD*%
%TO.C,K13*%
X81021250Y-90328750D03*
X93948250Y-87788750D03*
%TD*%
%TO.C,K26*%
X102452500Y-128428750D03*
X115379500Y-125888750D03*
%TD*%
%TO.C,K16*%
X140552500Y-90328750D03*
X153479500Y-87788750D03*
%TD*%
D12*
%TO.C,D20*%
X107887500Y-116681250D03*
X111187500Y-116681250D03*
%TD*%
%TO.C,D11*%
X165037500Y-80962500D03*
X168337500Y-80962500D03*
%TD*%
%TO.C,D7*%
X88837500Y-78581250D03*
X92137500Y-78581250D03*
%TD*%
%TO.C,D1*%
X88837500Y-59531250D03*
X92137500Y-59531250D03*
%TD*%
%TO.C,D10*%
X145987500Y-78581250D03*
X149287500Y-78581250D03*
%TD*%
%TO.C,D26*%
X107887500Y-135731250D03*
X111187500Y-135731250D03*
%TD*%
%TO.C,D4*%
X145987500Y-59531250D03*
X149287500Y-59531250D03*
%TD*%
%TO.C,D15*%
X126937500Y-97631250D03*
X130237500Y-97631250D03*
%TD*%
D13*
%TO.C,R1*%
X208000000Y-62000000D03*
X210000000Y-62000000D03*
%TD*%
D12*
%TO.C,D24*%
X184087500Y-121443750D03*
X187387500Y-121443750D03*
%TD*%
%TO.C,D28*%
X163750080Y-140000000D03*
X167050080Y-140000000D03*
%TD*%
%TO.C,D19*%
X86456250Y-116681250D03*
X89756250Y-116681250D03*
%TD*%
%TO.C,D9*%
X126937500Y-78581250D03*
X130237500Y-78581250D03*
%TD*%
%TO.C,D8*%
X107887500Y-78581250D03*
X111187500Y-78581250D03*
%TD*%
%TO.C,D16*%
X145987500Y-97631250D03*
X149287500Y-97631250D03*
%TD*%
%TO.C,D12*%
X184087500Y-83343750D03*
X187387500Y-83343750D03*
%TD*%
%TO.C,D3*%
X126937500Y-59531250D03*
X130237500Y-59531250D03*
%TD*%
%TO.C,D2*%
X107887500Y-59531250D03*
X111187500Y-59531250D03*
%TD*%
%TO.C,D29*%
X194441495Y-144000000D03*
X197741495Y-144000000D03*
%TD*%
%TO.C,D18*%
X184087500Y-102393750D03*
X187387500Y-102393750D03*
%TD*%
%TO.C,D14*%
X107887500Y-97631250D03*
X111187500Y-97631250D03*
%TD*%
%TO.C,D22*%
X145987500Y-116681250D03*
X149287500Y-116681250D03*
%TD*%
%TO.C,D23*%
X165037500Y-119062500D03*
X168337500Y-119062500D03*
%TD*%
%TO.C,D5*%
X165037500Y-61912500D03*
X168337500Y-61912500D03*
%TD*%
D13*
%TO.C,R2*%
X208000000Y-65000000D03*
X210000000Y-65000000D03*
%TD*%
D12*
%TO.C,D21*%
X126937500Y-116681250D03*
X130237500Y-116681250D03*
%TD*%
%TO.C,D27*%
X126937500Y-135731250D03*
X130237500Y-135731250D03*
%TD*%
%TO.C,D13*%
X86456250Y-97631250D03*
X89756250Y-97631250D03*
%TD*%
%TO.C,D17*%
X165037500Y-100012500D03*
X168337500Y-100012500D03*
%TD*%
%TO.C,D25*%
X86456250Y-135731250D03*
X89756250Y-135731250D03*
%TD*%
%TO.C,D6*%
X184087500Y-64293750D03*
X187387500Y-64293750D03*
%TD*%
M02*
