%TF.GenerationSoftware,KiCad,Pcbnew,(6.0.4)*%
%TF.CreationDate,2022-10-11T17:38:10-05:00*%
%TF.ProjectId,GummyKey_Left,47756d6d-794b-4657-995f-4c6566742e6b,rev?*%
%TF.SameCoordinates,Original*%
%TF.FileFunction,Profile,NP*%
%FSLAX46Y46*%
G04 Gerber Fmt 4.6, Leading zero omitted, Abs format (unit mm)*
G04 Created by KiCad (PCBNEW (6.0.4)) date 2022-10-11 17:38:10*
%MOMM*%
%LPD*%
G01*
G04 APERTURE LIST*
%TA.AperFunction,Profile*%
%ADD10C,0.100000*%
%TD*%
%ADD11C,0.100000*%
G04 APERTURE END LIST*
D10*
X214312500Y-47625000D02*
X192881250Y-47625000D01*
X150018750Y-42862500D02*
X80962500Y-42862500D01*
X80962497Y-42862453D02*
G75*
G03*
X78581250Y-45243750I181503J-2562747D01*
G01*
D11*
X73818750Y-90487500D02*
X73818895Y-90046829D01*
X73819912Y-89613134D01*
X73822674Y-89179440D01*
X73828051Y-88738769D01*
X73836917Y-88284146D01*
X73850143Y-87808593D01*
X73868601Y-87305136D01*
X73893164Y-86766796D01*
X73924702Y-86186599D01*
X73964089Y-85557568D01*
X74012197Y-84872726D01*
X74069897Y-84125097D01*
X74138061Y-83307705D01*
X74217562Y-82413574D01*
X74309272Y-81435726D01*
X74414062Y-80367187D01*
X74532805Y-79200979D01*
X74666372Y-77930126D01*
X74815636Y-76547653D01*
X74981469Y-75046582D01*
X75164743Y-73419937D01*
X75366329Y-71660742D01*
X75587101Y-69762020D01*
X75827929Y-67716796D01*
X76089686Y-65518093D01*
X76373245Y-63158935D01*
X76679476Y-60632345D01*
X77009252Y-57931347D01*
X77363446Y-55048965D01*
X77742929Y-51978222D01*
X78148572Y-48712142D01*
X78581250Y-45243750D01*
D10*
X73818750Y-140493750D02*
X73818750Y-90487500D01*
X207168750Y-150018750D02*
X210740625Y-129182812D01*
X216693800Y-50006250D02*
G75*
G03*
X214312500Y-47625000I-2381300J-50D01*
G01*
D11*
X105965625Y-142875000D02*
X108523257Y-142882048D01*
X111064830Y-142903486D01*
X113595215Y-142939748D01*
X116119281Y-142991271D01*
X118641897Y-143058491D01*
X121167935Y-143141844D01*
X123702265Y-143241765D01*
X126249755Y-143358691D01*
X128815277Y-143493058D01*
X131403701Y-143645301D01*
X134019895Y-143815858D01*
X136668731Y-144005163D01*
X139355079Y-144213653D01*
X142083808Y-144441764D01*
X144859788Y-144689932D01*
X147687890Y-144958593D01*
X150572984Y-145248183D01*
X153519939Y-145559138D01*
X156533626Y-145891894D01*
X159618914Y-146246887D01*
X162780675Y-146624553D01*
X166023777Y-147025328D01*
X169353090Y-147449648D01*
X172773486Y-147897949D01*
X176289833Y-148370667D01*
X179907003Y-148868238D01*
X183629864Y-149391099D01*
X187463287Y-149939685D01*
X191412142Y-150514431D01*
X195481299Y-151115776D01*
X199675628Y-151744153D01*
X204000000Y-152400000D01*
D10*
X76200000Y-142875000D02*
X105965625Y-142875000D01*
X73818700Y-140493750D02*
G75*
G03*
X76200000Y-142875000I2381300J50D01*
G01*
D11*
X210740625Y-129182812D02*
X211281471Y-125876745D01*
X211788526Y-122763291D01*
X212262879Y-119836235D01*
X212705621Y-117089364D01*
X213117841Y-114516465D01*
X213500630Y-112111325D01*
X213855078Y-109867730D01*
X214182275Y-107779467D01*
X214483310Y-105840323D01*
X214759275Y-104044085D01*
X215011258Y-102384538D01*
X215240350Y-100855471D01*
X215447641Y-99450670D01*
X215634221Y-98163920D01*
X215801180Y-96989010D01*
X215949609Y-95919726D01*
X216080597Y-94949854D01*
X216195233Y-94073182D01*
X216294610Y-93283495D01*
X216379815Y-92574581D01*
X216451940Y-91940227D01*
X216512075Y-91374219D01*
X216561308Y-90870343D01*
X216600732Y-90422387D01*
X216631435Y-90024138D01*
X216654508Y-89669381D01*
X216671040Y-89351904D01*
X216682122Y-89065493D01*
X216688844Y-88803936D01*
X216692296Y-88561018D01*
X216693568Y-88330527D01*
X216693750Y-88106250D01*
D10*
X216693750Y-88106250D02*
X216693750Y-50006250D01*
D11*
X171450000Y-45243750D02*
X170144992Y-45027411D01*
X168907131Y-44824589D01*
X167733802Y-44634848D01*
X166622387Y-44457751D01*
X165570271Y-44292863D01*
X164574838Y-44139747D01*
X163633471Y-43997968D01*
X162743554Y-43867089D01*
X161902472Y-43746675D01*
X161107608Y-43636289D01*
X160356345Y-43535496D01*
X159646069Y-43443859D01*
X158974162Y-43360943D01*
X158338009Y-43286311D01*
X157734994Y-43219527D01*
X157162500Y-43160156D01*
X156617911Y-43107761D01*
X156098611Y-43061906D01*
X155601984Y-43022155D01*
X155125415Y-42988073D01*
X154666286Y-42959223D01*
X154221981Y-42935169D01*
X153789886Y-42915476D01*
X153367382Y-42899707D01*
X152951855Y-42887425D01*
X152540689Y-42878196D01*
X152131266Y-42871583D01*
X151720971Y-42867150D01*
X151307188Y-42864462D01*
X150887301Y-42863081D01*
X150458694Y-42862572D01*
X150018750Y-42862500D01*
X192881250Y-47625000D02*
X192441305Y-47624927D01*
X192012698Y-47624418D01*
X191592811Y-47623037D01*
X191179028Y-47620349D01*
X190768733Y-47615916D01*
X190359310Y-47609303D01*
X189948144Y-47600074D01*
X189532617Y-47587792D01*
X189110113Y-47572023D01*
X188678018Y-47552330D01*
X188233713Y-47528276D01*
X187774584Y-47499426D01*
X187298015Y-47465344D01*
X186801388Y-47425593D01*
X186282088Y-47379738D01*
X185737500Y-47327343D01*
X185165005Y-47267972D01*
X184561990Y-47201188D01*
X183925837Y-47126556D01*
X183253930Y-47043640D01*
X182543654Y-46952003D01*
X181792391Y-46851210D01*
X180997527Y-46740824D01*
X180156445Y-46620410D01*
X179266528Y-46489531D01*
X178325161Y-46347752D01*
X177329728Y-46194636D01*
X176277612Y-46029748D01*
X175166197Y-45852651D01*
X173992868Y-45662910D01*
X172755007Y-45460088D01*
X171450000Y-45243750D01*
D10*
X204000003Y-152399978D02*
G75*
G03*
X207168750Y-150018750I396397J2771478D01*
G01*
M02*
