M48
; DRILL file {KiCad (6.0.4)} date Tue Oct 11 17:38:12 2022
; FORMAT={-:-/ absolute / inch / decimal}
; #@! TF.CreationDate,2022-10-11T17:38:12-05:00
; #@! TF.GenerationSoftware,Kicad,Pcbnew,(6.0.4)
; #@! TF.FileFunction,Plated,1,2,PTH
FMAT,2
INCH
; #@! TA.AperFunction,Plated,PTH,ViaDrill
T1C0.0157
; #@! TA.AperFunction,Plated,PTH,ComponentDrill
T2C0.0320
; #@! TA.AperFunction,Plated,PTH,ComponentDrill
T3C0.0394
; #@! TA.AperFunction,Plated,PTH,ComponentDrill
T4C0.0512
; #@! TA.AperFunction,Plated,PTH,ComponentDrill
T5C0.1614
%
G90
G05
T1
X3.0938Y-3.6562
X3.0938Y-5.4375
X3.2812Y-1.875
X3.3319Y-3.8438
X3.3339Y-4.5938
X3.3359Y-5.3438
X3.4461Y-2.3438
X3.4481Y-3.0938
X3.9375Y-3.6562
X4.1941Y-2.3438
X4.1961Y-3.0938
X4.1981Y-3.8438
X4.2Y-4.5938
X4.202Y-5.3438
X4.6875Y-3.6562
X4.9422Y-2.3438
X4.9441Y-3.0938
X4.9461Y-3.8438
X4.9481Y-4.5938
X4.95Y-5.3438
X5.4375Y-3.6562
X5.5312Y-1.7812
X5.5312Y-5.5312
X5.6902Y-2.3438
X5.6922Y-3.0938
X5.6941Y-3.8438
X5.6961Y-4.5938
X6.1875Y-3.75
X6.378Y-5.5118
X6.4178Y-3.9375
X6.4188Y-3.1875
X6.4198Y-4.6875
X6.4208Y-2.4375
X6.9375Y-3.8438
X7.1769Y-2.5312
X7.1789Y-3.2812
X7.1873Y-4.7812
X7.1892Y-4.0312
X7.5984Y-5.6693
X7.96Y-2.355
X7.9688Y-5.8125
X8.25Y-2.0625
X8.3438Y-3.8438
T2
X7.8107Y-2.055
X7.8107Y-2.155
X7.8107Y-2.255
X7.8107Y-2.355
X7.8107Y-2.455
X7.8107Y-2.555
X7.8107Y-2.655
X7.8107Y-2.755
X7.8107Y-2.855
X7.8107Y-2.955
X7.8107Y-3.055
X7.8107Y-3.155
X8.4099Y-2.055
X8.4099Y-2.155
X8.4099Y-2.255
X8.4099Y-2.355
X8.4099Y-2.455
X8.4099Y-2.555
X8.4099Y-2.655
X8.4099Y-2.755
X8.4099Y-2.855
X8.4099Y-2.955
X8.4099Y-3.055
X8.4099Y-3.155
T4
X7.8856Y-3.3329
X7.8856Y-3.5888
T5
X3.9375Y-2.5312
X3.9375Y-4.7812
X6.9375Y-2.6719
X7.2188Y-5.4844
T3
G00X8.0765Y-3.2995
M15
G01X8.0568Y-3.2995
M16
G05
G00X8.1356Y-3.4648
M15
G01X8.1159Y-3.4648
M16
G05
G00X8.2931Y-3.4648
M15
G01X8.2734Y-3.4648
M16
G05
G00X8.4112Y-3.4648
M15
G01X8.3915Y-3.4648
M16
G05
T0
M30
