%TF.GenerationSoftware,KiCad,Pcbnew,(6.0.4)*%
%TF.CreationDate,2022-10-11T17:38:10-05:00*%
%TF.ProjectId,GummyKey_Left,47756d6d-794b-4657-995f-4c6566742e6b,rev?*%
%TF.SameCoordinates,Original*%
%TF.FileFunction,Soldermask,Top*%
%TF.FilePolarity,Negative*%
%FSLAX46Y46*%
G04 Gerber Fmt 4.6, Leading zero omitted, Abs format (unit mm)*
G04 Created by KiCad (PCBNEW (6.0.4)) date 2022-10-11 17:38:10*
%MOMM*%
%LPD*%
G01*
G04 APERTURE LIST*
%ADD10C,4.700000*%
%ADD11C,1.750000*%
%ADD12C,4.000000*%
%ADD13C,3.050000*%
%ADD14C,1.524000*%
%ADD15C,3.048000*%
%ADD16C,3.987800*%
%ADD17C,2.000000*%
%ADD18C,1.200000*%
G04 APERTURE END LIST*
D10*
%TO.C,TH3*%
X100012500Y-64293750D03*
%TD*%
D11*
%TO.C,K18*%
X180657500Y-97631250D03*
D12*
X185737500Y-97631250D03*
D13*
X181927500Y-95091250D03*
X188277500Y-92551250D03*
D11*
X190817500Y-97631250D03*
%TD*%
%TO.C,K1*%
X85407500Y-54768750D03*
X95567500Y-54768750D03*
D13*
X86677500Y-52228750D03*
X93027500Y-49688750D03*
D12*
X90487500Y-54768750D03*
%TD*%
%TO.C,K10*%
X147637500Y-73818750D03*
D11*
X152717500Y-73818750D03*
D13*
X143827500Y-71278750D03*
X150177500Y-68738750D03*
D11*
X142557500Y-73818750D03*
%TD*%
%TO.C,K2*%
X114617500Y-54768750D03*
D12*
X109537500Y-54768750D03*
D13*
X105727500Y-52228750D03*
X112077500Y-49688750D03*
D11*
X104457500Y-54768750D03*
%TD*%
%TO.C,K23*%
X171767500Y-114300000D03*
D13*
X162877500Y-111760000D03*
X169227500Y-109220000D03*
D12*
X166687500Y-114300000D03*
D11*
X161607500Y-114300000D03*
%TD*%
D12*
%TO.C,K27*%
X128587500Y-130968750D03*
D13*
X124777500Y-128428750D03*
D11*
X123507500Y-130968750D03*
X133667500Y-130968750D03*
D13*
X131127500Y-125888750D03*
%TD*%
%TO.C,K6*%
X188277500Y-54451250D03*
D12*
X185737500Y-59531250D03*
D13*
X181927500Y-56991250D03*
D11*
X190817500Y-59531250D03*
X180657500Y-59531250D03*
%TD*%
D14*
%TO.C,U1*%
X213611400Y-52197000D03*
X213611400Y-54737000D03*
X213611400Y-57277000D03*
X213611400Y-59817000D03*
X213611400Y-62357000D03*
X213611400Y-64897000D03*
X213611400Y-67437000D03*
X213611400Y-69977000D03*
X213611400Y-72517000D03*
X213611400Y-75057000D03*
X213611400Y-77597000D03*
X213611400Y-80137000D03*
X198391400Y-80137000D03*
X198391400Y-77597000D03*
X198391400Y-75057000D03*
X198391400Y-72517000D03*
X198391400Y-69977000D03*
X198391400Y-67437000D03*
X198391400Y-64897000D03*
X198391400Y-62357000D03*
X198391400Y-59817000D03*
X198391400Y-57277000D03*
X198391400Y-54737000D03*
X198391400Y-52197000D03*
%TD*%
D15*
%TO.C,REF\u002A\u002A*%
X178147674Y-129187319D03*
D16*
X176162371Y-144267196D03*
X152490633Y-141150752D03*
D15*
X154475937Y-126070876D03*
%TD*%
D11*
%TO.C,K29*%
X201128035Y-139258015D03*
D12*
X196091495Y-138594942D03*
D13*
X192645627Y-135579367D03*
D11*
X191054955Y-137931869D03*
D13*
X199272838Y-133889939D03*
%TD*%
D11*
%TO.C,K28*%
X160363540Y-133891267D03*
D13*
X161954212Y-131538765D03*
X168581423Y-129849337D03*
D11*
X170436620Y-135217413D03*
D12*
X165400080Y-134554340D03*
%TD*%
%TO.C,K24*%
X185737500Y-116681250D03*
D13*
X188277500Y-111601250D03*
D11*
X190817500Y-116681250D03*
D13*
X181927500Y-114141250D03*
D11*
X180657500Y-116681250D03*
%TD*%
%TO.C,K25*%
X83026250Y-130968750D03*
X93186250Y-130968750D03*
D13*
X90646250Y-125888750D03*
D12*
X88106250Y-130968750D03*
D13*
X84296250Y-128428750D03*
%TD*%
D11*
%TO.C,K9*%
X123507500Y-73818750D03*
D13*
X124777500Y-71278750D03*
D11*
X133667500Y-73818750D03*
D12*
X128587500Y-73818750D03*
D13*
X131127500Y-68738750D03*
%TD*%
D11*
%TO.C,K5*%
X171767500Y-57150000D03*
D12*
X166687500Y-57150000D03*
D13*
X169227500Y-52070000D03*
D11*
X161607500Y-57150000D03*
D13*
X162877500Y-54610000D03*
%TD*%
D12*
%TO.C,K20*%
X109537500Y-111918750D03*
D11*
X104457500Y-111918750D03*
D13*
X105727500Y-109378750D03*
D11*
X114617500Y-111918750D03*
D13*
X112077500Y-106838750D03*
%TD*%
D11*
%TO.C,K22*%
X152717500Y-111918750D03*
D13*
X143827500Y-109378750D03*
D12*
X147637500Y-111918750D03*
D13*
X150177500Y-106838750D03*
D11*
X142557500Y-111918750D03*
%TD*%
%TO.C,K11*%
X161607500Y-76200000D03*
D13*
X162877500Y-73660000D03*
X169227500Y-71120000D03*
D11*
X171767500Y-76200000D03*
D12*
X166687500Y-76200000D03*
%TD*%
D17*
%TO.C,SW1*%
X200293750Y-84656250D03*
X200293750Y-91156250D03*
%TD*%
D11*
%TO.C,K17*%
X171767500Y-95250000D03*
D13*
X169227500Y-90170000D03*
D11*
X161607500Y-95250000D03*
D13*
X162877500Y-92710000D03*
D12*
X166687500Y-95250000D03*
%TD*%
%TO.C,K3*%
X128587500Y-54768750D03*
D11*
X123507500Y-54768750D03*
X133667500Y-54768750D03*
D13*
X124777500Y-52228750D03*
X131127500Y-49688750D03*
%TD*%
D10*
%TO.C,TH3*%
X176212500Y-67865625D03*
%TD*%
D11*
%TO.C,K14*%
X104457500Y-92868750D03*
D13*
X112077500Y-87788750D03*
D11*
X114617500Y-92868750D03*
D12*
X109537500Y-92868750D03*
D13*
X105727500Y-90328750D03*
%TD*%
D11*
%TO.C,K7*%
X95567500Y-73818750D03*
X85407500Y-73818750D03*
D13*
X93027500Y-68738750D03*
X86677500Y-71278750D03*
D12*
X90487500Y-73818750D03*
%TD*%
D11*
%TO.C,K15*%
X123507500Y-92868750D03*
X133667500Y-92868750D03*
D13*
X124777500Y-90328750D03*
X131127500Y-87788750D03*
D12*
X128587500Y-92868750D03*
%TD*%
D13*
%TO.C,K19*%
X90646250Y-106838750D03*
X84296250Y-109378750D03*
D12*
X88106250Y-111918750D03*
D11*
X83026250Y-111918750D03*
X93186250Y-111918750D03*
%TD*%
D10*
%TO.C,TH3*%
X100012500Y-121443750D03*
%TD*%
D11*
%TO.C,K12*%
X190817500Y-78581250D03*
D13*
X181927500Y-76041250D03*
X188277500Y-73501250D03*
D11*
X180657500Y-78581250D03*
D12*
X185737500Y-78581250D03*
%TD*%
D18*
%TO.C,J1*%
X208193750Y-85906250D03*
X215193750Y-85906250D03*
%TD*%
D11*
%TO.C,K8*%
X114617500Y-73818750D03*
X104457500Y-73818750D03*
D13*
X112077500Y-68738750D03*
X105727500Y-71278750D03*
D12*
X109537500Y-73818750D03*
%TD*%
D13*
%TO.C,K4*%
X143827500Y-52228750D03*
X150177500Y-49688750D03*
D12*
X147637500Y-54768750D03*
D11*
X152717500Y-54768750D03*
X142557500Y-54768750D03*
%TD*%
D13*
%TO.C,K21*%
X124777500Y-109378750D03*
D11*
X133667500Y-111918750D03*
X123507500Y-111918750D03*
D13*
X131127500Y-106838750D03*
D12*
X128587500Y-111918750D03*
%TD*%
D11*
%TO.C,K13*%
X83026250Y-92868750D03*
D13*
X90646250Y-87788750D03*
D11*
X93186250Y-92868750D03*
D13*
X84296250Y-90328750D03*
D12*
X88106250Y-92868750D03*
%TD*%
D11*
%TO.C,K26*%
X104457500Y-130968750D03*
D12*
X109537500Y-130968750D03*
D11*
X114617500Y-130968750D03*
D13*
X105727500Y-128428750D03*
X112077500Y-125888750D03*
%TD*%
D10*
%TO.C,TH3*%
X183356250Y-139303125D03*
%TD*%
D13*
%TO.C,K16*%
X150177500Y-87788750D03*
D11*
X152717500Y-92868750D03*
X142557500Y-92868750D03*
D13*
X143827500Y-90328750D03*
D12*
X147637500Y-92868750D03*
%TD*%
M02*
