<?xml version="1.0"?>
<!DOCTYPE svg PUBLIC "-//W3C//DTD SVG 1.1//EN" "http://www.w3.org/Graphics/SVG/1.1/DTD/svg11.dtd">
<svg width="145.732601998929mm" height="112.42321104983485mm" viewBox="0 0 145.732601998929 112.42321104983485" xmlns="http://www.w3.org/2000/svg" version="1.1">
<g id="Circle" transform="translate(-0.952449,-0.952452) scale(1,-1)">
<path id="Circle"  d="M 105.875 -27.384375 C 106.00706993423594 -26.650264849558464 104.79472307234042 -25.95031606249181 104.225 -26.431747055837114 C 103.52320699342373 -26.684426212933356 103.52320699342353 -28.084323787066644 104.225 -28.337002944162883 C 104.79472307234033 -28.81843393750819 106.00706993423604 -28.11848515044153 105.875 -27.384375 " stroke="#191919" stroke-width="0.35 px" style="stroke-width:0.35;stroke-miterlimit:4;stroke-dasharray:none;fill:none;fill-opacity:1;fill-rule: evenodd"/>
<title>b'Circle'</title>
</g>
<g id="Circle001" transform="translate(-0.952449,-0.952452) scale(1,-1)">
<path id="Circle001"  d="M 29.674999999999997 -23.8125 C 29.807069934236026 -23.078389849558466 28.594723072340358 -22.378441062491802 28.025 -22.859872055837116 C 27.323206993423625 -23.112551212933344 27.323206993423586 -24.512448787066653 28.025 -24.76512794416288 C 28.594723072340347 -25.246558937508183 29.807069934236033 -24.54661015044153 29.674999999999997 -23.8125 " stroke="#191919" stroke-width="0.35 px" style="stroke-width:0.35;stroke-miterlimit:4;stroke-dasharray:none;fill:none;fill-opacity:1;fill-rule: evenodd"/>
<title>b'Circle001'</title>
</g>
<g id="Circle002" transform="translate(-0.952449,-0.952452) scale(1,-1)">
<path id="Circle002"  d="M 29.674999999999997 -80.96249999999999 C 29.807069934236026 -80.22838984955844 28.594723072340358 -79.52844106249178 28.025 -80.00987205583714 C 27.323206993423625 -80.26255121293342 27.323206993423586 -81.66244878706661 28.025 -81.91512794416288 C 28.594723072340347 -82.39655893750812 29.807069934236033 -81.69661015044156 29.674999999999997 -80.96249999999999 " stroke="#191919" stroke-width="0.35 px" style="stroke-width:0.35;stroke-miterlimit:4;stroke-dasharray:none;fill:none;fill-opacity:1;fill-rule: evenodd"/>
<title>b'Circle002'</title>
</g>
<g id="Circle003" transform="translate(-0.952449,-0.952452) scale(1,-1)">
<path id="Circle003"  d="M 113.01875 -98.82187499999999 C 113.15081993423593 -98.08776484955844 111.93847307234044 -97.38781606249177 111.36874999999999 -97.86924705583714 C 110.6669569934237 -98.1219262129334 110.66695699342347 -99.52182378706658 111.36874999999999 -99.77450294416288 C 111.93847307234036 -100.25593393750816 113.15081993423601 -99.5559851504415 113.01875 -98.82187499999999 " stroke="#191919" stroke-width="0.35 px" style="stroke-width:0.35;stroke-miterlimit:4;stroke-dasharray:none;fill:none;fill-opacity:1;fill-rule: evenodd"/>
<title>b'Circle003'</title>
</g>
<g id="Path" transform="translate(-0.952449,-0.952452) scale(1,-1)">
<path id="Path_w0000"  d="M 139.303125 -88.701562 C 145.25625 -52.387499999999996 145.25625 -50.006249999999994 145.25625 -47.625 " stroke="#191919" stroke-width="0.35 px" style="stroke-width:0.35;stroke-miterlimit:4;stroke-dasharray:none;fill:none;fill-opacity:1;fill-rule: evenodd"/>
<title>b'Path'</title>
</g>
<g id="Path001" transform="translate(-0.952449,-0.952452) scale(1,-1)">
<path id="Path001_w0000"  d="M 135.73125 -109.5375 L 139.303125 -88.701562 " stroke="#191919" stroke-width="0.35 px" style="stroke-width:0.35;stroke-miterlimit:4;stroke-dasharray:none;fill:none;fill-opacity:1;fill-rule: evenodd"/>
<title>b'Path001'</title>
</g>
<g id="Path002" transform="translate(-0.952449,-0.952452) scale(1,-1)">
<path id="Path002_w0000"  d="M 142.875 -7.14375 L 121.44375 -7.14375 " stroke="#191919" stroke-width="0.35 px" style="stroke-width:0.35;stroke-miterlimit:4;stroke-dasharray:none;fill:none;fill-opacity:1;fill-rule: evenodd"/>
<title>b'Path002'</title>
</g>
<g id="Path003" transform="translate(-0.952449,-0.952452) scale(1,-1)">
<path id="Path003_w0000"  d="M 78.58125 -2.38125 L 9.525 -2.38125 " stroke="#191919" stroke-width="0.35 px" style="stroke-width:0.35;stroke-miterlimit:4;stroke-dasharray:none;fill:none;fill-opacity:1;fill-rule: evenodd"/>
<title>b'Path003'</title>
</g>
<g id="Path004" transform="translate(-0.952449,-0.952452) scale(1,-1)">
<path id="Path004_w0000"  d="M 9.524996694777998 -2.3812033317259997 C 8.361422541448919 -2.3818689302229386 7.144390969518525 -3.598925801876975 7.143749559218 -4.762499968791 " stroke="#191919" stroke-width="0.35 px" style="stroke-width:0.35;stroke-miterlimit:4;stroke-dasharray:none;fill:none;fill-opacity:1;fill-rule: evenodd"/>
<title>b'Path004'</title>
</g>
<g id="Path005" transform="translate(-0.952449,-0.952452) scale(1,-1)">
<path id="Path005_w0000"  d="M 2.38125 -50.006249999999994 C 2.38125 -45.24375 2.38125 -42.8625 7.14375 -4.7625 " stroke="#191919" stroke-width="0.35 px" style="stroke-width:0.35;stroke-miterlimit:4;stroke-dasharray:none;fill:none;fill-opacity:1;fill-rule: evenodd"/>
<title>b'Path005'</title>
</g>
<g id="Path006" transform="translate(-0.952449,-0.952452) scale(1,-1)">
<path id="Path006_w0000"  d="M 2.38125 -100.01249999999999 L 2.38125 -50.006249999999994 " stroke="#191919" stroke-width="0.35 px" style="stroke-width:0.35;stroke-miterlimit:4;stroke-dasharray:none;fill:none;fill-opacity:1;fill-rule: evenodd"/>
<title>b'Path006'</title>
</g>
<g id="Path007" transform="translate(-0.952449,-0.952452) scale(1,-1)">
<path id="Path007_w0000"  d="M 145.256299999475 -9.524999998950001 C 145.3627328736951 -8.346843329092652 144.05315443478665 -7.037292387605568 142.875 -7.143749999999996 " stroke="#191919" stroke-width="0.35 px" style="stroke-width:0.35;stroke-miterlimit:4;stroke-dasharray:none;fill:none;fill-opacity:1;fill-rule: evenodd"/>
<title>b'Path007'</title>
</g>
<g id="Path008" transform="translate(-0.952449,-0.952452) scale(1,-1)">
<path id="Path008_w0000"  d="M 34.528124999999996 -102.39375 C 61.912499999999994 -102.39375 85.725 -104.77499999999999 132.5625 -111.91874999999999 " stroke="#191919" stroke-width="0.35 px" style="stroke-width:0.35;stroke-miterlimit:4;stroke-dasharray:none;fill:none;fill-opacity:1;fill-rule: evenodd"/>
<title>b'Path008'</title>
</g>
<g id="Path009" transform="translate(-0.952449,-0.952452) scale(1,-1)">
<path id="Path009_w0000"  d="M 4.7625 -102.39375 L 34.528124999999996 -102.39375 " stroke="#191919" stroke-width="0.35 px" style="stroke-width:0.35;stroke-miterlimit:4;stroke-dasharray:none;fill:none;fill-opacity:1;fill-rule: evenodd"/>
<title>b'Path009'</title>
</g>
<g id="Path010" transform="translate(-0.952449,-0.952452) scale(1,-1)">
<path id="Path010_w0000"  d="M 2.381200000525006 -100.01250000104999 C 2.27476712630494 -101.19065667090732 3.5843455652133747 -102.5002076123944 4.762500000000001 -102.39375000000001 " stroke="#191919" stroke-width="0.35 px" style="stroke-width:0.35;stroke-miterlimit:4;stroke-dasharray:none;fill:none;fill-opacity:1;fill-rule: evenodd"/>
<title>b'Path010'</title>
</g>
<g id="Path011" transform="translate(-0.952449,-0.952452) scale(1,-1)">
<path id="Path011_w0000"  d="M 145.25625 -47.625 L 145.25625 -9.525 " stroke="#191919" stroke-width="0.35 px" style="stroke-width:0.35;stroke-miterlimit:4;stroke-dasharray:none;fill:none;fill-opacity:1;fill-rule: evenodd"/>
<title>b'Path011'</title>
</g>
<g id="Path012" transform="translate(-0.952449,-0.952452) scale(1,-1)">
<path id="Path012_w0000"  d="M 100.01249999999999 -4.7625 C 85.725 -2.38125 83.34375 -2.38125 78.58125 -2.38125 " stroke="#191919" stroke-width="0.35 px" style="stroke-width:0.35;stroke-miterlimit:4;stroke-dasharray:none;fill:none;fill-opacity:1;fill-rule: evenodd"/>
<title>b'Path012'</title>
</g>
<g id="Path013" transform="translate(-0.952449,-0.952452) scale(1,-1)">
<path id="Path013_w0000"  d="M 121.44375 -7.14375 C 116.68124999999999 -7.14375 114.3 -7.14375 100.01249999999999 -4.7625 " stroke="#191919" stroke-width="0.35 px" style="stroke-width:0.35;stroke-miterlimit:4;stroke-dasharray:none;fill:none;fill-opacity:1;fill-rule: evenodd"/>
<title>b'Path013'</title>
</g>
<g id="Path014" transform="translate(-0.952449,-0.952452) scale(1,-1)">
<path id="Path014_w0000"  d="M 132.562503183738 -111.91872774033699 C 133.91778999903227 -112.23965477735688 135.6624804539348 -110.92856694719502 135.73124994979702 -109.53749999293301 " stroke="#191919" stroke-width="0.35 px" style="stroke-width:0.35;stroke-miterlimit:4;stroke-dasharray:none;fill:none;fill-opacity:1;fill-rule: evenodd"/>
<title>b'Path014'</title>
</g>
</svg>