%TF.GenerationSoftware,KiCad,Pcbnew,(6.0.4)*%
%TF.CreationDate,2022-10-11T17:37:43-05:00*%
%TF.ProjectId,GummyKey_Right,47756d6d-794b-4657-995f-52696768742e,rev?*%
%TF.SameCoordinates,Original*%
%TF.FileFunction,Soldermask,Top*%
%TF.FilePolarity,Negative*%
%FSLAX46Y46*%
G04 Gerber Fmt 4.6, Leading zero omitted, Abs format (unit mm)*
G04 Created by KiCad (PCBNEW (6.0.4)) date 2022-10-11 17:37:43*
%MOMM*%
%LPD*%
G01*
G04 APERTURE LIST*
%ADD10C,3.048000*%
%ADD11C,3.987800*%
%ADD12C,4.700000*%
%ADD13C,4.000000*%
%ADD14C,3.050000*%
%ADD15C,1.750000*%
%ADD16C,1.524000*%
%ADD17C,2.000000*%
%ADD18C,1.200000*%
G04 APERTURE END LIST*
D10*
%TO.C,*%
X112364826Y-129187319D03*
X136036563Y-126070876D03*
D11*
X114350129Y-144267196D03*
X138021867Y-141150752D03*
%TD*%
D12*
%TO.C,TH3*%
X107156250Y-139303125D03*
%TD*%
%TO.C,TH3*%
X114300000Y-67865625D03*
%TD*%
%TO.C,TH3*%
X190500000Y-64293750D03*
%TD*%
%TO.C,TH3*%
X190500000Y-121443750D03*
%TD*%
D13*
%TO.C,K14*%
X180975000Y-92868750D03*
D14*
X177165000Y-90328750D03*
D15*
X186055000Y-92868750D03*
D14*
X183515000Y-87788750D03*
D15*
X175895000Y-92868750D03*
%TD*%
%TO.C,K10*%
X137795000Y-73818750D03*
D14*
X145415000Y-68738750D03*
X139065000Y-71278750D03*
D13*
X142875000Y-73818750D03*
D15*
X147955000Y-73818750D03*
%TD*%
%TO.C,K8*%
X186055000Y-73818750D03*
X175895000Y-73818750D03*
D14*
X183515000Y-68738750D03*
D13*
X180975000Y-73818750D03*
D14*
X177165000Y-71278750D03*
%TD*%
%TO.C,K24*%
X100965000Y-114141250D03*
D15*
X109855000Y-116681250D03*
X99695000Y-116681250D03*
D13*
X104775000Y-116681250D03*
D14*
X107315000Y-111601250D03*
%TD*%
D15*
%TO.C,K5*%
X118745000Y-57150000D03*
D13*
X123825000Y-57150000D03*
D14*
X120015000Y-54610000D03*
X126365000Y-52070000D03*
D15*
X128905000Y-57150000D03*
%TD*%
D13*
%TO.C,K9*%
X161925000Y-73818750D03*
D14*
X164465000Y-68738750D03*
X158115000Y-71278750D03*
D15*
X156845000Y-73818750D03*
X167005000Y-73818750D03*
%TD*%
%TO.C,K16*%
X137795000Y-92868750D03*
X147955000Y-92868750D03*
D14*
X145415000Y-87788750D03*
D13*
X142875000Y-92868750D03*
D14*
X139065000Y-90328750D03*
%TD*%
D15*
%TO.C,K2*%
X186055000Y-54768750D03*
D14*
X183515000Y-49688750D03*
D15*
X175895000Y-54768750D03*
D14*
X177165000Y-52228750D03*
D13*
X180975000Y-54768750D03*
%TD*%
D16*
%TO.C,U1*%
X92323900Y-52197000D03*
X92323900Y-54737000D03*
X92323900Y-57277000D03*
X92323900Y-59817000D03*
X92323900Y-62357000D03*
X92323900Y-64897000D03*
X92323900Y-67437000D03*
X92323900Y-69977000D03*
X92323900Y-72517000D03*
X92323900Y-75057000D03*
X92323900Y-77597000D03*
X92323900Y-80137000D03*
X77103900Y-80137000D03*
X77103900Y-77597000D03*
X77103900Y-75057000D03*
X77103900Y-72517000D03*
X77103900Y-69977000D03*
X77103900Y-67437000D03*
X77103900Y-64897000D03*
X77103900Y-62357000D03*
X77103900Y-59817000D03*
X77103900Y-57277000D03*
X77103900Y-54737000D03*
X77103900Y-52197000D03*
%TD*%
D13*
%TO.C,K11*%
X123825000Y-76200000D03*
D14*
X120015000Y-73660000D03*
D15*
X128905000Y-76200000D03*
D14*
X126365000Y-71120000D03*
D15*
X118745000Y-76200000D03*
%TD*%
D14*
%TO.C,K26*%
X177165000Y-128428750D03*
X183515000Y-125888750D03*
D13*
X180975000Y-130968750D03*
D15*
X186055000Y-130968750D03*
X175895000Y-130968750D03*
%TD*%
%TO.C,K21*%
X167005000Y-111918750D03*
D14*
X158115000Y-109378750D03*
X164465000Y-106838750D03*
D15*
X156845000Y-111918750D03*
D13*
X161925000Y-111918750D03*
%TD*%
%TO.C,K22*%
X142875000Y-111918750D03*
D15*
X137795000Y-111918750D03*
D14*
X145415000Y-106838750D03*
X139065000Y-109378750D03*
D15*
X147955000Y-111918750D03*
%TD*%
D13*
%TO.C,K4*%
X142875000Y-54768750D03*
D15*
X137795000Y-54768750D03*
D14*
X145415000Y-49688750D03*
X139065000Y-52228750D03*
D15*
X147955000Y-54768750D03*
%TD*%
D14*
%TO.C,K18*%
X107315000Y-92551250D03*
X100965000Y-95091250D03*
D15*
X99695000Y-97631250D03*
X109855000Y-97631250D03*
D13*
X104775000Y-97631250D03*
%TD*%
D14*
%TO.C,K7*%
X196215000Y-71278750D03*
X202565000Y-68738750D03*
D15*
X205105000Y-73818750D03*
D13*
X200025000Y-73818750D03*
D15*
X194945000Y-73818750D03*
%TD*%
D14*
%TO.C,K3*%
X158115000Y-52228750D03*
X164465000Y-49688750D03*
D13*
X161925000Y-54768750D03*
D15*
X156845000Y-54768750D03*
X167005000Y-54768750D03*
%TD*%
D13*
%TO.C,K23*%
X123825000Y-114300000D03*
D15*
X118745000Y-114300000D03*
X128905000Y-114300000D03*
D14*
X120015000Y-111760000D03*
X126365000Y-109220000D03*
%TD*%
D17*
%TO.C,SW1*%
X90418750Y-84656250D03*
X90418750Y-91156250D03*
%TD*%
D13*
%TO.C,K6*%
X104775000Y-59531250D03*
D15*
X109855000Y-59531250D03*
X99695000Y-59531250D03*
D14*
X100965000Y-56991250D03*
X107315000Y-54451250D03*
%TD*%
D13*
%TO.C,K19*%
X202406250Y-111918750D03*
D15*
X207486250Y-111918750D03*
D14*
X204946250Y-106838750D03*
X198596250Y-109378750D03*
D15*
X197326250Y-111918750D03*
%TD*%
D14*
%TO.C,K1*%
X196215000Y-52228750D03*
X202565000Y-49688750D03*
D15*
X205105000Y-54768750D03*
D13*
X200025000Y-54768750D03*
D15*
X194945000Y-54768750D03*
%TD*%
%TO.C,K15*%
X167005000Y-92868750D03*
X156845000Y-92868750D03*
D13*
X161925000Y-92868750D03*
D14*
X158115000Y-90328750D03*
X164465000Y-87788750D03*
%TD*%
D15*
%TO.C,K28*%
X130148960Y-133891267D03*
D13*
X125112420Y-134554340D03*
D15*
X120075880Y-135217413D03*
D14*
X126967617Y-129186264D03*
X121003479Y-132533375D03*
%TD*%
D15*
%TO.C,K20*%
X186055000Y-111918750D03*
D14*
X183515000Y-106838750D03*
X177165000Y-109378750D03*
D13*
X180975000Y-111918750D03*
D15*
X175895000Y-111918750D03*
%TD*%
D13*
%TO.C,K25*%
X202406250Y-130968750D03*
D14*
X204946250Y-125888750D03*
D15*
X207486250Y-130968750D03*
X197326250Y-130968750D03*
D14*
X198596250Y-128428750D03*
%TD*%
D15*
%TO.C,K27*%
X156845000Y-130968750D03*
X167005000Y-130968750D03*
D13*
X161925000Y-130968750D03*
D14*
X158115000Y-128428750D03*
X164465000Y-125888750D03*
%TD*%
D13*
%TO.C,K13*%
X202406250Y-92868750D03*
D15*
X197326250Y-92868750D03*
D14*
X198596250Y-90328750D03*
X204946250Y-87788750D03*
D15*
X207486250Y-92868750D03*
%TD*%
D13*
%TO.C,K29*%
X94421005Y-138594942D03*
D15*
X89384465Y-139258015D03*
D14*
X96276202Y-133226866D03*
D15*
X99457545Y-137931869D03*
D14*
X90312064Y-136573977D03*
%TD*%
%TO.C,K12*%
X107315000Y-73501250D03*
X100965000Y-76041250D03*
D13*
X104775000Y-78581250D03*
D15*
X99695000Y-78581250D03*
X109855000Y-78581250D03*
%TD*%
D18*
%TO.C,J1*%
X82500000Y-85900000D03*
X75500000Y-85900000D03*
%TD*%
D15*
%TO.C,K17*%
X118745000Y-95250000D03*
X128905000Y-95250000D03*
D14*
X120015000Y-92710000D03*
D13*
X123825000Y-95250000D03*
D14*
X126365000Y-90170000D03*
%TD*%
M02*
