M48
; DRILL file {KiCad (6.0.4)} date Tue Oct 11 17:37:45 2022
; FORMAT={-:-/ absolute / inch / decimal}
; #@! TF.CreationDate,2022-10-11T17:37:45-05:00
; #@! TF.GenerationSoftware,Kicad,Pcbnew,(6.0.4)
; #@! TF.FileFunction,Plated,1,2,PTH
FMAT,2
INCH
; #@! TA.AperFunction,Plated,PTH,ViaDrill
T1C0.0157
; #@! TA.AperFunction,Plated,PTH,ComponentDrill
T2C0.0320
; #@! TA.AperFunction,Plated,PTH,ComponentDrill
T3C0.0394
; #@! TA.AperFunction,Plated,PTH,ComponentDrill
T4C0.0512
; #@! TA.AperFunction,Plated,PTH,ComponentDrill
T5C0.1614
%
G90
G05
T1
X3.0938Y-3.6094
X3.4688Y-5.8125
X3.6171Y-5.625
X3.9879Y-2.5312
X3.9899Y-3.2812
X3.9983Y-4.7812
X4.0002Y-4.0312
X4.5Y-3.4688
X4.7249Y-3.9375
X4.7259Y-3.1875
X4.7269Y-4.6875
X4.7279Y-2.4375
X4.8151Y-5.4844
X5.25Y-3.375
X5.3438Y-1.8281
X5.4934Y-2.3438
X5.4953Y-3.0938
X5.4973Y-3.8438
X5.4993Y-4.5938
X6.0Y-3.2812
X6.0Y-5.5312
X6.2205Y-2.3425
X6.2434Y-3.0938
X6.2453Y-3.8438
X6.2473Y-4.5938
X6.2493Y-5.3438
X6.75Y-3.2812
X6.9894Y-2.3438
X6.9914Y-3.0938
X6.9934Y-3.8438
X6.9953Y-4.5938
X6.9973Y-5.3438
X7.5Y-3.2812
X7.735Y-2.3438
X7.7394Y-3.0938
X7.8201Y-3.8438
X7.8221Y-4.5938
X7.8241Y-5.3438
X8.1562Y-1.8281
X8.3438Y-5.4375
X8.4375Y-3.4688
T2
X3.0356Y-2.055
X3.0356Y-2.155
X3.0356Y-2.255
X3.0356Y-2.355
X3.0356Y-2.455
X3.0356Y-2.555
X3.0356Y-2.655
X3.0356Y-2.755
X3.0356Y-2.855
X3.0356Y-2.955
X3.0356Y-3.055
X3.0356Y-3.155
X3.6348Y-2.055
X3.6348Y-2.155
X3.6348Y-2.255
X3.6348Y-2.355
X3.6348Y-2.455
X3.6348Y-2.555
X3.6348Y-2.655
X3.6348Y-2.755
X3.6348Y-2.855
X3.6348Y-2.955
X3.6348Y-3.055
X3.6348Y-3.155
T4
X3.5598Y-3.3329
X3.5598Y-3.5888
T5
X4.2188Y-5.4844
X4.5Y-2.6719
X7.5Y-2.5312
X7.5Y-4.7812
T3
G00X3.0335Y-3.2992
M15
G01X3.0531Y-3.2992
M16
G05
G00X3.1516Y-3.2992
M15
G01X3.1713Y-3.2992
M16
G05
G00X3.3091Y-3.2992
M15
G01X3.3287Y-3.2992
M16
G05
G00X3.3681Y-3.4646
M15
G01X3.3878Y-3.4646
M16
G05
T0
M30
