%TF.GenerationSoftware,KiCad,Pcbnew,(6.0.4)*%
%TF.CreationDate,2022-10-11T17:37:43-05:00*%
%TF.ProjectId,GummyKey_Right,47756d6d-794b-4657-995f-52696768742e,rev?*%
%TF.SameCoordinates,Original*%
%TF.FileFunction,Legend,Top*%
%TF.FilePolarity,Positive*%
%FSLAX46Y46*%
G04 Gerber Fmt 4.6, Leading zero omitted, Abs format (unit mm)*
G04 Created by KiCad (PCBNEW (6.0.4)) date 2022-10-11 17:37:43*
%MOMM*%
%LPD*%
G01*
G04 APERTURE LIST*
%ADD10C,0.150000*%
%ADD11C,0.125000*%
%ADD12C,0.120000*%
G04 APERTURE END LIST*
D10*
X84928571Y-78761904D02*
X84976190Y-78619047D01*
X85023809Y-78571428D01*
X85119047Y-78523809D01*
X85261904Y-78523809D01*
X85357142Y-78571428D01*
X85404761Y-78619047D01*
X85452380Y-78714285D01*
X85452380Y-79095238D01*
X84452380Y-79095238D01*
X84452380Y-78761904D01*
X84500000Y-78666666D01*
X84547619Y-78619047D01*
X84642857Y-78571428D01*
X84738095Y-78571428D01*
X84833333Y-78619047D01*
X84880952Y-78666666D01*
X84928571Y-78761904D01*
X84928571Y-79095238D01*
X84452380Y-77904761D02*
X84452380Y-77714285D01*
X84500000Y-77619047D01*
X84595238Y-77523809D01*
X84785714Y-77476190D01*
X85119047Y-77476190D01*
X85309523Y-77523809D01*
X85404761Y-77619047D01*
X85452380Y-77714285D01*
X85452380Y-77904761D01*
X85404761Y-78000000D01*
X85309523Y-78095238D01*
X85119047Y-78142857D01*
X84785714Y-78142857D01*
X84595238Y-78095238D01*
X84500000Y-78000000D01*
X84452380Y-77904761D01*
X84452380Y-77190476D02*
X84452380Y-76619047D01*
X85452380Y-76904761D02*
X84452380Y-76904761D01*
X84452380Y-76428571D02*
X84452380Y-75857142D01*
X85452380Y-76142857D02*
X84452380Y-76142857D01*
X84452380Y-75333333D02*
X84452380Y-75142857D01*
X84500000Y-75047619D01*
X84595238Y-74952380D01*
X84785714Y-74904761D01*
X85119047Y-74904761D01*
X85309523Y-74952380D01*
X85404761Y-75047619D01*
X85452380Y-75142857D01*
X85452380Y-75333333D01*
X85404761Y-75428571D01*
X85309523Y-75523809D01*
X85119047Y-75571428D01*
X84785714Y-75571428D01*
X84595238Y-75523809D01*
X84500000Y-75428571D01*
X84452380Y-75333333D01*
X85452380Y-74476190D02*
X84452380Y-74476190D01*
X85166666Y-74142857D01*
X84452380Y-73809523D01*
X85452380Y-73809523D01*
X85404761Y-72619047D02*
X85452380Y-72476190D01*
X85452380Y-72238095D01*
X85404761Y-72142857D01*
X85357142Y-72095238D01*
X85261904Y-72047619D01*
X85166666Y-72047619D01*
X85071428Y-72095238D01*
X85023809Y-72142857D01*
X84976190Y-72238095D01*
X84928571Y-72428571D01*
X84880952Y-72523809D01*
X84833333Y-72571428D01*
X84738095Y-72619047D01*
X84642857Y-72619047D01*
X84547619Y-72571428D01*
X84500000Y-72523809D01*
X84452380Y-72428571D01*
X84452380Y-72190476D01*
X84500000Y-72047619D01*
X85452380Y-71619047D02*
X84452380Y-71619047D01*
X85452380Y-71142857D02*
X84452380Y-71142857D01*
X84452380Y-70904761D01*
X84500000Y-70761904D01*
X84595238Y-70666666D01*
X84690476Y-70619047D01*
X84880952Y-70571428D01*
X85023809Y-70571428D01*
X85214285Y-70619047D01*
X85309523Y-70666666D01*
X85404761Y-70761904D01*
X85452380Y-70904761D01*
X85452380Y-71142857D01*
X84928571Y-70142857D02*
X84928571Y-69809523D01*
X85452380Y-69666666D02*
X85452380Y-70142857D01*
X84452380Y-70142857D01*
X84452380Y-69666666D01*
X84452380Y-68476190D02*
X85261904Y-68476190D01*
X85357142Y-68428571D01*
X85404761Y-68380952D01*
X85452380Y-68285714D01*
X85452380Y-68095238D01*
X85404761Y-68000000D01*
X85357142Y-67952380D01*
X85261904Y-67904761D01*
X84452380Y-67904761D01*
X85452380Y-67428571D02*
X84452380Y-67428571D01*
X84452380Y-67047619D01*
X84500000Y-66952380D01*
X84547619Y-66904761D01*
X84642857Y-66857142D01*
X84785714Y-66857142D01*
X84880952Y-66904761D01*
X84928571Y-66952380D01*
X84976190Y-67047619D01*
X84976190Y-67428571D01*
%TO.C,K14*%
X179760714Y-85321130D02*
X179760714Y-84321130D01*
X180332142Y-85321130D02*
X179903571Y-84749702D01*
X180332142Y-84321130D02*
X179760714Y-84892559D01*
X181284523Y-85321130D02*
X180713095Y-85321130D01*
X180998809Y-85321130D02*
X180998809Y-84321130D01*
X180903571Y-84463988D01*
X180808333Y-84559226D01*
X180713095Y-84606845D01*
X182141666Y-84654464D02*
X182141666Y-85321130D01*
X181903571Y-84273511D02*
X181665476Y-84987797D01*
X182284523Y-84987797D01*
%TO.C,K10*%
X141660714Y-66271130D02*
X141660714Y-65271130D01*
X142232142Y-66271130D02*
X141803571Y-65699702D01*
X142232142Y-65271130D02*
X141660714Y-65842559D01*
X143184523Y-66271130D02*
X142613095Y-66271130D01*
X142898809Y-66271130D02*
X142898809Y-65271130D01*
X142803571Y-65413988D01*
X142708333Y-65509226D01*
X142613095Y-65556845D01*
X143803571Y-65271130D02*
X143898809Y-65271130D01*
X143994047Y-65318750D01*
X144041666Y-65366369D01*
X144089285Y-65461607D01*
X144136904Y-65652083D01*
X144136904Y-65890178D01*
X144089285Y-66080654D01*
X144041666Y-66175892D01*
X143994047Y-66223511D01*
X143898809Y-66271130D01*
X143803571Y-66271130D01*
X143708333Y-66223511D01*
X143660714Y-66175892D01*
X143613095Y-66080654D01*
X143565476Y-65890178D01*
X143565476Y-65652083D01*
X143613095Y-65461607D01*
X143660714Y-65366369D01*
X143708333Y-65318750D01*
X143803571Y-65271130D01*
%TO.C,K8*%
X180236904Y-66271130D02*
X180236904Y-65271130D01*
X180808333Y-66271130D02*
X180379761Y-65699702D01*
X180808333Y-65271130D02*
X180236904Y-65842559D01*
X181379761Y-65699702D02*
X181284523Y-65652083D01*
X181236904Y-65604464D01*
X181189285Y-65509226D01*
X181189285Y-65461607D01*
X181236904Y-65366369D01*
X181284523Y-65318750D01*
X181379761Y-65271130D01*
X181570238Y-65271130D01*
X181665476Y-65318750D01*
X181713095Y-65366369D01*
X181760714Y-65461607D01*
X181760714Y-65509226D01*
X181713095Y-65604464D01*
X181665476Y-65652083D01*
X181570238Y-65699702D01*
X181379761Y-65699702D01*
X181284523Y-65747321D01*
X181236904Y-65794940D01*
X181189285Y-65890178D01*
X181189285Y-66080654D01*
X181236904Y-66175892D01*
X181284523Y-66223511D01*
X181379761Y-66271130D01*
X181570238Y-66271130D01*
X181665476Y-66223511D01*
X181713095Y-66175892D01*
X181760714Y-66080654D01*
X181760714Y-65890178D01*
X181713095Y-65794940D01*
X181665476Y-65747321D01*
X181570238Y-65699702D01*
%TO.C,K24*%
X103560714Y-109133630D02*
X103560714Y-108133630D01*
X104132142Y-109133630D02*
X103703571Y-108562202D01*
X104132142Y-108133630D02*
X103560714Y-108705059D01*
X104513095Y-108228869D02*
X104560714Y-108181250D01*
X104655952Y-108133630D01*
X104894047Y-108133630D01*
X104989285Y-108181250D01*
X105036904Y-108228869D01*
X105084523Y-108324107D01*
X105084523Y-108419345D01*
X105036904Y-108562202D01*
X104465476Y-109133630D01*
X105084523Y-109133630D01*
X105941666Y-108466964D02*
X105941666Y-109133630D01*
X105703571Y-108086011D02*
X105465476Y-108800297D01*
X106084523Y-108800297D01*
%TO.C,K5*%
X123086904Y-49602380D02*
X123086904Y-48602380D01*
X123658333Y-49602380D02*
X123229761Y-49030952D01*
X123658333Y-48602380D02*
X123086904Y-49173809D01*
X124563095Y-48602380D02*
X124086904Y-48602380D01*
X124039285Y-49078571D01*
X124086904Y-49030952D01*
X124182142Y-48983333D01*
X124420238Y-48983333D01*
X124515476Y-49030952D01*
X124563095Y-49078571D01*
X124610714Y-49173809D01*
X124610714Y-49411904D01*
X124563095Y-49507142D01*
X124515476Y-49554761D01*
X124420238Y-49602380D01*
X124182142Y-49602380D01*
X124086904Y-49554761D01*
X124039285Y-49507142D01*
%TO.C,K9*%
X161186904Y-66271130D02*
X161186904Y-65271130D01*
X161758333Y-66271130D02*
X161329761Y-65699702D01*
X161758333Y-65271130D02*
X161186904Y-65842559D01*
X162234523Y-66271130D02*
X162425000Y-66271130D01*
X162520238Y-66223511D01*
X162567857Y-66175892D01*
X162663095Y-66033035D01*
X162710714Y-65842559D01*
X162710714Y-65461607D01*
X162663095Y-65366369D01*
X162615476Y-65318750D01*
X162520238Y-65271130D01*
X162329761Y-65271130D01*
X162234523Y-65318750D01*
X162186904Y-65366369D01*
X162139285Y-65461607D01*
X162139285Y-65699702D01*
X162186904Y-65794940D01*
X162234523Y-65842559D01*
X162329761Y-65890178D01*
X162520238Y-65890178D01*
X162615476Y-65842559D01*
X162663095Y-65794940D01*
X162710714Y-65699702D01*
%TO.C,K16*%
X141660714Y-85321130D02*
X141660714Y-84321130D01*
X142232142Y-85321130D02*
X141803571Y-84749702D01*
X142232142Y-84321130D02*
X141660714Y-84892559D01*
X143184523Y-85321130D02*
X142613095Y-85321130D01*
X142898809Y-85321130D02*
X142898809Y-84321130D01*
X142803571Y-84463988D01*
X142708333Y-84559226D01*
X142613095Y-84606845D01*
X144041666Y-84321130D02*
X143851190Y-84321130D01*
X143755952Y-84368750D01*
X143708333Y-84416369D01*
X143613095Y-84559226D01*
X143565476Y-84749702D01*
X143565476Y-85130654D01*
X143613095Y-85225892D01*
X143660714Y-85273511D01*
X143755952Y-85321130D01*
X143946428Y-85321130D01*
X144041666Y-85273511D01*
X144089285Y-85225892D01*
X144136904Y-85130654D01*
X144136904Y-84892559D01*
X144089285Y-84797321D01*
X144041666Y-84749702D01*
X143946428Y-84702083D01*
X143755952Y-84702083D01*
X143660714Y-84749702D01*
X143613095Y-84797321D01*
X143565476Y-84892559D01*
%TO.C,K2*%
X180236904Y-47221130D02*
X180236904Y-46221130D01*
X180808333Y-47221130D02*
X180379761Y-46649702D01*
X180808333Y-46221130D02*
X180236904Y-46792559D01*
X181189285Y-46316369D02*
X181236904Y-46268750D01*
X181332142Y-46221130D01*
X181570238Y-46221130D01*
X181665476Y-46268750D01*
X181713095Y-46316369D01*
X181760714Y-46411607D01*
X181760714Y-46506845D01*
X181713095Y-46649702D01*
X181141666Y-47221130D01*
X181760714Y-47221130D01*
D11*
%TO.C,U1*%
X78881785Y-67550000D02*
X79200833Y-67550000D01*
X78817976Y-67764285D02*
X79041309Y-67014285D01*
X79264642Y-67764285D01*
X79838928Y-67764285D02*
X79456071Y-67764285D01*
X79647500Y-67764285D02*
X79647500Y-67014285D01*
X79583690Y-67121428D01*
X79519880Y-67192857D01*
X79456071Y-67228571D01*
X80604642Y-66978571D02*
X80030357Y-67942857D01*
X81051309Y-67371428D02*
X80827976Y-67371428D01*
X80827976Y-67764285D02*
X80827976Y-67014285D01*
X81147023Y-67014285D01*
X81689404Y-67014285D02*
X81561785Y-67014285D01*
X81497976Y-67050000D01*
X81466071Y-67085714D01*
X81402261Y-67192857D01*
X81370357Y-67335714D01*
X81370357Y-67621428D01*
X81402261Y-67692857D01*
X81434166Y-67728571D01*
X81497976Y-67764285D01*
X81625595Y-67764285D01*
X81689404Y-67728571D01*
X81721309Y-67692857D01*
X81753214Y-67621428D01*
X81753214Y-67442857D01*
X81721309Y-67371428D01*
X81689404Y-67335714D01*
X81625595Y-67300000D01*
X81497976Y-67300000D01*
X81434166Y-67335714D01*
X81402261Y-67371428D01*
X81370357Y-67442857D01*
X79114380Y-52536285D02*
X78891047Y-52179142D01*
X78731523Y-52536285D02*
X78731523Y-51786285D01*
X78986761Y-51786285D01*
X79050571Y-51822000D01*
X79082476Y-51857714D01*
X79114380Y-51929142D01*
X79114380Y-52036285D01*
X79082476Y-52107714D01*
X79050571Y-52143428D01*
X78986761Y-52179142D01*
X78731523Y-52179142D01*
X79369619Y-52322000D02*
X79688666Y-52322000D01*
X79305809Y-52536285D02*
X79529142Y-51786285D01*
X79752476Y-52536285D01*
X79912000Y-51786285D02*
X80071523Y-52536285D01*
X80199142Y-52000571D01*
X80326761Y-52536285D01*
X80486285Y-51786285D01*
X79184880Y-77964285D02*
X78802023Y-77964285D01*
X78993452Y-77964285D02*
X78993452Y-77214285D01*
X78929642Y-77321428D01*
X78865833Y-77392857D01*
X78802023Y-77428571D01*
X79759166Y-77214285D02*
X79631547Y-77214285D01*
X79567738Y-77250000D01*
X79535833Y-77285714D01*
X79472023Y-77392857D01*
X79440119Y-77535714D01*
X79440119Y-77821428D01*
X79472023Y-77892857D01*
X79503928Y-77928571D01*
X79567738Y-77964285D01*
X79695357Y-77964285D01*
X79759166Y-77928571D01*
X79791071Y-77892857D01*
X79822976Y-77821428D01*
X79822976Y-77642857D01*
X79791071Y-77571428D01*
X79759166Y-77535714D01*
X79695357Y-77500000D01*
X79567738Y-77500000D01*
X79503928Y-77535714D01*
X79472023Y-77571428D01*
X79440119Y-77642857D01*
X80588690Y-77178571D02*
X80014404Y-78142857D01*
X81035357Y-77571428D02*
X81131071Y-77607142D01*
X81162976Y-77642857D01*
X81194880Y-77714285D01*
X81194880Y-77821428D01*
X81162976Y-77892857D01*
X81131071Y-77928571D01*
X81067261Y-77964285D01*
X80812023Y-77964285D01*
X80812023Y-77214285D01*
X81035357Y-77214285D01*
X81099166Y-77250000D01*
X81131071Y-77285714D01*
X81162976Y-77357142D01*
X81162976Y-77428571D01*
X81131071Y-77500000D01*
X81099166Y-77535714D01*
X81035357Y-77571428D01*
X80812023Y-77571428D01*
X81450119Y-77285714D02*
X81482023Y-77250000D01*
X81545833Y-77214285D01*
X81705357Y-77214285D01*
X81769166Y-77250000D01*
X81801071Y-77285714D01*
X81832976Y-77357142D01*
X81832976Y-77428571D01*
X81801071Y-77535714D01*
X81418214Y-77964285D01*
X81832976Y-77964285D01*
X88635833Y-70092857D02*
X88603928Y-70128571D01*
X88508214Y-70164285D01*
X88444404Y-70164285D01*
X88348690Y-70128571D01*
X88284880Y-70057142D01*
X88252976Y-69985714D01*
X88221071Y-69842857D01*
X88221071Y-69735714D01*
X88252976Y-69592857D01*
X88284880Y-69521428D01*
X88348690Y-69450000D01*
X88444404Y-69414285D01*
X88508214Y-69414285D01*
X88603928Y-69450000D01*
X88635833Y-69485714D01*
X89210119Y-69414285D02*
X89082500Y-69414285D01*
X89018690Y-69450000D01*
X88986785Y-69485714D01*
X88922976Y-69592857D01*
X88891071Y-69735714D01*
X88891071Y-70021428D01*
X88922976Y-70092857D01*
X88954880Y-70128571D01*
X89018690Y-70164285D01*
X89146309Y-70164285D01*
X89210119Y-70128571D01*
X89242023Y-70092857D01*
X89273928Y-70021428D01*
X89273928Y-69842857D01*
X89242023Y-69771428D01*
X89210119Y-69735714D01*
X89146309Y-69700000D01*
X89018690Y-69700000D01*
X88954880Y-69735714D01*
X88922976Y-69771428D01*
X88891071Y-69842857D01*
X90039642Y-69378571D02*
X89465357Y-70342857D01*
X90582023Y-69414285D02*
X90262976Y-69414285D01*
X90231071Y-69771428D01*
X90262976Y-69735714D01*
X90326785Y-69700000D01*
X90486309Y-69700000D01*
X90550119Y-69735714D01*
X90582023Y-69771428D01*
X90613928Y-69842857D01*
X90613928Y-70021428D01*
X90582023Y-70092857D01*
X90550119Y-70128571D01*
X90486309Y-70164285D01*
X90326785Y-70164285D01*
X90262976Y-70128571D01*
X90231071Y-70092857D01*
X78644166Y-59349285D02*
X78867500Y-60099285D01*
X79090833Y-59349285D01*
X79697023Y-60027857D02*
X79665119Y-60063571D01*
X79569404Y-60099285D01*
X79505595Y-60099285D01*
X79409880Y-60063571D01*
X79346071Y-59992142D01*
X79314166Y-59920714D01*
X79282261Y-59777857D01*
X79282261Y-59670714D01*
X79314166Y-59527857D01*
X79346071Y-59456428D01*
X79409880Y-59385000D01*
X79505595Y-59349285D01*
X79569404Y-59349285D01*
X79665119Y-59385000D01*
X79697023Y-59420714D01*
X80367023Y-60027857D02*
X80335119Y-60063571D01*
X80239404Y-60099285D01*
X80175595Y-60099285D01*
X80079880Y-60063571D01*
X80016071Y-59992142D01*
X79984166Y-59920714D01*
X79952261Y-59777857D01*
X79952261Y-59670714D01*
X79984166Y-59527857D01*
X80016071Y-59456428D01*
X80079880Y-59385000D01*
X80175595Y-59349285D01*
X80239404Y-59349285D01*
X80335119Y-59385000D01*
X80367023Y-59420714D01*
X78881785Y-70100000D02*
X79200833Y-70100000D01*
X78817976Y-70314285D02*
X79041309Y-69564285D01*
X79264642Y-70314285D01*
X79615595Y-69564285D02*
X79679404Y-69564285D01*
X79743214Y-69600000D01*
X79775119Y-69635714D01*
X79807023Y-69707142D01*
X79838928Y-69850000D01*
X79838928Y-70028571D01*
X79807023Y-70171428D01*
X79775119Y-70242857D01*
X79743214Y-70278571D01*
X79679404Y-70314285D01*
X79615595Y-70314285D01*
X79551785Y-70278571D01*
X79519880Y-70242857D01*
X79487976Y-70171428D01*
X79456071Y-70028571D01*
X79456071Y-69850000D01*
X79487976Y-69707142D01*
X79519880Y-69635714D01*
X79551785Y-69600000D01*
X79615595Y-69564285D01*
X80604642Y-69528571D02*
X80030357Y-70492857D01*
X81051309Y-69921428D02*
X80827976Y-69921428D01*
X80827976Y-70314285D02*
X80827976Y-69564285D01*
X81147023Y-69564285D01*
X81338452Y-69564285D02*
X81785119Y-69564285D01*
X81497976Y-70314285D01*
X88476309Y-79921428D02*
X88572023Y-79957142D01*
X88603928Y-79992857D01*
X88635833Y-80064285D01*
X88635833Y-80171428D01*
X88603928Y-80242857D01*
X88572023Y-80278571D01*
X88508214Y-80314285D01*
X88252976Y-80314285D01*
X88252976Y-79564285D01*
X88476309Y-79564285D01*
X88540119Y-79600000D01*
X88572023Y-79635714D01*
X88603928Y-79707142D01*
X88603928Y-79778571D01*
X88572023Y-79850000D01*
X88540119Y-79885714D01*
X88476309Y-79921428D01*
X88252976Y-79921428D01*
X89242023Y-79564285D02*
X88922976Y-79564285D01*
X88891071Y-79921428D01*
X88922976Y-79885714D01*
X88986785Y-79850000D01*
X89146309Y-79850000D01*
X89210119Y-79885714D01*
X89242023Y-79921428D01*
X89273928Y-79992857D01*
X89273928Y-80171428D01*
X89242023Y-80242857D01*
X89210119Y-80278571D01*
X89146309Y-80314285D01*
X88986785Y-80314285D01*
X88922976Y-80278571D01*
X88891071Y-80242857D01*
X90039642Y-79528571D02*
X89465357Y-80492857D01*
X90294880Y-80314285D02*
X90422500Y-80314285D01*
X90486309Y-80278571D01*
X90518214Y-80242857D01*
X90582023Y-80135714D01*
X90613928Y-79992857D01*
X90613928Y-79707142D01*
X90582023Y-79635714D01*
X90550119Y-79600000D01*
X90486309Y-79564285D01*
X90358690Y-79564285D01*
X90294880Y-79600000D01*
X90262976Y-79635714D01*
X90231071Y-79707142D01*
X90231071Y-79885714D01*
X90262976Y-79957142D01*
X90294880Y-79992857D01*
X90358690Y-80028571D01*
X90486309Y-80028571D01*
X90550119Y-79992857D01*
X90582023Y-79957142D01*
X90613928Y-79885714D01*
X85694880Y-65078571D02*
X85790595Y-65114285D01*
X85950119Y-65114285D01*
X86013928Y-65078571D01*
X86045833Y-65042857D01*
X86077738Y-64971428D01*
X86077738Y-64900000D01*
X86045833Y-64828571D01*
X86013928Y-64792857D01*
X85950119Y-64757142D01*
X85822500Y-64721428D01*
X85758690Y-64685714D01*
X85726785Y-64650000D01*
X85694880Y-64578571D01*
X85694880Y-64507142D01*
X85726785Y-64435714D01*
X85758690Y-64400000D01*
X85822500Y-64364285D01*
X85982023Y-64364285D01*
X86077738Y-64400000D01*
X86747738Y-65042857D02*
X86715833Y-65078571D01*
X86620119Y-65114285D01*
X86556309Y-65114285D01*
X86460595Y-65078571D01*
X86396785Y-65007142D01*
X86364880Y-64935714D01*
X86332976Y-64792857D01*
X86332976Y-64685714D01*
X86364880Y-64542857D01*
X86396785Y-64471428D01*
X86460595Y-64400000D01*
X86556309Y-64364285D01*
X86620119Y-64364285D01*
X86715833Y-64400000D01*
X86747738Y-64435714D01*
X87353928Y-65114285D02*
X87034880Y-65114285D01*
X87034880Y-64364285D01*
X88055833Y-64328571D02*
X87481547Y-65292857D01*
X88279166Y-65114285D02*
X88279166Y-64364285D01*
X88438690Y-64364285D01*
X88534404Y-64400000D01*
X88598214Y-64471428D01*
X88630119Y-64542857D01*
X88662023Y-64685714D01*
X88662023Y-64792857D01*
X88630119Y-64935714D01*
X88598214Y-65007142D01*
X88534404Y-65078571D01*
X88438690Y-65114285D01*
X88279166Y-65114285D01*
X89076785Y-64364285D02*
X89140595Y-64364285D01*
X89204404Y-64400000D01*
X89236309Y-64435714D01*
X89268214Y-64507142D01*
X89300119Y-64650000D01*
X89300119Y-64828571D01*
X89268214Y-64971428D01*
X89236309Y-65042857D01*
X89204404Y-65078571D01*
X89140595Y-65114285D01*
X89076785Y-65114285D01*
X89012976Y-65078571D01*
X88981071Y-65042857D01*
X88949166Y-64971428D01*
X88917261Y-64828571D01*
X88917261Y-64650000D01*
X88949166Y-64507142D01*
X88981071Y-64435714D01*
X89012976Y-64400000D01*
X89076785Y-64364285D01*
X90065833Y-64328571D02*
X89491547Y-65292857D01*
X90225357Y-64364285D02*
X90640119Y-64364285D01*
X90416785Y-64650000D01*
X90512500Y-64650000D01*
X90576309Y-64685714D01*
X90608214Y-64721428D01*
X90640119Y-64792857D01*
X90640119Y-64971428D01*
X90608214Y-65042857D01*
X90576309Y-65078571D01*
X90512500Y-65114285D01*
X90321071Y-65114285D01*
X90257261Y-65078571D01*
X90225357Y-65042857D01*
X79184880Y-75414285D02*
X78802023Y-75414285D01*
X78993452Y-75414285D02*
X78993452Y-74664285D01*
X78929642Y-74771428D01*
X78865833Y-74842857D01*
X78802023Y-74878571D01*
X79759166Y-74914285D02*
X79759166Y-75414285D01*
X79599642Y-74628571D02*
X79440119Y-75164285D01*
X79854880Y-75164285D01*
X80588690Y-74628571D02*
X80014404Y-75592857D01*
X81035357Y-75021428D02*
X81131071Y-75057142D01*
X81162976Y-75092857D01*
X81194880Y-75164285D01*
X81194880Y-75271428D01*
X81162976Y-75342857D01*
X81131071Y-75378571D01*
X81067261Y-75414285D01*
X80812023Y-75414285D01*
X80812023Y-74664285D01*
X81035357Y-74664285D01*
X81099166Y-74700000D01*
X81131071Y-74735714D01*
X81162976Y-74807142D01*
X81162976Y-74878571D01*
X81131071Y-74950000D01*
X81099166Y-74985714D01*
X81035357Y-75021428D01*
X80812023Y-75021428D01*
X81418214Y-74664285D02*
X81832976Y-74664285D01*
X81609642Y-74950000D01*
X81705357Y-74950000D01*
X81769166Y-74985714D01*
X81801071Y-75021428D01*
X81832976Y-75092857D01*
X81832976Y-75271428D01*
X81801071Y-75342857D01*
X81769166Y-75378571D01*
X81705357Y-75414285D01*
X81513928Y-75414285D01*
X81450119Y-75378571D01*
X81418214Y-75342857D01*
X85678928Y-62578571D02*
X85774642Y-62614285D01*
X85934166Y-62614285D01*
X85997976Y-62578571D01*
X86029880Y-62542857D01*
X86061785Y-62471428D01*
X86061785Y-62400000D01*
X86029880Y-62328571D01*
X85997976Y-62292857D01*
X85934166Y-62257142D01*
X85806547Y-62221428D01*
X85742738Y-62185714D01*
X85710833Y-62150000D01*
X85678928Y-62078571D01*
X85678928Y-62007142D01*
X85710833Y-61935714D01*
X85742738Y-61900000D01*
X85806547Y-61864285D01*
X85966071Y-61864285D01*
X86061785Y-61900000D01*
X86348928Y-62614285D02*
X86348928Y-61864285D01*
X86508452Y-61864285D01*
X86604166Y-61900000D01*
X86667976Y-61971428D01*
X86699880Y-62042857D01*
X86731785Y-62185714D01*
X86731785Y-62292857D01*
X86699880Y-62435714D01*
X86667976Y-62507142D01*
X86604166Y-62578571D01*
X86508452Y-62614285D01*
X86348928Y-62614285D01*
X86987023Y-62400000D02*
X87306071Y-62400000D01*
X86923214Y-62614285D02*
X87146547Y-61864285D01*
X87369880Y-62614285D01*
X88071785Y-61828571D02*
X87497500Y-62792857D01*
X88295119Y-62614285D02*
X88295119Y-61864285D01*
X88454642Y-61864285D01*
X88550357Y-61900000D01*
X88614166Y-61971428D01*
X88646071Y-62042857D01*
X88677976Y-62185714D01*
X88677976Y-62292857D01*
X88646071Y-62435714D01*
X88614166Y-62507142D01*
X88550357Y-62578571D01*
X88454642Y-62614285D01*
X88295119Y-62614285D01*
X89316071Y-62614285D02*
X88933214Y-62614285D01*
X89124642Y-62614285D02*
X89124642Y-61864285D01*
X89060833Y-61971428D01*
X88997023Y-62042857D01*
X88933214Y-62078571D01*
X90081785Y-61828571D02*
X89507500Y-62792857D01*
X90273214Y-61935714D02*
X90305119Y-61900000D01*
X90368928Y-61864285D01*
X90528452Y-61864285D01*
X90592261Y-61900000D01*
X90624166Y-61935714D01*
X90656071Y-62007142D01*
X90656071Y-62078571D01*
X90624166Y-62185714D01*
X90241309Y-62614285D01*
X90656071Y-62614285D01*
X88252976Y-67614285D02*
X88252976Y-66864285D01*
X88412500Y-66864285D01*
X88508214Y-66900000D01*
X88572023Y-66971428D01*
X88603928Y-67042857D01*
X88635833Y-67185714D01*
X88635833Y-67292857D01*
X88603928Y-67435714D01*
X88572023Y-67507142D01*
X88508214Y-67578571D01*
X88412500Y-67614285D01*
X88252976Y-67614285D01*
X89210119Y-67114285D02*
X89210119Y-67614285D01*
X89050595Y-66828571D02*
X88891071Y-67364285D01*
X89305833Y-67364285D01*
X90039642Y-66828571D02*
X89465357Y-67792857D01*
X90550119Y-67114285D02*
X90550119Y-67614285D01*
X90390595Y-66828571D02*
X90231071Y-67364285D01*
X90645833Y-67364285D01*
X79210095Y-57679785D02*
X78986761Y-57322642D01*
X78827238Y-57679785D02*
X78827238Y-56929785D01*
X79082476Y-56929785D01*
X79146285Y-56965500D01*
X79178190Y-57001214D01*
X79210095Y-57072642D01*
X79210095Y-57179785D01*
X79178190Y-57251214D01*
X79146285Y-57286928D01*
X79082476Y-57322642D01*
X78827238Y-57322642D01*
X79465333Y-57644071D02*
X79561047Y-57679785D01*
X79720571Y-57679785D01*
X79784380Y-57644071D01*
X79816285Y-57608357D01*
X79848190Y-57536928D01*
X79848190Y-57465500D01*
X79816285Y-57394071D01*
X79784380Y-57358357D01*
X79720571Y-57322642D01*
X79592952Y-57286928D01*
X79529142Y-57251214D01*
X79497238Y-57215500D01*
X79465333Y-57144071D01*
X79465333Y-57072642D01*
X79497238Y-57001214D01*
X79529142Y-56965500D01*
X79592952Y-56929785D01*
X79752476Y-56929785D01*
X79848190Y-56965500D01*
X80039619Y-56929785D02*
X80422476Y-56929785D01*
X80231047Y-57679785D02*
X80231047Y-56929785D01*
X89157023Y-56950000D02*
X89093214Y-56914285D01*
X88997500Y-56914285D01*
X88901785Y-56950000D01*
X88837976Y-57021428D01*
X88806071Y-57092857D01*
X88774166Y-57235714D01*
X88774166Y-57342857D01*
X88806071Y-57485714D01*
X88837976Y-57557142D01*
X88901785Y-57628571D01*
X88997500Y-57664285D01*
X89061309Y-57664285D01*
X89157023Y-57628571D01*
X89188928Y-57592857D01*
X89188928Y-57342857D01*
X89061309Y-57342857D01*
X89476071Y-57664285D02*
X89476071Y-56914285D01*
X89858928Y-57664285D01*
X89858928Y-56914285D01*
X90177976Y-57664285D02*
X90177976Y-56914285D01*
X90337500Y-56914285D01*
X90433214Y-56950000D01*
X90497023Y-57021428D01*
X90528928Y-57092857D01*
X90560833Y-57235714D01*
X90560833Y-57342857D01*
X90528928Y-57485714D01*
X90497023Y-57557142D01*
X90433214Y-57628571D01*
X90337500Y-57664285D01*
X90177976Y-57664285D01*
X88476309Y-77421428D02*
X88572023Y-77457142D01*
X88603928Y-77492857D01*
X88635833Y-77564285D01*
X88635833Y-77671428D01*
X88603928Y-77742857D01*
X88572023Y-77778571D01*
X88508214Y-77814285D01*
X88252976Y-77814285D01*
X88252976Y-77064285D01*
X88476309Y-77064285D01*
X88540119Y-77100000D01*
X88572023Y-77135714D01*
X88603928Y-77207142D01*
X88603928Y-77278571D01*
X88572023Y-77350000D01*
X88540119Y-77385714D01*
X88476309Y-77421428D01*
X88252976Y-77421428D01*
X89210119Y-77314285D02*
X89210119Y-77814285D01*
X89050595Y-77028571D02*
X88891071Y-77564285D01*
X89305833Y-77564285D01*
X90039642Y-77028571D02*
X89465357Y-77992857D01*
X90358690Y-77385714D02*
X90294880Y-77350000D01*
X90262976Y-77314285D01*
X90231071Y-77242857D01*
X90231071Y-77207142D01*
X90262976Y-77135714D01*
X90294880Y-77100000D01*
X90358690Y-77064285D01*
X90486309Y-77064285D01*
X90550119Y-77100000D01*
X90582023Y-77135714D01*
X90613928Y-77207142D01*
X90613928Y-77242857D01*
X90582023Y-77314285D01*
X90550119Y-77350000D01*
X90486309Y-77385714D01*
X90358690Y-77385714D01*
X90294880Y-77421428D01*
X90262976Y-77457142D01*
X90231071Y-77528571D01*
X90231071Y-77671428D01*
X90262976Y-77742857D01*
X90294880Y-77778571D01*
X90358690Y-77814285D01*
X90486309Y-77814285D01*
X90550119Y-77778571D01*
X90582023Y-77742857D01*
X90613928Y-77671428D01*
X90613928Y-77528571D01*
X90582023Y-77457142D01*
X90550119Y-77421428D01*
X90486309Y-77385714D01*
X87048928Y-55114285D02*
X87048928Y-54364285D01*
X87208452Y-54364285D01*
X87304166Y-54400000D01*
X87367976Y-54471428D01*
X87399880Y-54542857D01*
X87431785Y-54685714D01*
X87431785Y-54792857D01*
X87399880Y-54935714D01*
X87367976Y-55007142D01*
X87304166Y-55078571D01*
X87208452Y-55114285D01*
X87048928Y-55114285D01*
X87687023Y-54435714D02*
X87718928Y-54400000D01*
X87782738Y-54364285D01*
X87942261Y-54364285D01*
X88006071Y-54400000D01*
X88037976Y-54435714D01*
X88069880Y-54507142D01*
X88069880Y-54578571D01*
X88037976Y-54685714D01*
X87655119Y-55114285D01*
X88069880Y-55114285D01*
X88835595Y-54328571D02*
X88261309Y-55292857D01*
X89441785Y-55114285D02*
X89218452Y-54757142D01*
X89058928Y-55114285D02*
X89058928Y-54364285D01*
X89314166Y-54364285D01*
X89377976Y-54400000D01*
X89409880Y-54435714D01*
X89441785Y-54507142D01*
X89441785Y-54614285D01*
X89409880Y-54685714D01*
X89377976Y-54721428D01*
X89314166Y-54757142D01*
X89058928Y-54757142D01*
X89665119Y-54364285D02*
X90111785Y-55114285D01*
X90111785Y-54364285D02*
X89665119Y-55114285D01*
X90717976Y-55114285D02*
X90335119Y-55114285D01*
X90526547Y-55114285D02*
X90526547Y-54364285D01*
X90462738Y-54471428D01*
X90398928Y-54542857D01*
X90335119Y-54578571D01*
X88252976Y-72714285D02*
X88252976Y-71964285D01*
X88412500Y-71964285D01*
X88508214Y-72000000D01*
X88572023Y-72071428D01*
X88603928Y-72142857D01*
X88635833Y-72285714D01*
X88635833Y-72392857D01*
X88603928Y-72535714D01*
X88572023Y-72607142D01*
X88508214Y-72678571D01*
X88412500Y-72714285D01*
X88252976Y-72714285D01*
X88859166Y-71964285D02*
X89305833Y-71964285D01*
X89018690Y-72714285D01*
X90039642Y-71928571D02*
X89465357Y-72892857D01*
X90550119Y-71964285D02*
X90422500Y-71964285D01*
X90358690Y-72000000D01*
X90326785Y-72035714D01*
X90262976Y-72142857D01*
X90231071Y-72285714D01*
X90231071Y-72571428D01*
X90262976Y-72642857D01*
X90294880Y-72678571D01*
X90358690Y-72714285D01*
X90486309Y-72714285D01*
X90550119Y-72678571D01*
X90582023Y-72642857D01*
X90613928Y-72571428D01*
X90613928Y-72392857D01*
X90582023Y-72321428D01*
X90550119Y-72285714D01*
X90486309Y-72250000D01*
X90358690Y-72250000D01*
X90294880Y-72285714D01*
X90262976Y-72321428D01*
X90231071Y-72392857D01*
X78881785Y-62550000D02*
X79200833Y-62550000D01*
X78817976Y-62764285D02*
X79041309Y-62014285D01*
X79264642Y-62764285D01*
X79424166Y-62014285D02*
X79838928Y-62014285D01*
X79615595Y-62300000D01*
X79711309Y-62300000D01*
X79775119Y-62335714D01*
X79807023Y-62371428D01*
X79838928Y-62442857D01*
X79838928Y-62621428D01*
X79807023Y-62692857D01*
X79775119Y-62728571D01*
X79711309Y-62764285D01*
X79519880Y-62764285D01*
X79456071Y-62728571D01*
X79424166Y-62692857D01*
X80604642Y-61978571D02*
X80030357Y-62942857D01*
X81051309Y-62371428D02*
X80827976Y-62371428D01*
X80827976Y-62764285D02*
X80827976Y-62014285D01*
X81147023Y-62014285D01*
X81689404Y-62264285D02*
X81689404Y-62764285D01*
X81529880Y-61978571D02*
X81370357Y-62514285D01*
X81785119Y-62514285D01*
X78881785Y-65050000D02*
X79200833Y-65050000D01*
X78817976Y-65264285D02*
X79041309Y-64514285D01*
X79264642Y-65264285D01*
X79456071Y-64585714D02*
X79487976Y-64550000D01*
X79551785Y-64514285D01*
X79711309Y-64514285D01*
X79775119Y-64550000D01*
X79807023Y-64585714D01*
X79838928Y-64657142D01*
X79838928Y-64728571D01*
X79807023Y-64835714D01*
X79424166Y-65264285D01*
X79838928Y-65264285D01*
X80604642Y-64478571D02*
X80030357Y-65442857D01*
X81051309Y-64871428D02*
X80827976Y-64871428D01*
X80827976Y-65264285D02*
X80827976Y-64514285D01*
X81147023Y-64514285D01*
X81721309Y-64514285D02*
X81402261Y-64514285D01*
X81370357Y-64871428D01*
X81402261Y-64835714D01*
X81466071Y-64800000D01*
X81625595Y-64800000D01*
X81689404Y-64835714D01*
X81721309Y-64871428D01*
X81753214Y-64942857D01*
X81753214Y-65121428D01*
X81721309Y-65192857D01*
X81689404Y-65228571D01*
X81625595Y-65264285D01*
X81466071Y-65264285D01*
X81402261Y-65228571D01*
X81370357Y-65192857D01*
X88284880Y-74871428D02*
X88508214Y-74871428D01*
X88603928Y-75264285D02*
X88284880Y-75264285D01*
X88284880Y-74514285D01*
X88603928Y-74514285D01*
X89178214Y-74514285D02*
X89050595Y-74514285D01*
X88986785Y-74550000D01*
X88954880Y-74585714D01*
X88891071Y-74692857D01*
X88859166Y-74835714D01*
X88859166Y-75121428D01*
X88891071Y-75192857D01*
X88922976Y-75228571D01*
X88986785Y-75264285D01*
X89114404Y-75264285D01*
X89178214Y-75228571D01*
X89210119Y-75192857D01*
X89242023Y-75121428D01*
X89242023Y-74942857D01*
X89210119Y-74871428D01*
X89178214Y-74835714D01*
X89114404Y-74800000D01*
X88986785Y-74800000D01*
X88922976Y-74835714D01*
X88891071Y-74871428D01*
X88859166Y-74942857D01*
X90007738Y-74478571D02*
X89433452Y-75442857D01*
X90167261Y-74514285D02*
X90613928Y-74514285D01*
X90326785Y-75264285D01*
X89157023Y-59400000D02*
X89093214Y-59364285D01*
X88997500Y-59364285D01*
X88901785Y-59400000D01*
X88837976Y-59471428D01*
X88806071Y-59542857D01*
X88774166Y-59685714D01*
X88774166Y-59792857D01*
X88806071Y-59935714D01*
X88837976Y-60007142D01*
X88901785Y-60078571D01*
X88997500Y-60114285D01*
X89061309Y-60114285D01*
X89157023Y-60078571D01*
X89188928Y-60042857D01*
X89188928Y-59792857D01*
X89061309Y-59792857D01*
X89476071Y-60114285D02*
X89476071Y-59364285D01*
X89858928Y-60114285D01*
X89858928Y-59364285D01*
X90177976Y-60114285D02*
X90177976Y-59364285D01*
X90337500Y-59364285D01*
X90433214Y-59400000D01*
X90497023Y-59471428D01*
X90528928Y-59542857D01*
X90560833Y-59685714D01*
X90560833Y-59792857D01*
X90528928Y-59935714D01*
X90497023Y-60007142D01*
X90433214Y-60078571D01*
X90337500Y-60114285D01*
X90177976Y-60114285D01*
X79087023Y-54360000D02*
X79023214Y-54324285D01*
X78927500Y-54324285D01*
X78831785Y-54360000D01*
X78767976Y-54431428D01*
X78736071Y-54502857D01*
X78704166Y-54645714D01*
X78704166Y-54752857D01*
X78736071Y-54895714D01*
X78767976Y-54967142D01*
X78831785Y-55038571D01*
X78927500Y-55074285D01*
X78991309Y-55074285D01*
X79087023Y-55038571D01*
X79118928Y-55002857D01*
X79118928Y-54752857D01*
X78991309Y-54752857D01*
X79406071Y-55074285D02*
X79406071Y-54324285D01*
X79788928Y-55074285D01*
X79788928Y-54324285D01*
X80107976Y-55074285D02*
X80107976Y-54324285D01*
X80267500Y-54324285D01*
X80363214Y-54360000D01*
X80427023Y-54431428D01*
X80458928Y-54502857D01*
X80490833Y-54645714D01*
X80490833Y-54752857D01*
X80458928Y-54895714D01*
X80427023Y-54967142D01*
X80363214Y-55038571D01*
X80267500Y-55074285D01*
X80107976Y-55074285D01*
X87128690Y-52564285D02*
X87128690Y-51814285D01*
X87288214Y-51814285D01*
X87383928Y-51850000D01*
X87447738Y-51921428D01*
X87479642Y-51992857D01*
X87511547Y-52135714D01*
X87511547Y-52242857D01*
X87479642Y-52385714D01*
X87447738Y-52457142D01*
X87383928Y-52528571D01*
X87288214Y-52564285D01*
X87128690Y-52564285D01*
X87734880Y-51814285D02*
X88149642Y-51814285D01*
X87926309Y-52100000D01*
X88022023Y-52100000D01*
X88085833Y-52135714D01*
X88117738Y-52171428D01*
X88149642Y-52242857D01*
X88149642Y-52421428D01*
X88117738Y-52492857D01*
X88085833Y-52528571D01*
X88022023Y-52564285D01*
X87830595Y-52564285D01*
X87766785Y-52528571D01*
X87734880Y-52492857D01*
X88915357Y-51778571D02*
X88341071Y-52742857D01*
X89042976Y-51814285D02*
X89425833Y-51814285D01*
X89234404Y-52564285D02*
X89234404Y-51814285D01*
X89585357Y-51814285D02*
X90032023Y-52564285D01*
X90032023Y-51814285D02*
X89585357Y-52564285D01*
X90414880Y-51814285D02*
X90478690Y-51814285D01*
X90542500Y-51850000D01*
X90574404Y-51885714D01*
X90606309Y-51957142D01*
X90638214Y-52100000D01*
X90638214Y-52278571D01*
X90606309Y-52421428D01*
X90574404Y-52492857D01*
X90542500Y-52528571D01*
X90478690Y-52564285D01*
X90414880Y-52564285D01*
X90351071Y-52528571D01*
X90319166Y-52492857D01*
X90287261Y-52421428D01*
X90255357Y-52278571D01*
X90255357Y-52100000D01*
X90287261Y-51957142D01*
X90319166Y-51885714D01*
X90351071Y-51850000D01*
X90414880Y-51814285D01*
X79184880Y-72864285D02*
X78802023Y-72864285D01*
X78993452Y-72864285D02*
X78993452Y-72114285D01*
X78929642Y-72221428D01*
X78865833Y-72292857D01*
X78802023Y-72328571D01*
X79791071Y-72114285D02*
X79472023Y-72114285D01*
X79440119Y-72471428D01*
X79472023Y-72435714D01*
X79535833Y-72400000D01*
X79695357Y-72400000D01*
X79759166Y-72435714D01*
X79791071Y-72471428D01*
X79822976Y-72542857D01*
X79822976Y-72721428D01*
X79791071Y-72792857D01*
X79759166Y-72828571D01*
X79695357Y-72864285D01*
X79535833Y-72864285D01*
X79472023Y-72828571D01*
X79440119Y-72792857D01*
X80588690Y-72078571D02*
X80014404Y-73042857D01*
X81035357Y-72471428D02*
X81131071Y-72507142D01*
X81162976Y-72542857D01*
X81194880Y-72614285D01*
X81194880Y-72721428D01*
X81162976Y-72792857D01*
X81131071Y-72828571D01*
X81067261Y-72864285D01*
X80812023Y-72864285D01*
X80812023Y-72114285D01*
X81035357Y-72114285D01*
X81099166Y-72150000D01*
X81131071Y-72185714D01*
X81162976Y-72257142D01*
X81162976Y-72328571D01*
X81131071Y-72400000D01*
X81099166Y-72435714D01*
X81035357Y-72471428D01*
X80812023Y-72471428D01*
X81832976Y-72864285D02*
X81450119Y-72864285D01*
X81641547Y-72864285D02*
X81641547Y-72114285D01*
X81577738Y-72221428D01*
X81513928Y-72292857D01*
X81450119Y-72328571D01*
X79184880Y-80464285D02*
X78802023Y-80464285D01*
X78993452Y-80464285D02*
X78993452Y-79714285D01*
X78929642Y-79821428D01*
X78865833Y-79892857D01*
X78802023Y-79928571D01*
X79599642Y-79714285D02*
X79663452Y-79714285D01*
X79727261Y-79750000D01*
X79759166Y-79785714D01*
X79791071Y-79857142D01*
X79822976Y-80000000D01*
X79822976Y-80178571D01*
X79791071Y-80321428D01*
X79759166Y-80392857D01*
X79727261Y-80428571D01*
X79663452Y-80464285D01*
X79599642Y-80464285D01*
X79535833Y-80428571D01*
X79503928Y-80392857D01*
X79472023Y-80321428D01*
X79440119Y-80178571D01*
X79440119Y-80000000D01*
X79472023Y-79857142D01*
X79503928Y-79785714D01*
X79535833Y-79750000D01*
X79599642Y-79714285D01*
X80588690Y-79678571D02*
X80014404Y-80642857D01*
X81035357Y-80071428D02*
X81131071Y-80107142D01*
X81162976Y-80142857D01*
X81194880Y-80214285D01*
X81194880Y-80321428D01*
X81162976Y-80392857D01*
X81131071Y-80428571D01*
X81067261Y-80464285D01*
X80812023Y-80464285D01*
X80812023Y-79714285D01*
X81035357Y-79714285D01*
X81099166Y-79750000D01*
X81131071Y-79785714D01*
X81162976Y-79857142D01*
X81162976Y-79928571D01*
X81131071Y-80000000D01*
X81099166Y-80035714D01*
X81035357Y-80071428D01*
X80812023Y-80071428D01*
X81769166Y-79714285D02*
X81641547Y-79714285D01*
X81577738Y-79750000D01*
X81545833Y-79785714D01*
X81482023Y-79892857D01*
X81450119Y-80035714D01*
X81450119Y-80321428D01*
X81482023Y-80392857D01*
X81513928Y-80428571D01*
X81577738Y-80464285D01*
X81705357Y-80464285D01*
X81769166Y-80428571D01*
X81801071Y-80392857D01*
X81832976Y-80321428D01*
X81832976Y-80142857D01*
X81801071Y-80071428D01*
X81769166Y-80035714D01*
X81705357Y-80000000D01*
X81577738Y-80000000D01*
X81513928Y-80035714D01*
X81482023Y-80071428D01*
X81450119Y-80142857D01*
D10*
%TO.C,K11*%
X122610714Y-68652380D02*
X122610714Y-67652380D01*
X123182142Y-68652380D02*
X122753571Y-68080952D01*
X123182142Y-67652380D02*
X122610714Y-68223809D01*
X124134523Y-68652380D02*
X123563095Y-68652380D01*
X123848809Y-68652380D02*
X123848809Y-67652380D01*
X123753571Y-67795238D01*
X123658333Y-67890476D01*
X123563095Y-67938095D01*
X125086904Y-68652380D02*
X124515476Y-68652380D01*
X124801190Y-68652380D02*
X124801190Y-67652380D01*
X124705952Y-67795238D01*
X124610714Y-67890476D01*
X124515476Y-67938095D01*
%TO.C,K26*%
X179760714Y-123421130D02*
X179760714Y-122421130D01*
X180332142Y-123421130D02*
X179903571Y-122849702D01*
X180332142Y-122421130D02*
X179760714Y-122992559D01*
X180713095Y-122516369D02*
X180760714Y-122468750D01*
X180855952Y-122421130D01*
X181094047Y-122421130D01*
X181189285Y-122468750D01*
X181236904Y-122516369D01*
X181284523Y-122611607D01*
X181284523Y-122706845D01*
X181236904Y-122849702D01*
X180665476Y-123421130D01*
X181284523Y-123421130D01*
X182141666Y-122421130D02*
X181951190Y-122421130D01*
X181855952Y-122468750D01*
X181808333Y-122516369D01*
X181713095Y-122659226D01*
X181665476Y-122849702D01*
X181665476Y-123230654D01*
X181713095Y-123325892D01*
X181760714Y-123373511D01*
X181855952Y-123421130D01*
X182046428Y-123421130D01*
X182141666Y-123373511D01*
X182189285Y-123325892D01*
X182236904Y-123230654D01*
X182236904Y-122992559D01*
X182189285Y-122897321D01*
X182141666Y-122849702D01*
X182046428Y-122802083D01*
X181855952Y-122802083D01*
X181760714Y-122849702D01*
X181713095Y-122897321D01*
X181665476Y-122992559D01*
%TO.C,K21*%
X160710714Y-104371130D02*
X160710714Y-103371130D01*
X161282142Y-104371130D02*
X160853571Y-103799702D01*
X161282142Y-103371130D02*
X160710714Y-103942559D01*
X161663095Y-103466369D02*
X161710714Y-103418750D01*
X161805952Y-103371130D01*
X162044047Y-103371130D01*
X162139285Y-103418750D01*
X162186904Y-103466369D01*
X162234523Y-103561607D01*
X162234523Y-103656845D01*
X162186904Y-103799702D01*
X161615476Y-104371130D01*
X162234523Y-104371130D01*
X163186904Y-104371130D02*
X162615476Y-104371130D01*
X162901190Y-104371130D02*
X162901190Y-103371130D01*
X162805952Y-103513988D01*
X162710714Y-103609226D01*
X162615476Y-103656845D01*
%TO.C,K22*%
X141660714Y-104371130D02*
X141660714Y-103371130D01*
X142232142Y-104371130D02*
X141803571Y-103799702D01*
X142232142Y-103371130D02*
X141660714Y-103942559D01*
X142613095Y-103466369D02*
X142660714Y-103418750D01*
X142755952Y-103371130D01*
X142994047Y-103371130D01*
X143089285Y-103418750D01*
X143136904Y-103466369D01*
X143184523Y-103561607D01*
X143184523Y-103656845D01*
X143136904Y-103799702D01*
X142565476Y-104371130D01*
X143184523Y-104371130D01*
X143565476Y-103466369D02*
X143613095Y-103418750D01*
X143708333Y-103371130D01*
X143946428Y-103371130D01*
X144041666Y-103418750D01*
X144089285Y-103466369D01*
X144136904Y-103561607D01*
X144136904Y-103656845D01*
X144089285Y-103799702D01*
X143517857Y-104371130D01*
X144136904Y-104371130D01*
%TO.C,K4*%
X142136904Y-47221130D02*
X142136904Y-46221130D01*
X142708333Y-47221130D02*
X142279761Y-46649702D01*
X142708333Y-46221130D02*
X142136904Y-46792559D01*
X143565476Y-46554464D02*
X143565476Y-47221130D01*
X143327380Y-46173511D02*
X143089285Y-46887797D01*
X143708333Y-46887797D01*
%TO.C,K18*%
X103560714Y-90083630D02*
X103560714Y-89083630D01*
X104132142Y-90083630D02*
X103703571Y-89512202D01*
X104132142Y-89083630D02*
X103560714Y-89655059D01*
X105084523Y-90083630D02*
X104513095Y-90083630D01*
X104798809Y-90083630D02*
X104798809Y-89083630D01*
X104703571Y-89226488D01*
X104608333Y-89321726D01*
X104513095Y-89369345D01*
X105655952Y-89512202D02*
X105560714Y-89464583D01*
X105513095Y-89416964D01*
X105465476Y-89321726D01*
X105465476Y-89274107D01*
X105513095Y-89178869D01*
X105560714Y-89131250D01*
X105655952Y-89083630D01*
X105846428Y-89083630D01*
X105941666Y-89131250D01*
X105989285Y-89178869D01*
X106036904Y-89274107D01*
X106036904Y-89321726D01*
X105989285Y-89416964D01*
X105941666Y-89464583D01*
X105846428Y-89512202D01*
X105655952Y-89512202D01*
X105560714Y-89559821D01*
X105513095Y-89607440D01*
X105465476Y-89702678D01*
X105465476Y-89893154D01*
X105513095Y-89988392D01*
X105560714Y-90036011D01*
X105655952Y-90083630D01*
X105846428Y-90083630D01*
X105941666Y-90036011D01*
X105989285Y-89988392D01*
X106036904Y-89893154D01*
X106036904Y-89702678D01*
X105989285Y-89607440D01*
X105941666Y-89559821D01*
X105846428Y-89512202D01*
%TO.C,K7*%
X199286904Y-66271130D02*
X199286904Y-65271130D01*
X199858333Y-66271130D02*
X199429761Y-65699702D01*
X199858333Y-65271130D02*
X199286904Y-65842559D01*
X200191666Y-65271130D02*
X200858333Y-65271130D01*
X200429761Y-66271130D01*
%TO.C,K3*%
X161186904Y-47221130D02*
X161186904Y-46221130D01*
X161758333Y-47221130D02*
X161329761Y-46649702D01*
X161758333Y-46221130D02*
X161186904Y-46792559D01*
X162091666Y-46221130D02*
X162710714Y-46221130D01*
X162377380Y-46602083D01*
X162520238Y-46602083D01*
X162615476Y-46649702D01*
X162663095Y-46697321D01*
X162710714Y-46792559D01*
X162710714Y-47030654D01*
X162663095Y-47125892D01*
X162615476Y-47173511D01*
X162520238Y-47221130D01*
X162234523Y-47221130D01*
X162139285Y-47173511D01*
X162091666Y-47125892D01*
%TO.C,K23*%
X122610714Y-106752380D02*
X122610714Y-105752380D01*
X123182142Y-106752380D02*
X122753571Y-106180952D01*
X123182142Y-105752380D02*
X122610714Y-106323809D01*
X123563095Y-105847619D02*
X123610714Y-105800000D01*
X123705952Y-105752380D01*
X123944047Y-105752380D01*
X124039285Y-105800000D01*
X124086904Y-105847619D01*
X124134523Y-105942857D01*
X124134523Y-106038095D01*
X124086904Y-106180952D01*
X123515476Y-106752380D01*
X124134523Y-106752380D01*
X124467857Y-105752380D02*
X125086904Y-105752380D01*
X124753571Y-106133333D01*
X124896428Y-106133333D01*
X124991666Y-106180952D01*
X125039285Y-106228571D01*
X125086904Y-106323809D01*
X125086904Y-106561904D01*
X125039285Y-106657142D01*
X124991666Y-106704761D01*
X124896428Y-106752380D01*
X124610714Y-106752380D01*
X124515476Y-106704761D01*
X124467857Y-106657142D01*
%TO.C,SW1*%
X90871130Y-89358630D02*
X90394940Y-89691964D01*
X90871130Y-89930059D02*
X89871130Y-89930059D01*
X89871130Y-89549107D01*
X89918750Y-89453869D01*
X89966369Y-89406250D01*
X90061607Y-89358630D01*
X90204464Y-89358630D01*
X90299702Y-89406250D01*
X90347321Y-89453869D01*
X90394940Y-89549107D01*
X90394940Y-89930059D01*
X90347321Y-88930059D02*
X90347321Y-88596726D01*
X90871130Y-88453869D02*
X90871130Y-88930059D01*
X89871130Y-88930059D01*
X89871130Y-88453869D01*
X90823511Y-88072916D02*
X90871130Y-87930059D01*
X90871130Y-87691964D01*
X90823511Y-87596726D01*
X90775892Y-87549107D01*
X90680654Y-87501488D01*
X90585416Y-87501488D01*
X90490178Y-87549107D01*
X90442559Y-87596726D01*
X90394940Y-87691964D01*
X90347321Y-87882440D01*
X90299702Y-87977678D01*
X90252083Y-88025297D01*
X90156845Y-88072916D01*
X90061607Y-88072916D01*
X89966369Y-88025297D01*
X89918750Y-87977678D01*
X89871130Y-87882440D01*
X89871130Y-87644345D01*
X89918750Y-87501488D01*
X90347321Y-87072916D02*
X90347321Y-86739583D01*
X90871130Y-86596726D02*
X90871130Y-87072916D01*
X89871130Y-87072916D01*
X89871130Y-86596726D01*
X89871130Y-86311011D02*
X89871130Y-85739583D01*
X90871130Y-86025297D02*
X89871130Y-86025297D01*
%TO.C,K6*%
X104036904Y-51983630D02*
X104036904Y-50983630D01*
X104608333Y-51983630D02*
X104179761Y-51412202D01*
X104608333Y-50983630D02*
X104036904Y-51555059D01*
X105465476Y-50983630D02*
X105275000Y-50983630D01*
X105179761Y-51031250D01*
X105132142Y-51078869D01*
X105036904Y-51221726D01*
X104989285Y-51412202D01*
X104989285Y-51793154D01*
X105036904Y-51888392D01*
X105084523Y-51936011D01*
X105179761Y-51983630D01*
X105370238Y-51983630D01*
X105465476Y-51936011D01*
X105513095Y-51888392D01*
X105560714Y-51793154D01*
X105560714Y-51555059D01*
X105513095Y-51459821D01*
X105465476Y-51412202D01*
X105370238Y-51364583D01*
X105179761Y-51364583D01*
X105084523Y-51412202D01*
X105036904Y-51459821D01*
X104989285Y-51555059D01*
%TO.C,K19*%
X201191964Y-104371130D02*
X201191964Y-103371130D01*
X201763392Y-104371130D02*
X201334821Y-103799702D01*
X201763392Y-103371130D02*
X201191964Y-103942559D01*
X202715773Y-104371130D02*
X202144345Y-104371130D01*
X202430059Y-104371130D02*
X202430059Y-103371130D01*
X202334821Y-103513988D01*
X202239583Y-103609226D01*
X202144345Y-103656845D01*
X203191964Y-104371130D02*
X203382440Y-104371130D01*
X203477678Y-104323511D01*
X203525297Y-104275892D01*
X203620535Y-104133035D01*
X203668154Y-103942559D01*
X203668154Y-103561607D01*
X203620535Y-103466369D01*
X203572916Y-103418750D01*
X203477678Y-103371130D01*
X203287202Y-103371130D01*
X203191964Y-103418750D01*
X203144345Y-103466369D01*
X203096726Y-103561607D01*
X203096726Y-103799702D01*
X203144345Y-103894940D01*
X203191964Y-103942559D01*
X203287202Y-103990178D01*
X203477678Y-103990178D01*
X203572916Y-103942559D01*
X203620535Y-103894940D01*
X203668154Y-103799702D01*
%TO.C,K1*%
X199286904Y-47221130D02*
X199286904Y-46221130D01*
X199858333Y-47221130D02*
X199429761Y-46649702D01*
X199858333Y-46221130D02*
X199286904Y-46792559D01*
X200810714Y-47221130D02*
X200239285Y-47221130D01*
X200525000Y-47221130D02*
X200525000Y-46221130D01*
X200429761Y-46363988D01*
X200334523Y-46459226D01*
X200239285Y-46506845D01*
%TO.C,K15*%
X160710714Y-85321130D02*
X160710714Y-84321130D01*
X161282142Y-85321130D02*
X160853571Y-84749702D01*
X161282142Y-84321130D02*
X160710714Y-84892559D01*
X162234523Y-85321130D02*
X161663095Y-85321130D01*
X161948809Y-85321130D02*
X161948809Y-84321130D01*
X161853571Y-84463988D01*
X161758333Y-84559226D01*
X161663095Y-84606845D01*
X163139285Y-84321130D02*
X162663095Y-84321130D01*
X162615476Y-84797321D01*
X162663095Y-84749702D01*
X162758333Y-84702083D01*
X162996428Y-84702083D01*
X163091666Y-84749702D01*
X163139285Y-84797321D01*
X163186904Y-84892559D01*
X163186904Y-85130654D01*
X163139285Y-85225892D01*
X163091666Y-85273511D01*
X162996428Y-85321130D01*
X162758333Y-85321130D01*
X162663095Y-85273511D01*
X162615476Y-85225892D01*
%TO.C,K28*%
X122923360Y-127229787D02*
X122792834Y-126238342D01*
X123489900Y-127155201D02*
X122990408Y-126644601D01*
X123359373Y-126163756D02*
X122867420Y-126804882D01*
X123749498Y-126208455D02*
X123790494Y-126155028D01*
X123878702Y-126095385D01*
X124114760Y-126064308D01*
X124215399Y-126099088D01*
X124268826Y-126140084D01*
X124328469Y-126228292D01*
X124340900Y-126322715D01*
X124312335Y-126470566D01*
X123820381Y-127111692D01*
X124434133Y-127030890D01*
X124926086Y-126389764D02*
X124825448Y-126354983D01*
X124772020Y-126313987D01*
X124712378Y-126225779D01*
X124706162Y-126178568D01*
X124740943Y-126077929D01*
X124781939Y-126024502D01*
X124870147Y-125964859D01*
X125058993Y-125939997D01*
X125159632Y-125974778D01*
X125213059Y-126015774D01*
X125272702Y-126103981D01*
X125278918Y-126151193D01*
X125244137Y-126251832D01*
X125203141Y-126305259D01*
X125114933Y-126364902D01*
X124926086Y-126389764D01*
X124837879Y-126449407D01*
X124796882Y-126502834D01*
X124762102Y-126603473D01*
X124786964Y-126792319D01*
X124846607Y-126880527D01*
X124900034Y-126921523D01*
X125000673Y-126956304D01*
X125189519Y-126931442D01*
X125277727Y-126871799D01*
X125318723Y-126818372D01*
X125353504Y-126717733D01*
X125328642Y-126528886D01*
X125268999Y-126440679D01*
X125215572Y-126399682D01*
X125114933Y-126364902D01*
%TO.C,K20*%
X179760714Y-104371130D02*
X179760714Y-103371130D01*
X180332142Y-104371130D02*
X179903571Y-103799702D01*
X180332142Y-103371130D02*
X179760714Y-103942559D01*
X180713095Y-103466369D02*
X180760714Y-103418750D01*
X180855952Y-103371130D01*
X181094047Y-103371130D01*
X181189285Y-103418750D01*
X181236904Y-103466369D01*
X181284523Y-103561607D01*
X181284523Y-103656845D01*
X181236904Y-103799702D01*
X180665476Y-104371130D01*
X181284523Y-104371130D01*
X181903571Y-103371130D02*
X181998809Y-103371130D01*
X182094047Y-103418750D01*
X182141666Y-103466369D01*
X182189285Y-103561607D01*
X182236904Y-103752083D01*
X182236904Y-103990178D01*
X182189285Y-104180654D01*
X182141666Y-104275892D01*
X182094047Y-104323511D01*
X181998809Y-104371130D01*
X181903571Y-104371130D01*
X181808333Y-104323511D01*
X181760714Y-104275892D01*
X181713095Y-104180654D01*
X181665476Y-103990178D01*
X181665476Y-103752083D01*
X181713095Y-103561607D01*
X181760714Y-103466369D01*
X181808333Y-103418750D01*
X181903571Y-103371130D01*
%TO.C,K25*%
X201191964Y-123421130D02*
X201191964Y-122421130D01*
X201763392Y-123421130D02*
X201334821Y-122849702D01*
X201763392Y-122421130D02*
X201191964Y-122992559D01*
X202144345Y-122516369D02*
X202191964Y-122468750D01*
X202287202Y-122421130D01*
X202525297Y-122421130D01*
X202620535Y-122468750D01*
X202668154Y-122516369D01*
X202715773Y-122611607D01*
X202715773Y-122706845D01*
X202668154Y-122849702D01*
X202096726Y-123421130D01*
X202715773Y-123421130D01*
X203620535Y-122421130D02*
X203144345Y-122421130D01*
X203096726Y-122897321D01*
X203144345Y-122849702D01*
X203239583Y-122802083D01*
X203477678Y-122802083D01*
X203572916Y-122849702D01*
X203620535Y-122897321D01*
X203668154Y-122992559D01*
X203668154Y-123230654D01*
X203620535Y-123325892D01*
X203572916Y-123373511D01*
X203477678Y-123421130D01*
X203239583Y-123421130D01*
X203144345Y-123373511D01*
X203096726Y-123325892D01*
%TO.C,K27*%
X160710714Y-123421130D02*
X160710714Y-122421130D01*
X161282142Y-123421130D02*
X160853571Y-122849702D01*
X161282142Y-122421130D02*
X160710714Y-122992559D01*
X161663095Y-122516369D02*
X161710714Y-122468750D01*
X161805952Y-122421130D01*
X162044047Y-122421130D01*
X162139285Y-122468750D01*
X162186904Y-122516369D01*
X162234523Y-122611607D01*
X162234523Y-122706845D01*
X162186904Y-122849702D01*
X161615476Y-123421130D01*
X162234523Y-123421130D01*
X162567857Y-122421130D02*
X163234523Y-122421130D01*
X162805952Y-123421130D01*
%TO.C,K13*%
X201191964Y-85321130D02*
X201191964Y-84321130D01*
X201763392Y-85321130D02*
X201334821Y-84749702D01*
X201763392Y-84321130D02*
X201191964Y-84892559D01*
X202715773Y-85321130D02*
X202144345Y-85321130D01*
X202430059Y-85321130D02*
X202430059Y-84321130D01*
X202334821Y-84463988D01*
X202239583Y-84559226D01*
X202144345Y-84606845D01*
X203049107Y-84321130D02*
X203668154Y-84321130D01*
X203334821Y-84702083D01*
X203477678Y-84702083D01*
X203572916Y-84749702D01*
X203620535Y-84797321D01*
X203668154Y-84892559D01*
X203668154Y-85130654D01*
X203620535Y-85225892D01*
X203572916Y-85273511D01*
X203477678Y-85321130D01*
X203191964Y-85321130D01*
X203096726Y-85273511D01*
X203049107Y-85225892D01*
%TO.C,K29*%
X92231945Y-131270389D02*
X92101419Y-130278944D01*
X92798485Y-131195803D02*
X92298993Y-130685203D01*
X92667958Y-130204358D02*
X92176005Y-130845484D01*
X93058083Y-130249057D02*
X93099079Y-130195630D01*
X93187287Y-130135987D01*
X93423345Y-130104910D01*
X93523984Y-130139690D01*
X93577411Y-130180686D01*
X93637054Y-130268894D01*
X93649485Y-130363317D01*
X93620920Y-130511168D01*
X93128966Y-131152294D01*
X93742718Y-131071492D01*
X94214834Y-131009337D02*
X94403681Y-130984475D01*
X94491889Y-130924832D01*
X94532885Y-130871405D01*
X94608662Y-130717339D01*
X94631011Y-130522277D01*
X94581287Y-130144583D01*
X94521644Y-130056376D01*
X94468217Y-130015380D01*
X94367578Y-129980599D01*
X94178732Y-130005461D01*
X94090524Y-130065104D01*
X94049528Y-130118531D01*
X94014747Y-130219170D01*
X94045825Y-130455228D01*
X94105467Y-130543436D01*
X94158895Y-130584432D01*
X94259534Y-130619213D01*
X94448380Y-130594350D01*
X94536588Y-130534708D01*
X94577584Y-130481281D01*
X94612365Y-130380642D01*
%TO.C,K12*%
X103560714Y-71033630D02*
X103560714Y-70033630D01*
X104132142Y-71033630D02*
X103703571Y-70462202D01*
X104132142Y-70033630D02*
X103560714Y-70605059D01*
X105084523Y-71033630D02*
X104513095Y-71033630D01*
X104798809Y-71033630D02*
X104798809Y-70033630D01*
X104703571Y-70176488D01*
X104608333Y-70271726D01*
X104513095Y-70319345D01*
X105465476Y-70128869D02*
X105513095Y-70081250D01*
X105608333Y-70033630D01*
X105846428Y-70033630D01*
X105941666Y-70081250D01*
X105989285Y-70128869D01*
X106036904Y-70224107D01*
X106036904Y-70319345D01*
X105989285Y-70462202D01*
X105417857Y-71033630D01*
X106036904Y-71033630D01*
%TO.C,J1*%
X79902380Y-88411904D02*
X79902380Y-87840476D01*
X80902380Y-88126190D02*
X79902380Y-88126190D01*
X80902380Y-86935714D02*
X80426190Y-87269047D01*
X80902380Y-87507142D02*
X79902380Y-87507142D01*
X79902380Y-87126190D01*
X79950000Y-87030952D01*
X79997619Y-86983333D01*
X80092857Y-86935714D01*
X80235714Y-86935714D01*
X80330952Y-86983333D01*
X80378571Y-87030952D01*
X80426190Y-87126190D01*
X80426190Y-87507142D01*
X80902380Y-85935714D02*
X80426190Y-86269047D01*
X80902380Y-86507142D02*
X79902380Y-86507142D01*
X79902380Y-86126190D01*
X79950000Y-86030952D01*
X79997619Y-85983333D01*
X80092857Y-85935714D01*
X80235714Y-85935714D01*
X80330952Y-85983333D01*
X80378571Y-86030952D01*
X80426190Y-86126190D01*
X80426190Y-86507142D01*
X80854761Y-85554761D02*
X80902380Y-85411904D01*
X80902380Y-85173809D01*
X80854761Y-85078571D01*
X80807142Y-85030952D01*
X80711904Y-84983333D01*
X80616666Y-84983333D01*
X80521428Y-85030952D01*
X80473809Y-85078571D01*
X80426190Y-85173809D01*
X80378571Y-85364285D01*
X80330952Y-85459523D01*
X80283333Y-85507142D01*
X80188095Y-85554761D01*
X80092857Y-85554761D01*
X79997619Y-85507142D01*
X79950000Y-85459523D01*
X79902380Y-85364285D01*
X79902380Y-85126190D01*
X79950000Y-84983333D01*
%TO.C,K17*%
X122610714Y-87702380D02*
X122610714Y-86702380D01*
X123182142Y-87702380D02*
X122753571Y-87130952D01*
X123182142Y-86702380D02*
X122610714Y-87273809D01*
X124134523Y-87702380D02*
X123563095Y-87702380D01*
X123848809Y-87702380D02*
X123848809Y-86702380D01*
X123753571Y-86845238D01*
X123658333Y-86940476D01*
X123563095Y-86988095D01*
X124467857Y-86702380D02*
X125134523Y-86702380D01*
X124705952Y-87702380D01*
D12*
%TO.C,K14*%
X173875000Y-85768750D02*
X173875000Y-99968750D01*
X173875000Y-99968750D02*
X188075000Y-99968750D01*
X188075000Y-99968750D02*
X188075000Y-85768750D01*
X188075000Y-85768750D02*
X173875000Y-85768750D01*
%TO.C,K10*%
X135775000Y-80918750D02*
X149975000Y-80918750D01*
X149975000Y-80918750D02*
X149975000Y-66718750D01*
X149975000Y-66718750D02*
X135775000Y-66718750D01*
X135775000Y-66718750D02*
X135775000Y-80918750D01*
%TO.C,K8*%
X188075000Y-80918750D02*
X188075000Y-66718750D01*
X173875000Y-80918750D02*
X188075000Y-80918750D01*
X173875000Y-66718750D02*
X173875000Y-80918750D01*
X188075000Y-66718750D02*
X173875000Y-66718750D01*
%TO.C,K24*%
X111875000Y-123781250D02*
X111875000Y-109581250D01*
X111875000Y-109581250D02*
X97675000Y-109581250D01*
X97675000Y-123781250D02*
X111875000Y-123781250D01*
X97675000Y-109581250D02*
X97675000Y-123781250D01*
%TO.C,K5*%
X130925000Y-50050000D02*
X116725000Y-50050000D01*
X116725000Y-50050000D02*
X116725000Y-64250000D01*
X130925000Y-64250000D02*
X130925000Y-50050000D01*
X116725000Y-64250000D02*
X130925000Y-64250000D01*
%TO.C,K9*%
X169025000Y-66718750D02*
X154825000Y-66718750D01*
X169025000Y-80918750D02*
X169025000Y-66718750D01*
X154825000Y-66718750D02*
X154825000Y-80918750D01*
X154825000Y-80918750D02*
X169025000Y-80918750D01*
%TO.C,K16*%
X149975000Y-85768750D02*
X135775000Y-85768750D01*
X149975000Y-99968750D02*
X149975000Y-85768750D01*
X135775000Y-99968750D02*
X149975000Y-99968750D01*
X135775000Y-85768750D02*
X135775000Y-99968750D01*
%TO.C,K2*%
X188075000Y-61868750D02*
X188075000Y-47668750D01*
X188075000Y-47668750D02*
X173875000Y-47668750D01*
X173875000Y-47668750D02*
X173875000Y-61868750D01*
X173875000Y-61868750D02*
X188075000Y-61868750D01*
D10*
%TO.C,U1*%
X75962500Y-51075000D02*
X76812500Y-51075000D01*
X93462500Y-81275000D02*
X92602500Y-81275000D01*
X75962500Y-51075000D02*
X75962500Y-51925000D01*
X93462500Y-80425000D02*
X93462500Y-81275000D01*
X75962500Y-81275000D02*
X76812500Y-81275000D01*
X93462500Y-51075000D02*
X93462500Y-51925000D01*
X93462500Y-51075000D02*
X92662500Y-51075000D01*
X75962500Y-80375000D02*
X75962500Y-81275000D01*
D12*
%TO.C,K11*%
X130925000Y-69100000D02*
X116725000Y-69100000D01*
X130925000Y-83300000D02*
X130925000Y-69100000D01*
X116725000Y-83300000D02*
X130925000Y-83300000D01*
X116725000Y-69100000D02*
X116725000Y-83300000D01*
%TO.C,K26*%
X173875000Y-123868750D02*
X173875000Y-138068750D01*
X173875000Y-138068750D02*
X188075000Y-138068750D01*
X188075000Y-123868750D02*
X173875000Y-123868750D01*
X188075000Y-138068750D02*
X188075000Y-123868750D01*
%TO.C,K21*%
X169025000Y-119018750D02*
X169025000Y-104818750D01*
X154825000Y-104818750D02*
X154825000Y-119018750D01*
X169025000Y-104818750D02*
X154825000Y-104818750D01*
X154825000Y-119018750D02*
X169025000Y-119018750D01*
%TO.C,K22*%
X149975000Y-119018750D02*
X149975000Y-104818750D01*
X135775000Y-119018750D02*
X149975000Y-119018750D01*
X135775000Y-104818750D02*
X135775000Y-119018750D01*
X149975000Y-104818750D02*
X135775000Y-104818750D01*
%TO.C,K4*%
X149975000Y-47668750D02*
X135775000Y-47668750D01*
X149975000Y-61868750D02*
X149975000Y-47668750D01*
X135775000Y-47668750D02*
X135775000Y-61868750D01*
X135775000Y-61868750D02*
X149975000Y-61868750D01*
%TO.C,K18*%
X97675000Y-104731250D02*
X111875000Y-104731250D01*
X97675000Y-90531250D02*
X97675000Y-104731250D01*
X111875000Y-104731250D02*
X111875000Y-90531250D01*
X111875000Y-90531250D02*
X97675000Y-90531250D01*
%TO.C,K7*%
X192925000Y-66718750D02*
X192925000Y-80918750D01*
X207125000Y-66718750D02*
X192925000Y-66718750D01*
X207125000Y-80918750D02*
X207125000Y-66718750D01*
X192925000Y-80918750D02*
X207125000Y-80918750D01*
%TO.C,K3*%
X154825000Y-47668750D02*
X154825000Y-61868750D01*
X154825000Y-61868750D02*
X169025000Y-61868750D01*
X169025000Y-61868750D02*
X169025000Y-47668750D01*
X169025000Y-47668750D02*
X154825000Y-47668750D01*
%TO.C,K23*%
X130925000Y-107200000D02*
X116725000Y-107200000D01*
X130925000Y-121400000D02*
X130925000Y-107200000D01*
X116725000Y-107200000D02*
X116725000Y-121400000D01*
X116725000Y-121400000D02*
X130925000Y-121400000D01*
D10*
%TO.C,SW1*%
X92018750Y-90756250D02*
X91768750Y-90756250D01*
X88818750Y-90756250D02*
X88818750Y-85056250D01*
X88818750Y-85056250D02*
X89068750Y-85056250D01*
X92018750Y-85056250D02*
X91768750Y-85056250D01*
X92018750Y-90756250D02*
X92018750Y-85056250D01*
X88818750Y-90756250D02*
X89068750Y-90756250D01*
D12*
%TO.C,K6*%
X97675000Y-52431250D02*
X97675000Y-66631250D01*
X97675000Y-66631250D02*
X111875000Y-66631250D01*
X111875000Y-66631250D02*
X111875000Y-52431250D01*
X111875000Y-52431250D02*
X97675000Y-52431250D01*
%TO.C,K19*%
X195306250Y-119018750D02*
X209506250Y-119018750D01*
X195306250Y-104818750D02*
X195306250Y-119018750D01*
X209506250Y-104818750D02*
X195306250Y-104818750D01*
X209506250Y-119018750D02*
X209506250Y-104818750D01*
%TO.C,K1*%
X207125000Y-47668750D02*
X192925000Y-47668750D01*
X192925000Y-61868750D02*
X207125000Y-61868750D01*
X207125000Y-61868750D02*
X207125000Y-47668750D01*
X192925000Y-47668750D02*
X192925000Y-61868750D01*
%TO.C,K15*%
X154825000Y-99968750D02*
X169025000Y-99968750D01*
X169025000Y-85768750D02*
X154825000Y-85768750D01*
X154825000Y-85768750D02*
X154825000Y-99968750D01*
X169025000Y-99968750D02*
X169025000Y-85768750D01*
%TO.C,K28*%
X133078414Y-140666863D02*
X131224943Y-126588346D01*
X118999897Y-142520334D02*
X133078414Y-140666863D01*
X117146426Y-128441817D02*
X118999897Y-142520334D01*
X131224943Y-126588346D02*
X117146426Y-128441817D01*
%TO.C,K20*%
X188075000Y-104818750D02*
X173875000Y-104818750D01*
X173875000Y-104818750D02*
X173875000Y-119018750D01*
X173875000Y-119018750D02*
X188075000Y-119018750D01*
X188075000Y-119018750D02*
X188075000Y-104818750D01*
%TO.C,K25*%
X209506250Y-138068750D02*
X209506250Y-123868750D01*
X209506250Y-123868750D02*
X195306250Y-123868750D01*
X195306250Y-138068750D02*
X209506250Y-138068750D01*
X195306250Y-123868750D02*
X195306250Y-138068750D01*
%TO.C,K27*%
X154825000Y-138068750D02*
X169025000Y-138068750D01*
X169025000Y-138068750D02*
X169025000Y-123868750D01*
X169025000Y-123868750D02*
X154825000Y-123868750D01*
X154825000Y-123868750D02*
X154825000Y-138068750D01*
%TO.C,K13*%
X209506250Y-99968750D02*
X209506250Y-85768750D01*
X195306250Y-85768750D02*
X195306250Y-99968750D01*
X195306250Y-99968750D02*
X209506250Y-99968750D01*
X209506250Y-85768750D02*
X195306250Y-85768750D01*
%TO.C,K29*%
X88308482Y-146560936D02*
X102386999Y-144707465D01*
X100533528Y-130628948D02*
X86455011Y-132482419D01*
X102386999Y-144707465D02*
X100533528Y-130628948D01*
X86455011Y-132482419D02*
X88308482Y-146560936D01*
%TO.C,K12*%
X111875000Y-71481250D02*
X97675000Y-71481250D01*
X97675000Y-85681250D02*
X111875000Y-85681250D01*
X97675000Y-71481250D02*
X97675000Y-85681250D01*
X111875000Y-85681250D02*
X111875000Y-71481250D01*
D10*
%TO.C,J1*%
X85900000Y-88800000D02*
X74150000Y-88800000D01*
X74150000Y-83000000D02*
X85900000Y-83000000D01*
X74150000Y-88800000D02*
X74150000Y-83000000D01*
X85900000Y-83000000D02*
X85900000Y-88800000D01*
D12*
%TO.C,K17*%
X130925000Y-102350000D02*
X130925000Y-88150000D01*
X130925000Y-88150000D02*
X116725000Y-88150000D01*
X116725000Y-88150000D02*
X116725000Y-102350000D01*
X116725000Y-102350000D02*
X130925000Y-102350000D01*
%TD*%
M02*
