%TF.GenerationSoftware,KiCad,Pcbnew,(6.0.4)*%
%TF.CreationDate,2022-10-11T17:37:43-05:00*%
%TF.ProjectId,GummyKey_Right,47756d6d-794b-4657-995f-52696768742e,rev?*%
%TF.SameCoordinates,Original*%
%TF.FileFunction,Profile,NP*%
%FSLAX46Y46*%
G04 Gerber Fmt 4.6, Leading zero omitted, Abs format (unit mm)*
G04 Created by KiCad (PCBNEW (6.0.4)) date 2022-10-11 17:37:43*
%MOMM*%
%LPD*%
G01*
G04 APERTURE LIST*
%TA.AperFunction,Profile*%
%ADD10C,0.100000*%
%TD*%
%ADD11C,0.100000*%
G04 APERTURE END LIST*
D10*
X97831250Y-47625000D02*
X76400000Y-47625000D01*
X209750000Y-42862500D02*
X140693750Y-42862500D01*
X212131296Y-45243747D02*
G75*
G03*
X209750000Y-42862500I-2562796J-181553D01*
G01*
D11*
X216893750Y-90487500D02*
X216893604Y-90046829D01*
X216892587Y-89613134D01*
X216889825Y-89179440D01*
X216884448Y-88738769D01*
X216875582Y-88284146D01*
X216862356Y-87808593D01*
X216843898Y-87305136D01*
X216819335Y-86766796D01*
X216787797Y-86186599D01*
X216748410Y-85557568D01*
X216700302Y-84872726D01*
X216642602Y-84125097D01*
X216574438Y-83307705D01*
X216494937Y-82413574D01*
X216403227Y-81435726D01*
X216298437Y-80367187D01*
X216179694Y-79200979D01*
X216046127Y-77930126D01*
X215896863Y-76547653D01*
X215731030Y-75046582D01*
X215547756Y-73419937D01*
X215346170Y-71660742D01*
X215125398Y-69762020D01*
X214884570Y-67716796D01*
X214622813Y-65518093D01*
X214339254Y-63158935D01*
X214033023Y-60632345D01*
X213703247Y-57931347D01*
X213349053Y-55048965D01*
X212969570Y-51978222D01*
X212563927Y-48712142D01*
X212131250Y-45243750D01*
D10*
X216893750Y-90487500D02*
X216893750Y-140493750D01*
X79971875Y-129182812D02*
X83543750Y-150018750D01*
X76400000Y-47624950D02*
G75*
G03*
X74018750Y-50006250I100J-2381350D01*
G01*
D11*
X184746875Y-142875000D02*
X182189242Y-142882048D01*
X179647669Y-142903486D01*
X177117284Y-142939748D01*
X174593218Y-142991271D01*
X172070602Y-143058491D01*
X169544564Y-143141844D01*
X167010234Y-143241765D01*
X164462744Y-143358691D01*
X161897222Y-143493058D01*
X159308798Y-143645301D01*
X156692604Y-143815858D01*
X154043768Y-144005163D01*
X151357420Y-144213653D01*
X148628691Y-144441764D01*
X145852711Y-144689932D01*
X143024609Y-144958593D01*
X140139515Y-145248183D01*
X137192560Y-145559138D01*
X134178873Y-145891894D01*
X131093585Y-146246887D01*
X127931824Y-146624553D01*
X124688722Y-147025328D01*
X121359409Y-147449648D01*
X117939013Y-147897949D01*
X114422666Y-148370667D01*
X110805496Y-148868238D01*
X107082635Y-149391099D01*
X103249212Y-149939685D01*
X99300357Y-150514431D01*
X95231200Y-151115776D01*
X91036871Y-151744153D01*
X86712500Y-152400000D01*
D10*
X184746875Y-142875000D02*
X214512500Y-142875000D01*
X214512500Y-142875050D02*
G75*
G03*
X216893750Y-140493750I-100J2381350D01*
G01*
D11*
X79971875Y-129182812D02*
X79431028Y-125876745D01*
X78923973Y-122763291D01*
X78449620Y-119836235D01*
X78006878Y-117089364D01*
X77594658Y-114516465D01*
X77211869Y-112111325D01*
X76857421Y-109867730D01*
X76530224Y-107779467D01*
X76229189Y-105840323D01*
X75953224Y-104044085D01*
X75701241Y-102384538D01*
X75472149Y-100855471D01*
X75264858Y-99450670D01*
X75078278Y-98163920D01*
X74911319Y-96989010D01*
X74762890Y-95919726D01*
X74631902Y-94949854D01*
X74517266Y-94073182D01*
X74417889Y-93283495D01*
X74332684Y-92574581D01*
X74260559Y-91940227D01*
X74200424Y-91374219D01*
X74151191Y-90870343D01*
X74111767Y-90422387D01*
X74081064Y-90024138D01*
X74057991Y-89669381D01*
X74041459Y-89351904D01*
X74030377Y-89065493D01*
X74023655Y-88803936D01*
X74020203Y-88561018D01*
X74018931Y-88330527D01*
X74018750Y-88106250D01*
D10*
X74018750Y-50006250D02*
X74018750Y-88106250D01*
D11*
X119262500Y-45243750D02*
X120567507Y-45027411D01*
X121805368Y-44824589D01*
X122978697Y-44634848D01*
X124090112Y-44457751D01*
X125142228Y-44292863D01*
X126137661Y-44139747D01*
X127079028Y-43997968D01*
X127968945Y-43867089D01*
X128810027Y-43746675D01*
X129604891Y-43636289D01*
X130356154Y-43535496D01*
X131066430Y-43443859D01*
X131738337Y-43360943D01*
X132374490Y-43286311D01*
X132977505Y-43219527D01*
X133550000Y-43160156D01*
X134094588Y-43107761D01*
X134613888Y-43061906D01*
X135110515Y-43022155D01*
X135587084Y-42988073D01*
X136046213Y-42959223D01*
X136490518Y-42935169D01*
X136922613Y-42915476D01*
X137345117Y-42899707D01*
X137760644Y-42887425D01*
X138171810Y-42878196D01*
X138581233Y-42871583D01*
X138991528Y-42867150D01*
X139405311Y-42864462D01*
X139825198Y-42863081D01*
X140253805Y-42862572D01*
X140693750Y-42862500D01*
X97831250Y-47625000D02*
X98271194Y-47624927D01*
X98699801Y-47624418D01*
X99119688Y-47623037D01*
X99533471Y-47620349D01*
X99943766Y-47615916D01*
X100353189Y-47609303D01*
X100764355Y-47600074D01*
X101179882Y-47587792D01*
X101602386Y-47572023D01*
X102034481Y-47552330D01*
X102478786Y-47528276D01*
X102937915Y-47499426D01*
X103414484Y-47465344D01*
X103911111Y-47425593D01*
X104430411Y-47379738D01*
X104975000Y-47327343D01*
X105547494Y-47267972D01*
X106150509Y-47201188D01*
X106786662Y-47126556D01*
X107458569Y-47043640D01*
X108168845Y-46952003D01*
X108920108Y-46851210D01*
X109714972Y-46740824D01*
X110556054Y-46620410D01*
X111445971Y-46489531D01*
X112387338Y-46347752D01*
X113382771Y-46194636D01*
X114434887Y-46029748D01*
X115546302Y-45852651D01*
X116719631Y-45662910D01*
X117957492Y-45460088D01*
X119262500Y-45243750D01*
D10*
X83543728Y-150018753D02*
G75*
G03*
X86712500Y-152400000I2772372J390253D01*
G01*
M02*
