%TF.GenerationSoftware,KiCad,Pcbnew,(6.0.4)*%
%TF.CreationDate,2022-10-11T17:37:43-05:00*%
%TF.ProjectId,GummyKey_Right,47756d6d-794b-4657-995f-52696768742e,rev?*%
%TF.SameCoordinates,Original*%
%TF.FileFunction,Soldermask,Bot*%
%TF.FilePolarity,Negative*%
%FSLAX46Y46*%
G04 Gerber Fmt 4.6, Leading zero omitted, Abs format (unit mm)*
G04 Created by KiCad (PCBNEW (6.0.4)) date 2022-10-11 17:37:43*
%MOMM*%
%LPD*%
G01*
G04 APERTURE LIST*
G04 Aperture macros list*
%AMRoundRect*
0 Rectangle with rounded corners*
0 $1 Rounding radius*
0 $2 $3 $4 $5 $6 $7 $8 $9 X,Y pos of 4 corners*
0 Add a 4 corners polygon primitive as box body*
4,1,4,$2,$3,$4,$5,$6,$7,$8,$9,$2,$3,0*
0 Add four circle primitives for the rounded corners*
1,1,$1+$1,$2,$3*
1,1,$1+$1,$4,$5*
1,1,$1+$1,$6,$7*
1,1,$1+$1,$8,$9*
0 Add four rect primitives between the rounded corners*
20,1,$1+$1,$2,$3,$4,$5,0*
20,1,$1+$1,$4,$5,$6,$7,0*
20,1,$1+$1,$6,$7,$8,$9,0*
20,1,$1+$1,$8,$9,$2,$3,0*%
G04 Aperture macros list end*
%ADD10C,3.048000*%
%ADD11C,3.987800*%
%ADD12C,4.700000*%
%ADD13C,4.000000*%
%ADD14C,3.050000*%
%ADD15C,1.750000*%
%ADD16RoundRect,0.250000X-1.025000X-1.000000X1.025000X-1.000000X1.025000X1.000000X-1.025000X1.000000X0*%
%ADD17C,1.524000*%
%ADD18C,2.000000*%
%ADD19RoundRect,0.250000X-0.885705X-1.125234X1.146757X-0.857656X0.885705X1.125234X-1.146757X0.857656X0*%
%ADD20C,1.200000*%
%ADD21O,2.500000X1.700000*%
%ADD22R,0.900000X1.200000*%
%ADD23RoundRect,0.250000X-0.350000X-0.450000X0.350000X-0.450000X0.350000X0.450000X-0.350000X0.450000X0*%
G04 APERTURE END LIST*
D10*
%TO.C,*%
X112364826Y-129187319D03*
X136036563Y-126070876D03*
D11*
X114350129Y-144267196D03*
X138021867Y-141150752D03*
%TD*%
D12*
%TO.C,TH3*%
X107156250Y-139303125D03*
%TD*%
%TO.C,TH3*%
X114300000Y-67865625D03*
%TD*%
%TO.C,TH3*%
X190500000Y-64293750D03*
%TD*%
%TO.C,TH3*%
X190500000Y-121443750D03*
%TD*%
D13*
%TO.C,K14*%
X180975000Y-92868750D03*
D14*
X177165000Y-90328750D03*
D15*
X186055000Y-92868750D03*
D14*
X183515000Y-87788750D03*
D15*
X175895000Y-92868750D03*
D16*
X173890000Y-90328750D03*
X186817000Y-87788750D03*
%TD*%
D15*
%TO.C,K10*%
X137795000Y-73818750D03*
D14*
X145415000Y-68738750D03*
X139065000Y-71278750D03*
D13*
X142875000Y-73818750D03*
D15*
X147955000Y-73818750D03*
D16*
X135790000Y-71278750D03*
X148717000Y-68738750D03*
%TD*%
D15*
%TO.C,K8*%
X186055000Y-73818750D03*
X175895000Y-73818750D03*
D14*
X183515000Y-68738750D03*
D13*
X180975000Y-73818750D03*
D14*
X177165000Y-71278750D03*
D16*
X173890000Y-71278750D03*
X186817000Y-68738750D03*
%TD*%
D14*
%TO.C,K24*%
X100965000Y-114141250D03*
D15*
X109855000Y-116681250D03*
X99695000Y-116681250D03*
D13*
X104775000Y-116681250D03*
D14*
X107315000Y-111601250D03*
D16*
X97690000Y-114141250D03*
X110617000Y-111601250D03*
%TD*%
D15*
%TO.C,K5*%
X118745000Y-57150000D03*
D13*
X123825000Y-57150000D03*
D14*
X120015000Y-54610000D03*
X126365000Y-52070000D03*
D15*
X128905000Y-57150000D03*
D16*
X116740000Y-54610000D03*
X129667000Y-52070000D03*
%TD*%
D13*
%TO.C,K9*%
X161925000Y-73818750D03*
D14*
X164465000Y-68738750D03*
X158115000Y-71278750D03*
D15*
X156845000Y-73818750D03*
X167005000Y-73818750D03*
D16*
X154840000Y-71278750D03*
X167767000Y-68738750D03*
%TD*%
D15*
%TO.C,K16*%
X137795000Y-92868750D03*
X147955000Y-92868750D03*
D14*
X145415000Y-87788750D03*
D13*
X142875000Y-92868750D03*
D14*
X139065000Y-90328750D03*
D16*
X135790000Y-90328750D03*
X148717000Y-87788750D03*
%TD*%
D15*
%TO.C,K2*%
X186055000Y-54768750D03*
D14*
X183515000Y-49688750D03*
D15*
X175895000Y-54768750D03*
D14*
X177165000Y-52228750D03*
D13*
X180975000Y-54768750D03*
D16*
X173890000Y-52228750D03*
X186817000Y-49688750D03*
%TD*%
D17*
%TO.C,U1*%
X92323900Y-52197000D03*
X92323900Y-54737000D03*
X92323900Y-57277000D03*
X92323900Y-59817000D03*
X92323900Y-62357000D03*
X92323900Y-64897000D03*
X92323900Y-67437000D03*
X92323900Y-69977000D03*
X92323900Y-72517000D03*
X92323900Y-75057000D03*
X92323900Y-77597000D03*
X92323900Y-80137000D03*
X77103900Y-80137000D03*
X77103900Y-77597000D03*
X77103900Y-75057000D03*
X77103900Y-72517000D03*
X77103900Y-69977000D03*
X77103900Y-67437000D03*
X77103900Y-64897000D03*
X77103900Y-62357000D03*
X77103900Y-59817000D03*
X77103900Y-57277000D03*
X77103900Y-54737000D03*
X77103900Y-52197000D03*
%TD*%
D13*
%TO.C,K11*%
X123825000Y-76200000D03*
D14*
X120015000Y-73660000D03*
D15*
X128905000Y-76200000D03*
D14*
X126365000Y-71120000D03*
D15*
X118745000Y-76200000D03*
D16*
X116740000Y-73660000D03*
X129667000Y-71120000D03*
%TD*%
D14*
%TO.C,K26*%
X177165000Y-128428750D03*
X183515000Y-125888750D03*
D13*
X180975000Y-130968750D03*
D15*
X186055000Y-130968750D03*
X175895000Y-130968750D03*
D16*
X173890000Y-128428750D03*
X186817000Y-125888750D03*
%TD*%
D15*
%TO.C,K21*%
X167005000Y-111918750D03*
D14*
X158115000Y-109378750D03*
X164465000Y-106838750D03*
D15*
X156845000Y-111918750D03*
D13*
X161925000Y-111918750D03*
D16*
X154840000Y-109378750D03*
X167767000Y-106838750D03*
%TD*%
D13*
%TO.C,K22*%
X142875000Y-111918750D03*
D15*
X137795000Y-111918750D03*
D14*
X145415000Y-106838750D03*
X139065000Y-109378750D03*
D15*
X147955000Y-111918750D03*
D16*
X135790000Y-109378750D03*
X148717000Y-106838750D03*
%TD*%
D13*
%TO.C,K4*%
X142875000Y-54768750D03*
D15*
X137795000Y-54768750D03*
D14*
X145415000Y-49688750D03*
X139065000Y-52228750D03*
D15*
X147955000Y-54768750D03*
D16*
X135790000Y-52228750D03*
X148717000Y-49688750D03*
%TD*%
D14*
%TO.C,K18*%
X107315000Y-92551250D03*
X100965000Y-95091250D03*
D15*
X99695000Y-97631250D03*
X109855000Y-97631250D03*
D13*
X104775000Y-97631250D03*
D16*
X97690000Y-95091250D03*
X110617000Y-92551250D03*
%TD*%
D14*
%TO.C,K7*%
X196215000Y-71278750D03*
X202565000Y-68738750D03*
D15*
X205105000Y-73818750D03*
D13*
X200025000Y-73818750D03*
D15*
X194945000Y-73818750D03*
D16*
X192940000Y-71278750D03*
X205867000Y-68738750D03*
%TD*%
D14*
%TO.C,K3*%
X158115000Y-52228750D03*
X164465000Y-49688750D03*
D13*
X161925000Y-54768750D03*
D15*
X156845000Y-54768750D03*
X167005000Y-54768750D03*
D16*
X154840000Y-52228750D03*
X167767000Y-49688750D03*
%TD*%
D13*
%TO.C,K23*%
X123825000Y-114300000D03*
D15*
X118745000Y-114300000D03*
X128905000Y-114300000D03*
D14*
X120015000Y-111760000D03*
X126365000Y-109220000D03*
D16*
X116740000Y-111760000D03*
X129667000Y-109220000D03*
%TD*%
D18*
%TO.C,SW1*%
X90418750Y-84656250D03*
X90418750Y-91156250D03*
%TD*%
D13*
%TO.C,K6*%
X104775000Y-59531250D03*
D15*
X109855000Y-59531250D03*
X99695000Y-59531250D03*
D14*
X100965000Y-56991250D03*
X107315000Y-54451250D03*
D16*
X97690000Y-56991250D03*
X110617000Y-54451250D03*
%TD*%
D13*
%TO.C,K19*%
X202406250Y-111918750D03*
D15*
X207486250Y-111918750D03*
D14*
X204946250Y-106838750D03*
X198596250Y-109378750D03*
D15*
X197326250Y-111918750D03*
D16*
X195321250Y-109378750D03*
X208248250Y-106838750D03*
%TD*%
D14*
%TO.C,K1*%
X196215000Y-52228750D03*
X202565000Y-49688750D03*
D15*
X205105000Y-54768750D03*
D13*
X200025000Y-54768750D03*
D15*
X194945000Y-54768750D03*
D16*
X192940000Y-52228750D03*
X205867000Y-49688750D03*
%TD*%
D15*
%TO.C,K15*%
X167005000Y-92868750D03*
X156845000Y-92868750D03*
D13*
X161925000Y-92868750D03*
D14*
X158115000Y-90328750D03*
X164465000Y-87788750D03*
D16*
X154840000Y-90328750D03*
X167767000Y-87788750D03*
%TD*%
D15*
%TO.C,K28*%
X130148960Y-133891267D03*
D13*
X125112420Y-134554340D03*
D15*
X120075880Y-135217413D03*
D14*
X126967617Y-129186264D03*
X121003479Y-132533375D03*
D19*
X117756497Y-132960848D03*
X130241368Y-128755266D03*
%TD*%
D15*
%TO.C,K20*%
X186055000Y-111918750D03*
D14*
X183515000Y-106838750D03*
X177165000Y-109378750D03*
D13*
X180975000Y-111918750D03*
D15*
X175895000Y-111918750D03*
D16*
X173890000Y-109378750D03*
X186817000Y-106838750D03*
%TD*%
D13*
%TO.C,K25*%
X202406250Y-130968750D03*
D14*
X204946250Y-125888750D03*
D15*
X207486250Y-130968750D03*
X197326250Y-130968750D03*
D14*
X198596250Y-128428750D03*
D16*
X195321250Y-128428750D03*
X208248250Y-125888750D03*
%TD*%
D15*
%TO.C,K27*%
X156845000Y-130968750D03*
X167005000Y-130968750D03*
D13*
X161925000Y-130968750D03*
D14*
X158115000Y-128428750D03*
X164465000Y-125888750D03*
D16*
X154840000Y-128428750D03*
X167767000Y-125888750D03*
%TD*%
D13*
%TO.C,K13*%
X202406250Y-92868750D03*
D15*
X197326250Y-92868750D03*
D14*
X198596250Y-90328750D03*
X204946250Y-87788750D03*
D15*
X207486250Y-92868750D03*
D16*
X195321250Y-90328750D03*
X208248250Y-87788750D03*
%TD*%
D13*
%TO.C,K29*%
X94421005Y-138594942D03*
D15*
X89384465Y-139258015D03*
D14*
X96276202Y-133226866D03*
D15*
X99457545Y-137931869D03*
D14*
X90312064Y-136573977D03*
D19*
X87065082Y-137001450D03*
X99549953Y-132795868D03*
%TD*%
D14*
%TO.C,K12*%
X107315000Y-73501250D03*
X100965000Y-76041250D03*
D13*
X104775000Y-78581250D03*
D15*
X99695000Y-78581250D03*
X109855000Y-78581250D03*
D16*
X97690000Y-76041250D03*
X110617000Y-73501250D03*
%TD*%
D20*
%TO.C,J1*%
X82500000Y-85900000D03*
X75500000Y-85900000D03*
D21*
X84300000Y-83800000D03*
X80300000Y-83800000D03*
X77300000Y-83800000D03*
X85800000Y-88000000D03*
%TD*%
D15*
%TO.C,K17*%
X118745000Y-95250000D03*
X128905000Y-95250000D03*
D14*
X120015000Y-92710000D03*
D13*
X123825000Y-95250000D03*
D14*
X126365000Y-90170000D03*
D16*
X116740000Y-92710000D03*
X129667000Y-90170000D03*
%TD*%
D22*
%TO.C,D16*%
X141225000Y-97631250D03*
X144525000Y-97631250D03*
%TD*%
%TO.C,D14*%
X179325000Y-97631250D03*
X182625000Y-97631250D03*
%TD*%
%TO.C,D12*%
X103125000Y-83343750D03*
X106425000Y-83343750D03*
%TD*%
%TO.C,D4*%
X141225000Y-59531250D03*
X144525000Y-59531250D03*
%TD*%
%TO.C,D27*%
X160275000Y-135731250D03*
X163575000Y-135731250D03*
%TD*%
D23*
%TO.C,R1*%
X87106250Y-61912500D03*
X89106250Y-61912500D03*
%TD*%
D22*
%TO.C,D24*%
X103125000Y-121443750D03*
X106425000Y-121443750D03*
%TD*%
%TO.C,D29*%
X93600000Y-142875000D03*
X96900000Y-142875000D03*
%TD*%
%TO.C,D10*%
X141225000Y-78581250D03*
X144525000Y-78581250D03*
%TD*%
%TO.C,D13*%
X200756250Y-97631250D03*
X204056250Y-97631250D03*
%TD*%
%TO.C,D22*%
X141225000Y-116681250D03*
X144525000Y-116681250D03*
%TD*%
%TO.C,D25*%
X200756250Y-135731250D03*
X204056250Y-135731250D03*
%TD*%
%TO.C,D15*%
X160275000Y-97631250D03*
X163575000Y-97631250D03*
%TD*%
%TO.C,D5*%
X122175000Y-61912500D03*
X125475000Y-61912500D03*
%TD*%
%TO.C,D7*%
X198375000Y-78581250D03*
X201675000Y-78581250D03*
%TD*%
%TO.C,D28*%
X124556250Y-139303125D03*
X127856250Y-139303125D03*
%TD*%
%TO.C,D1*%
X198375000Y-59531250D03*
X201675000Y-59531250D03*
%TD*%
%TO.C,D23*%
X122175000Y-119062500D03*
X125475000Y-119062500D03*
%TD*%
%TO.C,D9*%
X160275000Y-78581250D03*
X163575000Y-78581250D03*
%TD*%
%TO.C,D20*%
X179325000Y-116681250D03*
X182625000Y-116681250D03*
%TD*%
D23*
%TO.C,R2*%
X87106250Y-65484375D03*
X89106250Y-65484375D03*
%TD*%
D22*
%TO.C,D11*%
X122175000Y-80962500D03*
X125475000Y-80962500D03*
%TD*%
%TO.C,D17*%
X122175000Y-100012500D03*
X125475000Y-100012500D03*
%TD*%
%TO.C,D26*%
X179325000Y-135731250D03*
X182625000Y-135731250D03*
%TD*%
%TO.C,D21*%
X160275000Y-116681250D03*
X163575000Y-116681250D03*
%TD*%
%TO.C,D3*%
X160275000Y-59531250D03*
X163575000Y-59531250D03*
%TD*%
%TO.C,D18*%
X103125000Y-102393750D03*
X106425000Y-102393750D03*
%TD*%
%TO.C,D8*%
X179325000Y-78581250D03*
X182625000Y-78581250D03*
%TD*%
%TO.C,D19*%
X200756250Y-116681250D03*
X204056250Y-116681250D03*
%TD*%
%TO.C,D6*%
X103125000Y-64293750D03*
X106425000Y-64293750D03*
%TD*%
%TO.C,D2*%
X179325000Y-59531250D03*
X182625000Y-59531250D03*
%TD*%
M02*
