M48
; DRILL file {KiCad (6.0.4)} date Tue Oct 11 17:37:45 2022
; FORMAT={-:-/ absolute / inch / decimal}
; #@! TF.CreationDate,2022-10-11T17:37:45-05:00
; #@! TF.GenerationSoftware,Kicad,Pcbnew,(6.0.4)
; #@! TF.FileFunction,NonPlated,1,2,NPTH
FMAT,2
INCH
; #@! TA.AperFunction,NonPlated,NPTH,ComponentDrill
T1C0.0472
; #@! TA.AperFunction,NonPlated,NPTH,ComponentDrill
T2C0.0689
; #@! TA.AperFunction,NonPlated,NPTH,ComponentDrill
T3C0.1200
; #@! TA.AperFunction,NonPlated,NPTH,ComponentDrill
T4C0.1201
; #@! TA.AperFunction,NonPlated,NPTH,ComponentDrill
T5C0.1570
; #@! TA.AperFunction,NonPlated,NPTH,ComponentDrill
T6C0.1575
%
G90
G05
T1
X2.9724Y-3.3819
X3.248Y-3.3819
T2
X3.5191Y-5.4826
X3.9157Y-5.4304
X3.925Y-2.3438
X3.925Y-3.0938
X3.925Y-3.8438
X3.925Y-4.5938
X4.325Y-2.3438
X4.325Y-3.0938
X4.325Y-3.8438
X4.325Y-4.5938
X4.675Y-2.25
X4.675Y-3.0
X4.675Y-3.75
X4.675Y-4.5
X4.7274Y-5.3235
X5.075Y-2.25
X5.075Y-3.0
X5.075Y-3.75
X5.075Y-4.5
X5.124Y-5.2713
X5.425Y-2.1562
X5.425Y-2.9062
X5.425Y-3.6562
X5.425Y-4.4062
X5.825Y-2.1562
X5.825Y-2.9062
X5.825Y-3.6562
X5.825Y-4.4062
X6.175Y-2.1562
X6.175Y-2.9062
X6.175Y-3.6562
X6.175Y-4.4062
X6.175Y-5.1562
X6.575Y-2.1562
X6.575Y-2.9062
X6.575Y-3.6562
X6.575Y-4.4062
X6.575Y-5.1562
X6.925Y-2.1562
X6.925Y-2.9062
X6.925Y-3.6562
X6.925Y-4.4062
X6.925Y-5.1562
X7.325Y-2.1562
X7.325Y-2.9062
X7.325Y-3.6562
X7.325Y-4.4062
X7.325Y-5.1562
X7.675Y-2.1562
X7.675Y-2.9062
X7.7687Y-3.6562
X7.7687Y-4.4062
X7.7687Y-5.1562
X8.075Y-2.1562
X8.075Y-2.9062
X8.1687Y-3.6562
X8.1687Y-4.4062
X8.1687Y-5.1562
T3
X4.4238Y-5.0861
X5.3558Y-4.9634
T4
X3.5556Y-5.3769
X3.7904Y-5.2452
X3.975Y-2.2437
X3.975Y-2.9937
X3.975Y-3.7437
X3.975Y-4.4937
X4.225Y-2.1437
X4.225Y-2.8937
X4.225Y-3.6437
X4.225Y-4.3937
X4.725Y-2.15
X4.725Y-2.9
X4.725Y-3.65
X4.725Y-4.4
X4.7639Y-5.2178
X4.975Y-2.05
X4.975Y-2.8
X4.975Y-3.55
X4.975Y-4.3
X4.9987Y-5.0861
X5.475Y-2.0562
X5.475Y-2.8062
X5.475Y-3.5562
X5.475Y-4.3062
X5.725Y-1.9563
X5.725Y-2.7062
X5.725Y-3.4562
X5.725Y-4.2062
X6.225Y-2.0562
X6.225Y-2.8062
X6.225Y-3.5562
X6.225Y-4.3062
X6.225Y-5.0562
X6.475Y-1.9563
X6.475Y-2.7062
X6.475Y-3.4562
X6.475Y-4.2062
X6.475Y-4.9562
X6.975Y-2.0562
X6.975Y-2.8062
X6.975Y-3.5562
X6.975Y-4.3062
X6.975Y-5.0562
X7.225Y-1.9563
X7.225Y-2.7062
X7.225Y-3.4562
X7.225Y-4.2062
X7.225Y-4.9562
X7.725Y-2.0562
X7.725Y-2.8062
X7.8187Y-3.5562
X7.8187Y-4.3062
X7.8187Y-5.0562
X7.975Y-1.9563
X7.975Y-2.7062
X8.0687Y-3.4562
X8.0687Y-4.2062
X8.0687Y-4.9562
T5
X4.502Y-5.6798
X5.4339Y-5.5571
T6
X3.7174Y-5.4565
X4.125Y-2.3438
X4.125Y-3.0938
X4.125Y-3.8438
X4.125Y-4.5938
X4.875Y-2.25
X4.875Y-3.0
X4.875Y-3.75
X4.875Y-4.5
X4.9257Y-5.2974
X5.625Y-2.1562
X5.625Y-2.9062
X5.625Y-3.6562
X5.625Y-4.4062
X6.375Y-2.1562
X6.375Y-2.9062
X6.375Y-3.6562
X6.375Y-4.4062
X6.375Y-5.1562
X7.125Y-2.1562
X7.125Y-2.9062
X7.125Y-3.6562
X7.125Y-4.4062
X7.125Y-5.1562
X7.875Y-2.1562
X7.875Y-2.9062
X7.9688Y-3.6562
X7.9688Y-4.4062
X7.9688Y-5.1562
T0
M30
